<svg xmlns="http://www.w3.org/2000/svg" viewBox="0 0 822.65 800.68"><defs><style>.cls-1{isolation:isolate;}.cls-2{fill:none;}.cls-3{fill: #f1f1f1;}.cls-4{mix-blend-mode:multiply;}</style></defs><g class="cls-1"><g id="Layer_1" data-name="Layer 1"><polygon class="cls-2" points="572.26 356.04 571.81 356.7 573.28 356.31 572.26 356.04"/><path class="cls-2" d="M768,1.23,770.07,0H762.5l-1.89,3.27h7.16l-.25-.92A1,1,0,0,1,768,1.23Z"/><polygon class="cls-2" points="312 20.59 314.47 24.99 313.02 19.57 312 20.59"/><path class="cls-2" d="M122.55,1.23,124.62,0h-7.57l-1.89,3.26h7.16l-.25-.91A1.06,1.06,0,0,1,122.55,1.23Z"/><polygon class="cls-2" points="797.18 0.03 786.2 0.03 780.52 3.31 798.07 3.31 797.18 0.03"/><polygon class="cls-2" points="770.31 66.65 769.9 67.25 770.7 67.04 770.31 66.65"/><polygon class="cls-2" points="170.87 0.04 169.99 3.31 187.53 3.31 181.84 0.03 170.87 0.04"/><path class="cls-2" d="M198,0l2.11,1.21a1,1,0,0,1,.48,1.16l-.24.91h7.15L205.54,0Z"/><polygon class="cls-2" points="140.75 0.04 135.08 3.31 152.62 3.31 151.74 0.04 140.75 0.04"/><polygon class="cls-2" points="125.93 615.5 125.97 615.43 125.82 615.39 125.93 615.5"/><path class="cls-3" d="M605.79,68.25l4.43,7.67a1.57,1.57,0,0,1,.17.21,1.09,1.09,0,0,1,.13.81,1,1,0,0,1-.12.35,2,2,0,0,1-.17.23l-4.46,7.72,16.94,0,14.68-8.49-14.73-8.45Z"/><polygon class="cls-3" points="586.74 68.25 581.83 76.74 586.79 85.25 596.54 85.2 601.41 76.69 596.45 68.2 586.74 68.25"/><polygon class="cls-3" points="609.39 179.55 588.82 174.09 568.72 179.49 568.72 190.46 574.21 199.98 594.37 194.57 609.39 179.55"/><polygon class="cls-3" points="568.72 160.35 588.85 165.75 609.33 160.26 594.32 145.25 574.21 139.87 568.72 149.38 568.72 160.35"/><path class="cls-3" d="M577.21,255l4.31-7.47a1,1,0,0,1,.12-.42,1,1,0,0,1,.87-.55h9.31l-8.46-14.64-14.6-8.42v16.89Z"/><path class="cls-3" d="M560.66,165.74v-2.38L556.84,170l3.82,6.55v-2.43a1,1,0,0,1,.76-1l11.86-3.18-11.86-3.18A1,1,0,0,1,560.66,165.74Z"/><path class="cls-3" d="M600.65,54.67a1,1,0,0,1-.73.3,1,1,0,0,1-.51-.14l-2.07-1.19,3.79,6.55h7.58L606.64,59a1,1,0,0,1-.48-1.16L609.33,46Z"/><polygon class="cls-3" points="619 169.93 615.91 166.84 604.42 169.92 615.92 173 619 169.93"/><path class="cls-3" d="M528.77,378.34a1,1,0,0,1,1.25-.17l2.07,1.19-3.79-6.55h-7.59l2.08,1.19a1,1,0,0,1,.48,1.16L520.09,387Z"/><path class="cls-3" d="M581.52,92.24l-4.31-7.48-8.45,14.65v16.92l14.63-8.45,8.43-14.62H583l-.2,0a.85.85,0,0,1-.23,0,1,1,0,0,1-1-1Z"/><polygon class="cls-3" points="622.54 183.12 618.33 181.99 609.92 190.41 621.46 187.32 622.54 183.12"/><polygon class="cls-3" points="622.53 156.72 621.41 152.52 609.91 149.44 618.32 157.85 622.53 156.72"/><path class="cls-3" d="M568.72,133.25l1.2-2.08a1,1,0,0,1,.89-.51,1.12,1.12,0,0,1,.27,0l11.86,3.18-8.68-8.68a1,1,0,0,1-.16-1.25l1.2-2.08-6.58,3.8Z"/><path class="cls-3" d="M583,206l-11.86,3.18a1.24,1.24,0,0,1-.27,0,1,1,0,0,1-.89-.51l-1.21-2.09v7.6l6.58,3.8-1.2-2.08a1,1,0,0,1,.16-1.25Z"/><path class="cls-3" d="M608.71,93.26h-7.63l-3.77,6.58,2.1-1.22a1.06,1.06,0,0,1,.52-.13,1,1,0,0,1,.73.3l8.68,8.68-3.18-11.86a1,1,0,0,1,.48-1.16Z"/><polygon class="cls-3" points="583.78 123.3 598.51 138.04 619 143.53 613.5 123.01 598.77 108.3 589.27 113.79 583.78 123.3"/><polygon class="cls-3" points="619 542.7 615.91 539.62 604.42 542.7 615.93 545.78 619 542.7"/><polygon class="cls-3" points="598.49 574.59 583.78 589.32 589.27 598.83 598.77 604.32 613.51 589.58 618.99 569.1 598.49 574.59"/><polygon class="cls-3" points="574.21 512.65 568.72 522.16 568.72 533.13 588.85 538.52 609.33 533.03 594.32 518.02 574.21 512.65"/><polygon class="cls-3" points="568.72 552.26 568.72 563.23 574.21 572.75 594.37 567.35 609.35 552.36 588.82 546.86 568.72 552.26"/><path class="cls-3" d="M560.66,538.52v-2.38l-3.79,6.55,3.79,6.57v-2.39a1,1,0,0,1,.77-1l11.85-3.17-11.86-3.18A1,1,0,0,1,560.66,538.52Z"/><path class="cls-3" d="M475.81,462.69a1,1,0,0,1,1,.76l1.74,6.5,4.75-4.75a1,1,0,0,1,.73-.31,1,1,0,0,1,.73.31l4.8,4.79,1.71-6.53a1,1,0,0,1,.48-.63,1,1,0,0,1,.52-.14l.26,0,6.5,1.74L497.29,458a1,1,0,0,1,.73-1.27l6.55-1.75-4.8-4.75a1,1,0,0,1-.31-.73,1.07,1.07,0,0,1,.3-.74l4.76-4.75-6.5-1.74a1,1,0,0,1-.73-1.27l1.76-6.55-6.52,1.79a1.26,1.26,0,0,1-.27,0,1,1,0,0,1-.51-.14,1.07,1.07,0,0,1-.49-.63l-1.75-6.54-4.74,4.8a1,1,0,0,1-.73.3,1,1,0,0,1-.73-.3L478.54,429l-1.74,6.5a1,1,0,0,1-.48.63,1,1,0,0,1-.52.14l-.26,0-6.5-1.74,1.74,6.49a1,1,0,0,1-.73,1.26L463.54,444l4.77,4.76a1.06,1.06,0,0,1,.3.73,1,1,0,0,1-.3.73L463.55,455l6.5,1.74a1,1,0,0,1,.73,1.26L469,464.47l6.51-1.75Z"/><polygon class="cls-3" points="560.71 615.29 555.22 605.8 535.08 611.2 520.05 626.23 540.61 631.69 560.71 626.29 560.71 615.29"/><polygon class="cls-3" points="510.43 635.85 513.52 638.94 525.01 635.86 513.5 632.77 510.43 635.85"/><polygon class="cls-3" points="555.22 665.91 560.71 656.39 560.71 645.42 540.58 640.03 520.1 645.52 535.11 660.53 555.22 665.91"/><polygon class="cls-3" points="619 702.7 613.5 682.17 598.77 667.47 589.27 672.95 583.78 682.47 598.53 697.23 619 702.7"/><path class="cls-3" d="M583,578.76l-11.86,3.17a.88.88,0,0,1-.27,0,1,1,0,0,1-.89-.52l-1.21-2.08V587l6.6,3.77-1.22-2.1a1,1,0,0,1,.16-1.25Z"/><path class="cls-3" d="M577.21,627.8l4.3-7.46a1,1,0,0,1,1-1h9.31l-8.46-14.64-14.6-8.42v16.9Z"/><path class="cls-3" d="M575.3,494.63l-6.59,3.81V506l1.2-2.08a1,1,0,0,1,.89-.52,1.09,1.09,0,0,1,.26,0l11.87,3.18L574.26,498a1,1,0,0,1-.16-1.24Z"/><path class="cls-3" d="M637.39,635.86l-14.73-8.45H605.74l4.48,7.67a1.84,1.84,0,0,1,.17.22,1.07,1.07,0,0,1,.13.81.92.92,0,0,1-.11.33,1.44,1.44,0,0,1-.18.25l-4.46,7.72,16.93-.06Z"/><path class="cls-3" d="M600.65,613.83a1,1,0,0,1-1.24.17l-2.07-1.2,3.82,6.61,7.58,0-2.1-1.22a1,1,0,0,1-.48-1.16l3.17-11.85Z"/><path class="cls-3" d="M519,356.87a1.07,1.07,0,0,1-.12-.86.59.59,0,0,1,.11-.29.81.81,0,0,1,.17-.24l4.44-7.67H506.72L492,356.3l14.67,8.44h16.94l-4.43-7.67A1.57,1.57,0,0,1,519,356.87Z"/><polygon class="cls-3" points="586.68 627.41 581.83 635.9 586.79 644.41 596.54 644.37 601.4 635.85 596.48 627.41 586.68 627.41"/><path class="cls-3" d="M568.77,675.49,583.4,667l8.43-14.62H583l-.2,0-.23,0a1,1,0,0,1-.86-.52,1,1,0,0,1-.14-.51l-4.31-7.48-8.45,14.66Z"/><path class="cls-3" d="M608.71,652.42h-7.63L597.31,659l2.1-1.21a1.07,1.07,0,0,1,.52-.14,1,1,0,0,1,.73.3l8.68,8.68-3.18-11.86a1,1,0,0,1,.48-1.16Z"/><path class="cls-3" d="M200.91,178.38l-4.43-7.67a1.57,1.57,0,0,1-.17-.21,1.12,1.12,0,0,1-.14-.8,1,1,0,0,1,.12-.35,1.08,1.08,0,0,1,.18-.24l4.43-7.67H184l-14.69,8.49L184,178.37Z"/><polygon class="cls-3" points="217.45 132.83 222.93 123.33 208.17 108.57 187.64 103.08 193.2 123.62 207.93 138.33 217.45 132.83"/><polygon class="cls-3" points="185.29 94.11 196.79 97.19 188.34 88.74 184.16 89.9 185.29 94.11"/><polygon class="cls-3" points="237.98 86.28 217.85 80.89 197.37 86.37 212.38 101.38 232.49 106.76 237.98 97.25 237.98 86.28"/><path class="cls-3" d="M238,113.38l-1.2,2.08a1,1,0,0,1-.89.52,1.1,1.1,0,0,1-.27,0l-11.86-3.18,8.68,8.68a1,1,0,0,1,.16,1.25l-1.2,2.08L238,121Z"/><path class="cls-3" d="M225.18,154.36l4.32,7.49L238,147.19V130.3l-14.61,8.44-8.46,14.63h8.83a.73.73,0,0,1,.25,0,1.65,1.65,0,0,1,.32,0,1,1,0,0,1,.77.51A1.16,1.16,0,0,1,225.18,154.36Z"/><polygon class="cls-3" points="187.7 76.7 190.79 79.79 202.28 76.71 190.77 73.63 187.7 76.7"/><path class="cls-3" d="M223.75,227l11.86-3.18a1.24,1.24,0,0,1,.27,0,1,1,0,0,1,.89.51l1.21,2.09v-7.61L231.4,215l1.2,2.08a1,1,0,0,1-.16,1.25Z"/><path class="cls-3" d="M237.94,209.5V192.61L229.5,178l-4.32,7.49a.94.94,0,0,1-.13.46,1,1,0,0,1-.76.51.79.79,0,0,1-.3,0,1.12,1.12,0,0,1-.32,0h-8.79l8.46,14.64Z"/><polygon class="cls-3" points="463.55 484.95 471.97 476.53 470.84 472.33 466.62 473.46 463.55 484.95"/><polygon class="cls-3" points="208.21 231.2 222.92 216.47 217.43 206.96 207.93 201.48 193.19 216.22 187.71 236.7 208.21 231.2"/><path class="cls-3" d="M269.1,279.64h-8.82a.77.77,0,0,1-.25,0,1.66,1.66,0,0,1-.33,0,1,1,0,0,1-.9-1l-4.32-7.48L246,285.82v16.89l14.63-8.46Z"/><path class="cls-3" d="M157.13,161.44h-2.4l6.58,3.8,6.57-3.79h-2.4a1,1,0,0,1-1-.77l-3.18-11.86-3.18,11.86A1,1,0,0,1,157.13,161.44Z"/><path class="cls-3" d="M238.7,173.09l11.85-3.18-11.85-3.18a1,1,0,0,1-.77-1v-2.39L234.12,170l3.82,6.55v-2.42A1,1,0,0,1,238.7,173.09Z"/><polygon class="cls-3" points="632.19 147.07 633.32 142.85 624.91 134.43 628 145.99 632.19 147.07"/><polygon class="cls-3" points="164.4 106.14 161.31 103.1 158.23 106.18 161.31 117.68 164.4 106.14"/><polygon class="cls-3" points="220.01 178.38 224.88 169.86 219.93 161.38 210.16 161.43 205.29 169.94 210.25 178.43 220.01 178.38"/><path class="cls-3" d="M198,153.38h7.63l3.76-6.57L207.29,148a1.07,1.07,0,0,1-.52.14,1,1,0,0,1-.73-.31l-8.68-8.68L200.54,151a1,1,0,0,1-.48,1.16Z"/><path class="cls-3" d="M206,192a1.06,1.06,0,0,1,.73-.3,1,1,0,0,1,.52.14l2.07,1.19-3.79-6.55H198l2.08,1.2a1,1,0,0,1,.48,1.16l-3.18,11.85Z"/><polygon class="cls-3" points="174.51 99.56 173.38 103.78 181.79 112.2 178.71 100.69 174.51 99.56"/><polygon class="cls-3" points="181.86 153.38 191.36 147.9 185.96 127.77 170.97 112.77 165.47 133.28 170.88 153.38 181.86 153.38"/><path class="cls-3" d="M252.58,308.24,246,312v7.59l1.2-2.08a1,1,0,0,1,.89-.52,1.26,1.26,0,0,1,.27,0l11.86,3.18-8.68-8.68a1,1,0,0,1-.16-1.25Z"/><polygon class="cls-3" points="672.46 157.85 680.87 149.43 669.38 152.51 668.25 156.72 672.46 157.85"/><path class="cls-3" d="M653.39,76.76l14.66,8.43h17l-4.43-7.67a.68.68,0,0,1-.17-.21,1.13,1.13,0,0,1-.14-.81.93.93,0,0,1,.12-.33,1.08,1.08,0,0,1,.18-.24L685,68.26H668.08Z"/><polygon class="cls-3" points="655.07 133.92 670.08 118.85 675.45 98.74 665.95 93.25 654.96 93.25 649.56 113.38 655.07 133.92"/><path class="cls-3" d="M690.86,55a1,1,0,0,1-.73-.3L681.45,46l3.18,11.86a1,1,0,0,1-.48,1.16l-2.07,1.19h7.63l3.76-6.58-2.09,1.21A1.07,1.07,0,0,1,690.86,55Z"/><polygon class="cls-3" points="704.08 85.21 708.96 76.65 704.03 68.2 694.25 68.25 689.38 76.77 694.33 85.25 704.08 85.21"/><polygon class="cls-3" points="662.8 145.93 665.88 134.44 657.46 142.86 658.59 147.06 662.8 145.93"/><path class="cls-3" d="M690.13,98.79a1,1,0,0,1,.73-.3,1.06,1.06,0,0,1,.52.13l2.07,1.2-3.79-6.56h-7.59l2.08,1.19a1,1,0,0,1,.48,1.16l-3.18,11.86Z"/><polygon class="cls-3" points="642.31 140.44 645.4 143.53 648.47 140.45 645.39 128.95 642.31 140.44"/><polygon class="cls-3" points="624.84 93.25 615.34 98.73 620.74 118.86 635.73 133.86 641.23 113.36 635.82 93.25 624.84 93.25"/><path class="cls-3" d="M638.78,85.18h2.43a1,1,0,0,1,1,.77l3.18,11.86L648.57,86a1,1,0,0,1,1-.76H652l-6.64-3.83Z"/><polygon class="cls-3" points="343.16 134.43 334.74 142.85 335.86 147.05 340.08 145.92 343.16 134.43"/><path class="cls-3" d="M286,93.25h-7.62l-3.77,6.58,2.1-1.21a1,1,0,0,1,.52-.14,1,1,0,0,1,.73.3l8.67,8.68L283.44,95.6a1,1,0,0,1,.48-1.16Z"/><path class="cls-3" d="M315.44,155.93a1.08,1.08,0,0,1-.48.63,1.07,1.07,0,0,1-.52.14,1.26,1.26,0,0,1-.27,0l-6.49-1.74,1.74,6.49a1,1,0,0,1-.11.79,1,1,0,0,1-.62.48l-6.51,1.74,4.77,4.77a1,1,0,0,1,.3.73,1.06,1.06,0,0,1-.3.73l-4.76,4.75,6.49,1.74a1,1,0,0,1,.73,1.27l-1.74,6.5,6.51-1.74a1.26,1.26,0,0,1,.27,0,1,1,0,0,1,1,.77l1.74,6.49,4.76-4.75a1,1,0,0,1,.73-.3,1.06,1.06,0,0,1,.73.3l4.79,4.8,1.71-6.54a1.08,1.08,0,0,1,.48-.63,1.07,1.07,0,0,1,.52-.14,1.24,1.24,0,0,1,.27,0l6.5,1.74-1.74-6.49a1,1,0,0,1,.73-1.26l6.5-1.75-4.76-4.76a1,1,0,0,1,0-1.46l4.78-4.79-6.51-1.7a1.07,1.07,0,0,1-.64-.48,1.09,1.09,0,0,1-.1-.79l1.75-6.55-6.51,1.79a1.24,1.24,0,0,1-.27,0,1.07,1.07,0,0,1-.52-.14,1,1,0,0,1-.48-.62l-1.74-6.5-4.76,4.75a1,1,0,0,1-.73.31,1,1,0,0,1-.73-.31l-4.76-4.76Z"/><polygon class="cls-3" points="263.97 68.24 259.1 76.76 264.05 85.24 273.82 85.19 278.68 76.68 273.73 68.19 263.97 68.24"/><polygon class="cls-3" points="325.75 140.44 322.67 128.94 319.58 140.48 322.67 143.52 325.75 140.44"/><path class="cls-3" d="M277.93,54.66a1,1,0,0,1-.73.3,1,1,0,0,1-.51-.14l-2.07-1.19,3.79,6.56H286L283.92,59a1,1,0,0,1-.48-1.16L286.61,46Z"/><polygon class="cls-3" points="555.22 106.74 560.71 97.23 560.71 86.26 540.58 80.87 520.1 86.36 535.11 101.37 555.22 106.74"/><polygon class="cls-3" points="510.43 76.69 513.52 79.78 525.01 76.69 513.5 73.61 510.43 76.69"/><path class="cls-3" d="M376.24,246.57h8.64a1,1,0,0,1,.45-.1,1,1,0,0,1,.61.19,1.12,1.12,0,0,1,.47.42,1.17,1.17,0,0,1,.13.45l4.32,7.48,8.45-14.65V223.51L384.69,232Z"/><path class="cls-3" d="M392.76,218l6.59-3.81v-7.59l-1.2,2.08a1,1,0,0,1-.9.52.84.84,0,0,1-.27,0L385.12,206l8.68,8.68a1,1,0,0,1,.17,1.24Z"/><polygon class="cls-3" points="520.1 459.13 535.11 474.14 555.22 479.52 560.71 470 560.71 459.04 540.58 453.64 520.1 459.13"/><path class="cls-3" d="M520.72,526.13h7.63l3.76-6.58L530,520.76a1,1,0,0,1-.52.14,1,1,0,0,1-.73-.3l-8.68-8.68,3.18,11.86a1,1,0,0,1-.49,1.16Z"/><path class="cls-3" d="M560.66,503.07l-14.6,8.43-8.46,14.63h8.88a.64.64,0,0,1,.2,0,.91.91,0,0,1,.23,0,1,1,0,0,1,.86.51,1.06,1.06,0,0,1,.14.51l4.31,7.48L560.67,520Z"/><polygon class="cls-3" points="510.37 475.85 515.92 496.38 530.65 511.09 540.18 505.58 545.65 496.09 530.91 481.35 510.37 475.85"/><polygon class="cls-3" points="542.69 551.14 547.6 542.64 542.64 534.14 532.89 534.19 528.02 542.7 532.97 551.19 542.69 551.14"/><path class="cls-3" d="M559.51,488.22a1,1,0,0,1-.9.51,1.07,1.07,0,0,1-.25,0l-11.87-3.18,8.68,8.68a1,1,0,0,1,.16,1.25l-1.2,2.08,6.58-3.8v-7.6Z"/><polygon class="cls-3" points="530.94 603.96 545.65 589.23 540.16 579.72 530.66 574.24 515.92 588.97 510.43 609.46 530.94 603.96"/><polygon class="cls-3" points="506.89 462.66 508.02 466.87 519.52 469.95 511.07 461.5 506.89 462.66"/><path class="cls-3" d="M528.77,564.72a1.06,1.06,0,0,1,.73-.3,1,1,0,0,1,.52.14l2.07,1.19-3.82-6.6-7.59,0,2.11,1.21a1,1,0,0,1,.48,1.16l-3.18,11.85Z"/><path class="cls-3" d="M523.64,551.14l-4.43-7.67a.87.87,0,0,1-.17-.22,1.1,1.1,0,0,1-.14-.8.92.92,0,0,1,.12-.34,1.08,1.08,0,0,1,.18-.24l4.44-7.68H506.72L492,542.69l14.66,8.44Z"/><polygon class="cls-3" points="302.18 391.79 310.61 383.36 309.48 379.16 305.26 380.29 302.18 391.79"/><polygon class="cls-3" points="504.52 413.98 496.1 422.41 497.23 426.61 501.44 425.48 504.52 413.98"/><polygon class="cls-3" points="470.83 426.61 471.96 422.4 463.55 413.98 466.63 425.49 470.83 426.61"/><path class="cls-3" d="M552.22,550.76l-4.31,7.48a.94.94,0,0,1-.13.42,1.07,1.07,0,0,1-.37.39,1.09,1.09,0,0,1-.68.28h0a1,1,0,0,1-.53-.13h-8.59l8.46,14.64,14.59,8.42v-16.9Z"/><polygon class="cls-3" points="479.87 392.9 474.46 372.79 463.48 372.8 453.98 378.28 459.38 398.41 474.37 413.41 479.87 392.9"/><polygon class="cls-3" points="496.11 476.54 504.52 484.95 501.44 473.45 497.24 472.32 496.11 476.54"/><path class="cls-3" d="M406.64,353.13l-11.85,3.17,11.85,3.18a1,1,0,0,1,.77,1v2.38l3.81-6.61-3.81-6.55v2.43A1,1,0,0,1,406.64,353.13Z"/><polygon class="cls-3" points="480.96 478.94 484.04 490.44 487.13 478.9 484.04 475.86 480.96 478.94"/><path class="cls-3" d="M546.49,599.8l11.85-3.18.27,0a1,1,0,0,1,.89.51l1.21,2.09v-7.61l-6.57-3.8,1.2,2.09a1,1,0,0,1-.16,1.24Z"/><path class="cls-3" d="M477.46,534.2l6.63,3.83,6.56-3.83h-2.44a1,1,0,0,1-1-.77L484,521.58l-3.18,11.86a1,1,0,0,1-1,.76Z"/><path class="cls-3" d="M421.58,299.14l-11.85,3.18-.27,0a1,1,0,0,1-.89-.52l-1.2-2.08v7.6l6.57,3.8-1.2-2.08a1,1,0,0,1,.16-1.25Z"/><polygon class="cls-3" points="463.48 186.41 453.98 191.89 459.38 212.02 474.37 227.02 479.87 206.51 474.46 186.41 463.48 186.41"/><path class="cls-3" d="M477.42,178.34h2.43a1,1,0,0,1,1,.77L484,191l3.18-11.86a1,1,0,0,1,1-.76h2.41L484,174.52Z"/><polygon class="cls-3" points="493.69 227.03 508.72 212 514.09 191.9 504.59 186.41 493.6 186.41 488.2 206.54 493.69 227.03"/><polygon class="cls-3" points="457 251.05 461.18 249.89 460.05 245.68 448.55 242.6 457 251.05"/><polygon class="cls-3" points="461.18 462.67 456.97 461.54 448.56 469.96 460.1 466.86 461.18 462.67"/><polygon class="cls-3" points="454.56 266.16 457.64 263.09 454.55 260 443.06 263.08 454.56 266.16"/><path class="cls-3" d="M407.4,333.63l8.44,14.61,4.32-7.47a1.06,1.06,0,0,1,.13-.52,1,1,0,0,1,.86-.51l.21,0a.91.91,0,0,1,.23,0h8.87L422,325.09l-14.64-8.44Z"/><polygon class="cls-3" points="510.43 449.46 513.52 452.55 525.01 449.47 513.5 446.39 510.43 449.46"/><path class="cls-3" d="M439.29,520.6a1,1,0,0,1-.73.3,1,1,0,0,1-.52-.14L436,519.57l3.82,6.61,7.58,0-2.1-1.21a1,1,0,0,1-.48-1.16L448,511.92Z"/><path class="cls-3" d="M492,169.92l14.66,8.43h16.95l-4.43-7.67a.83.83,0,0,1-.17-.21,1.13,1.13,0,0,1-.14-.81,1,1,0,0,1,.12-.34,1.3,1.3,0,0,1,.18-.23l4.44-7.68H506.72Z"/><path class="cls-3" d="M532.11,333.17,530,334.38a1.07,1.07,0,0,1-.52.14,1,1,0,0,1-.73-.31l-8.68-8.67,3.18,11.85a1.06,1.06,0,0,1-.48,1.17l-2.07,1.19h7.63Z"/><polygon class="cls-3" points="504.59 372.8 493.6 372.8 488.2 392.93 493.69 413.42 508.72 398.39 514.09 378.29 504.59 372.8"/><polygon class="cls-3" points="506.9 436.27 511.1 437.4 519.51 428.98 508.02 432.06 506.9 436.27"/><polygon class="cls-3" points="545.65 309.7 530.91 294.96 510.37 289.46 515.92 309.99 530.65 324.7 540.18 319.2 545.65 309.7"/><polygon class="cls-3" points="560.71 283.62 560.71 272.65 540.58 267.25 520.1 272.74 535.11 287.75 555.22 293.13 560.71 283.62"/><polygon class="cls-3" points="515.92 123.6 530.65 138.31 540.18 132.81 545.65 123.31 530.91 108.57 510.37 103.07 515.92 123.6"/><path class="cls-3" d="M559.51,115.44a1,1,0,0,1-.9.52.75.75,0,0,1-.26,0l-11.86-3.17,8.68,8.68a1,1,0,0,1,.16,1.24l-1.2,2.09,6.58-3.81v-7.59Z"/><polygon class="cls-3" points="560.71 242.52 555.22 233.03 535.06 238.43 520.04 253.46 540.61 258.92 560.71 253.52 560.71 242.52"/><polygon class="cls-3" points="407.36 272.64 407.36 283.64 412.85 293.13 432.99 287.74 448.02 272.7 427.46 267.24 407.36 272.64"/><path class="cls-3" d="M546.48,227l11.86-3.17a.77.77,0,0,1,.27,0,1,1,0,0,1,.89.52l1.21,2.08V218.8L554.13,215l1.2,2.08a1,1,0,0,1-.16,1.25Z"/><path class="cls-3" d="M552.22,178l-4.32,7.49a1,1,0,0,1-.31.76,1.05,1.05,0,0,1-1.15.2h-8.83l8.46,14.65,14.59,8.41V192.59Z"/><path class="cls-3" d="M560.66,130.29l-14.6,8.44-8.46,14.62h8.88l.2,0,.23,0a1,1,0,0,1,.86.52,1,1,0,0,1,.14.51l4.34,7.52,8.42-14.69Z"/><polygon class="cls-3" points="542.75 178.37 547.6 169.87 542.63 161.36 532.89 161.41 528.02 169.93 532.97 178.41 542.75 178.37"/><polygon class="cls-3" points="508.02 280.48 519.52 283.56 511.07 275.11 506.89 276.27 508.02 280.48"/><polygon class="cls-3" points="510.43 236.68 530.94 231.19 545.65 216.45 540.16 206.95 530.66 201.46 515.92 216.2 510.43 236.68"/><polygon class="cls-3" points="513.52 266.16 525.01 263.08 513.5 260 510.43 263.08 513.52 266.16"/><path class="cls-3" d="M520.72,153.36h7.63l3.76-6.58L530,148a1.07,1.07,0,0,1-.52.14,1,1,0,0,1-.73-.3l-8.68-8.68L523.27,151a1,1,0,0,1-.48,1.16Z"/><polygon class="cls-3" points="506.9 249.88 511.1 251.01 519.51 242.59 508.02 245.67 506.9 249.88"/><polygon class="cls-3" points="488.2 319.65 493.61 339.76 504.59 339.75 514.09 334.27 508.69 314.14 493.7 299.14 488.2 319.65"/><path class="cls-3" d="M421.59,485.53l-11.86,3.17a.88.88,0,0,1-.27,0,1,1,0,0,1-.89-.52l-1.2-2.08v7.65l6.59,3.78-1.22-2.11a1,1,0,0,1,.16-1.25Z"/><path class="cls-3" d="M468.3,262.35a1,1,0,0,1,.31.73,1,1,0,0,1-.3.73l-4.76,4.76,6.5,1.74a1,1,0,0,1,.73,1.27l-1.75,6.5,6.51-1.74a.84.84,0,0,1,.27,0,1,1,0,0,1,1,.77l1.74,6.49,4.75-4.75a1,1,0,0,1,.73-.3,1,1,0,0,1,.73.3l4.8,4.79,1.71-6.53a1,1,0,0,1,.48-.63,1.07,1.07,0,0,1,.52-.14l.27,0,6.49,1.74-1.74-6.49a1,1,0,0,1,.1-.78,1.07,1.07,0,0,1,.63-.49l6.55-1.75-4.8-4.75a1,1,0,0,1-.31-.73,1,1,0,0,1,.3-.73l4.76-4.76-6.5-1.74a1,1,0,0,1-.62-.48,1,1,0,0,1-.11-.78l1.76-6.55-6.52,1.78a.8.8,0,0,1-.27,0,1.07,1.07,0,0,1-.52-.14,1,1,0,0,1-.48-.62l-1.75-6.54-4.74,4.79a1,1,0,0,1-1.46,0l-4.8-4.79-1.71,6.53a1,1,0,0,1-.48.63,1,1,0,0,1-.52.14l-.27,0L469,248.08l1.78,6.5a1,1,0,0,1-.73,1.27l-6.55,1.75Z"/><polygon class="cls-3" points="448.02 459.09 427.46 453.63 407.36 459.03 407.36 470.03 412.85 479.52 432.99 474.13 448.02 459.09"/><path class="cls-3" d="M528.77,192a1,1,0,0,1,1.25-.17l2.07,1.19-3.82-6.6-7.59,0,2.11,1.21a1,1,0,0,1,.48,1.16l-3.18,11.86Z"/><polygon class="cls-3" points="457.63 475.87 437.13 481.36 422.42 496.1 427.91 505.6 437.41 511.09 452.15 496.35 457.63 475.87"/><polygon class="cls-3" points="471.96 236.01 463.55 227.59 466.63 239.1 470.83 240.22 471.96 236.01"/><polygon class="cls-3" points="504.52 227.6 496.1 236.02 497.23 240.22 501.44 239.09 504.52 227.6"/><polygon class="cls-3" points="487.11 233.61 484.03 222.11 480.95 233.6 484.04 236.68 487.11 233.61"/><polygon class="cls-3" points="460.05 432.07 448.55 428.99 456.96 437.4 461.18 436.27 460.05 432.07"/><path class="cls-3" d="M476,356.25l-14.69-8.44H444.43l4.43,7.67a1.57,1.57,0,0,1,.17.21,1.08,1.08,0,0,1,.13.81.7.7,0,0,1-.12.34,1,1,0,0,1-.17.24l-4.44,7.67h16.92Z"/><path class="cls-3" d="M439.29,334.21a1,1,0,0,1-1.24.17L436,333.19l3.79,6.55h7.58l-2.07-1.19a1,1,0,0,1-.48-1.16L448,325.53Z"/><path class="cls-3" d="M447.35,372.8h-7.57L436,379.37l2.06-1.2a1.07,1.07,0,0,1,.52-.14,1,1,0,0,1,.73.31L448,387l-3.18-11.85a1.06,1.06,0,0,1,.48-1.17Z"/><polygon class="cls-3" points="448.53 283.57 460.1 280.48 461.18 276.28 456.92 275.14 448.53 283.57"/><path class="cls-3" d="M415.85,364.37,407.39,379v16.85L422,387.42l8.43-14.61h-9.16a1,1,0,0,1-.89-.51Z"/><polygon class="cls-3" points="422.42 309.71 427.91 319.22 437.41 324.7 452.15 309.96 457.63 289.48 437.13 294.97 422.42 309.71"/><polygon class="cls-3" points="437.42 387.85 427.89 393.35 422.42 402.85 437.15 417.59 457.69 423.09 452.14 402.56 437.42 387.85"/><path class="cls-3" d="M407.36,412.8l1.2-2.08a1,1,0,0,1,.89-.52,1.09,1.09,0,0,1,.26,0l11.87,3.19-8.68-8.68a1,1,0,0,1-.16-1.25l1.2-2.08-6.59,3.8Z"/><polygon class="cls-3" points="420.47 356.35 425.39 364.8 435.18 364.75 440.05 356.23 435.09 347.75 425.35 347.79 420.47 356.35"/><polygon class="cls-3" points="443.06 449.47 454.56 452.55 457.64 449.47 454.55 446.39 443.06 449.47"/><polygon class="cls-3" points="487.12 292.56 484.03 289.48 480.96 292.55 484.04 304.05 487.12 292.56"/><path class="cls-3" d="M488.21,347.82a1.06,1.06,0,0,1-1-.77L484,335.19l-3.18,11.86a1,1,0,0,1-1,.77h-2.4l6.63,3.83,6.56-3.82Z"/><polygon class="cls-3" points="484.04 423.07 487.11 420 484.03 408.5 480.95 419.99 484.04 423.07"/><polygon class="cls-3" points="497.24 285.94 496.11 290.15 504.52 298.57 501.44 287.06 497.24 285.94"/><polygon class="cls-3" points="447.97 439.81 432.96 424.8 412.85 419.42 407.36 428.93 407.36 439.9 427.49 445.29 447.97 439.81"/><polygon class="cls-3" points="463.55 298.56 471.97 290.14 470.84 285.94 466.62 287.07 463.55 298.56"/><path class="cls-3" d="M488.21,364.73h2.4L484,360.91l-6.56,3.82h2.43a1,1,0,0,1,1,.77L484,377.36l3.18-11.86A1,1,0,0,1,488.21,364.73Z"/><polygon class="cls-3" points="453.98 334.26 463.5 339.76 474.47 339.75 479.87 319.59 474.38 299.13 459.35 314.16 453.98 334.26"/><polygon class="cls-3" points="504.59 526.14 514.09 520.66 508.69 500.52 493.7 485.53 488.2 506.04 493.61 526.14 504.59 526.14"/><polygon class="cls-3" points="360.03 106.16 359.38 105.02 358.73 107.46 360.03 106.16"/><polygon class="cls-3" points="345.41 85.2 348.26 85.2 340.37 71.14 330.67 76.75 345.41 85.2"/><polygon class="cls-3" points="358.68 160.29 379.25 165.75 391.61 162.43 380.89 143.33 373.72 145.25 358.68 160.29"/><polygon class="cls-3" points="334.23 60.2 330.41 53.39 332.24 60.2 334.23 60.2"/><polygon class="cls-3" points="349.07 143.51 369.58 138.02 374.91 132.68 364.13 113.46 354.56 123.03 349.07 143.51"/><polygon class="cls-3" points="251.49 13.58 271.62 8.19 276.5 3.31 246 3.31 246 4.09 251.49 13.58"/><polygon class="cls-3" points="289.81 3.31 287.87 3.31 287.17 4.02 289.81 3.31"/><polygon class="cls-3" points="297.99 34.6 292.62 54.71 302.14 60.21 313.11 60.2 318.51 40.04 314.47 24.99 312 20.59 297.99 34.6"/><polygon class="cls-3" points="307.9 13.29 305.07 8.23 302.18 19.01 307.9 13.29"/><path class="cls-3" d="M528.77,5.56A1.06,1.06,0,0,1,530,5.39l2.07,1.2-1.9-3.28H523l-2.93,10.93Z"/><polygon class="cls-3" points="574.21 13.59 594.35 8.19 599.23 3.31 568.72 3.31 568.72 4.07 574.21 13.59"/><polygon class="cls-3" points="640.61 3.31 639.72 3.31 639.91 4.02 640.61 3.31"/><polygon class="cls-3" points="237.94 23.11 237.94 6.22 236.26 3.31 216.76 3.31 223.34 14.7 237.94 23.11"/><polygon class="cls-3" points="395.99 170.24 395.67 169.68 394.79 169.91 395.99 170.24"/><polygon class="cls-3" points="612.56 3.31 610.6 3.31 609.89 4.03 612.56 3.31"/><path class="cls-3" d="M475.81,89.91a1,1,0,0,1,1,.77l1.74,6.49,4.75-4.75a1.06,1.06,0,0,1,.73-.3,1,1,0,0,1,.73.3l4.8,4.8,1.71-6.54a1,1,0,0,1,.48-.63,1.07,1.07,0,0,1,.52-.14.84.84,0,0,1,.27,0L499,91.69l-1.74-6.5a1,1,0,0,1,.1-.78,1,1,0,0,1,.63-.48l6.55-1.76-4.8-4.75a1,1,0,0,1-.31-.73,1,1,0,0,1,.3-.73l4.76-4.76L498,69.46a1,1,0,0,1-.62-.48,1,1,0,0,1-.11-.78l1.76-6.55-6.52,1.78a.84.84,0,0,1-.27,0,1.1,1.1,0,0,1-.51-.13,1.06,1.06,0,0,1-.49-.63L490,58.16,471,91.17,475.54,90A1.26,1.26,0,0,1,475.81,89.91Z"/><path class="cls-3" d="M407.4,209.49,422,201.05l8.46-14.63h-8.65a1,1,0,0,1-.45.11,1.56,1.56,0,0,1-1.07-.62,1,1,0,0,1-.14-.45l-1.81-3.14L410.45,196l-2.47-4.4-.59,1Z"/><polygon class="cls-3" points="435.18 178.36 440.05 169.84 435.09 161.36 430.44 161.38 422.99 174.29 425.39 178.41 435.18 178.36"/><path class="cls-3" d="M447.38,153.37l-2.1-1.21a1,1,0,0,1-.48-1.16L448,139.15l-8.68,8.68a1,1,0,0,1-.73.3,1,1,0,0,1-.4-.11l-.74,1.27,2.38,4.11Z"/><polygon class="cls-3" points="560.66 23.09 560.66 6.2 558.99 3.31 539.5 3.31 546.07 14.68 560.66 23.09"/><polygon class="cls-3" points="217.45 505.6 222.93 496.1 213.52 486.69 201.37 504.56 207.93 511.11 217.45 505.6"/><polygon class="cls-3" points="191.09 519.68 189.8 521.57 191.36 520.67 191.09 519.68"/><polygon class="cls-3" points="237.98 470.02 237.98 459.06 233.19 457.77 220.55 476.35 232.49 479.54 237.98 470.02"/><path class="cls-3" d="M200.91,551.15l-4.43-7.67a.83.83,0,0,1-.17-.21,1.08,1.08,0,0,1-.14-.79,1,1,0,0,1,.12-.35,1.44,1.44,0,0,1,.18-.25l4.43-7.67H184l-4.6,2.66-5.69,8.36L184,551.15Z"/><polygon class="cls-3" points="133.56 604.28 130.77 608.37 134.97 609.5 133.56 604.28"/><path class="cls-3" d="M197.36,14.26,206,5.58a1,1,0,0,1,1.25-.17l2.07,1.19-1.91-3.29H200.3Z"/><polygon class="cls-3" points="134.27 623.84 138.45 622.68 137.32 618.47 125.97 615.43 125.93 615.5 134.27 623.84"/><polygon class="cls-3" points="161.43 563.3 161.25 563.56 161.3 563.76 161.43 563.3"/><polygon class="cls-3" points="157.14 579.31 155.27 572.35 142.69 590.86 151.64 599.81 157.14 579.31"/><path class="cls-3" d="M246,453.66v2.39l3.82-6.61L246,442.89v2.42a1,1,0,0,1-.77,1L240,447.72l-2,3,7.29,2A1,1,0,0,1,246,453.66Z"/><path class="cls-3" d="M258.79,433.94a1.16,1.16,0,0,1,.14-.47,1,1,0,0,1,.76-.51.92.92,0,0,1,.29,0,1.08,1.08,0,0,1,.32,0h8.8l-8.46-14.65-.45-.25L249.8,433.33l4.68,8.09Z"/><polygon class="cls-3" points="131.25 5.52 136.65 25.65 151.64 40.65 157.14 20.14 152.62 3.31 135.08 3.31 131.25 5.52"/><polygon class="cls-3" points="161.65 3.31 160.96 3.31 161.3 4.6 161.65 3.31"/><polygon class="cls-3" points="165.47 20.17 170.98 40.71 185.99 25.64 191.36 5.53 187.53 3.31 169.99 3.31 165.47 20.17"/><polygon class="cls-3" points="84.67 23.12 99.29 14.68 105.85 3.31 86.36 3.31 84.66 6.26 84.67 23.12"/><path class="cls-3" d="M238,333.58V316.69l-9.09,5.25a3.65,3.65,0,0,1-.24.31l8.61,12.58.07-.06,0,0Z"/><path class="cls-3" d="M214.23,301l-.11.07,7.12,10.4.15,0a3.87,3.87,0,0,1,.49,0l1-1.8Z"/><path class="cls-3" d="M98.86,112.77,87.93,115.7a3.42,3.42,0,0,1-.43.42l3.28,4.79.08,0,0-.06Z"/><path class="cls-3" d="M20,17.31,17.35,7.52,13.14,6.4,13,7.07,12.9,7a.41.41,0,0,0-.05.09l7.43,10.86.09,0Z"/><path class="cls-3" d="M63.51,76.66l-4.93-8.45-3.75,0-.1-.14,0,.12,7.63,11.14.09,0L62.19,79Z"/><path class="cls-3" d="M76.6,99.45,68.13,84.77l-.9,1.57-.12-.17,0,.1,9.32,13.61.22-.11Z"/><path class="cls-3" d="M153.31,169.88l-14.71-8.44H121.7l4.43,7.67a1.57,1.57,0,0,1,.17.21,1.12,1.12,0,0,1,.14.8,1,1,0,0,1-.12.35,1.08,1.08,0,0,1-.18.24l-.54.92-.37-.54a.61.61,0,0,1,0,.14l5,7.26h.11l-.06-.1,8.38,0Z"/><path class="cls-3" d="M157.14,206.53l-5.41-20.11h-11l-3.48,2-.16.16L155,214.77l.08-.05-.12-.17Z"/><path class="cls-3" d="M202.28,263.1,190.77,260,188,262.78l-.14-.19a.56.56,0,0,0-.05.08l2.68,3.91h.11l-1.26-1.85,1.44,1.44Z"/><path class="cls-3" d="M286.66,365.93l-20.56-5.47L256.71,363l-.15.1,12.75,18.63h.11l-.09-.13,2.32-.62Z"/><path class="cls-3" d="M275.77,388.19l-1,1a2.11,2.11,0,0,1-.19.23l2.55,3.73-11.76,17.28,1.17,2,9.5,5.49,14.73-14.74,5.49-20.48Z"/><polygon class="cls-3" points="34.71 3.31 32.77 3.31 35.42 4.02 34.71 3.31"/><polygon class="cls-3" points="71.13 13.59 76.62 4.08 76.62 3.31 46.11 3.31 51.02 8.22 71.13 13.59"/><polygon class="cls-3" points="776.7 751.06 782.1 771.2 797.09 786.19 801.92 768.19 786.55 745.58 786.21 745.58 776.7 751.06"/><polygon class="cls-3" points="586.79 458.02 590.98 458 583.37 446.82 581.83 449.52 586.79 458.02"/><polygon class="cls-3" points="632.19 519.84 632.43 518.96 625.21 508.33 627.99 518.72 632.19 519.84"/><path class="cls-3" d="M599.41,471.4a1.07,1.07,0,0,1,.52-.14l.08,0-1-1.54-1.65,2.87Z"/><path class="cls-3" d="M558.34,410.23l.14,0L554.92,405l-8.43,8.44Z"/><polygon class="cls-3" points="577.21 441.41 578.35 439.43 568.77 425.34 568.77 426.8 577.21 441.41"/><polygon class="cls-3" points="589.25 300.19 583.78 309.69 595.77 321.69 607.97 303.87 598.77 294.69 589.25 300.19"/><path class="cls-3" d="M547.91,371.85a1.13,1.13,0,0,1-.13.43,1,1,0,0,1-.34.36,1,1,0,0,1-1.26.17h-8.57l8.46,14.65,3.36,1.93,9.36-13.66-6.57-11.36Z"/><polygon class="cls-3" points="568.72 335.77 568.72 346.74 577.09 348.98 589.79 330.43 574.21 326.26 568.72 335.77"/><path class="cls-3" d="M561.42,353.13a1,1,0,0,1-.76-1v-2.38l-3.82,6.61,3.82,6.55v-2.43a1,1,0,0,1,.76-1l10.39-2.78.45-.66Z"/><polygon class="cls-3" points="687.24 599.55 675.21 581.87 677.29 589.61 687.24 599.55"/><path class="cls-3" d="M771.59,728.26a.83.83,0,0,1,.16.21,1.08,1.08,0,0,1,.14.79,1,1,0,0,1-.12.35,1.08,1.08,0,0,1-.18.24l-4.46,7.72,13.94,0-11.52-16.95h-2.4Z"/><polygon class="cls-3" points="651.08 3.31 650.17 3.31 650.88 4.03 651.08 3.31"/><path class="cls-3" d="M637.67,529.34a1,1,0,0,1-.51.14,1.15,1.15,0,0,1-.26,0l-6.55-1.76,1.79,6.5a1.08,1.08,0,0,1-.1.79,1,1,0,0,1-.63.48l-6.51,1.75,4.77,4.76a1.06,1.06,0,0,1,.3.73,1,1,0,0,1-.3.73l-4.76,4.76,6.5,1.74a1,1,0,0,1,.73,1.26l-1.75,6.51L636.9,556l.27,0a1,1,0,0,1,1,.76l1.74,6.5,4.75-4.76a1.06,1.06,0,0,1,.73-.3,1,1,0,0,1,.73.3l4.77,4.77,1.74-6.51a1,1,0,0,1,1-.77,1.27,1.27,0,0,1,.26,0l4.52,1.21-20-29.4-.26,1A1,1,0,0,1,637.67,529.34Z"/><polygon class="cls-3" points="819.95 799.39 822.65 798.67 819.69 794.32 818.82 795.19 819.95 799.39"/><polygon class="cls-3" points="762.49 712.53 764.07 712.53 760.19 706.83 758.71 705.97 762.49 712.53"/><polygon class="cls-3" points="616.88 290.85 624.36 279.92 615.34 285.12 616.88 290.85"/><path class="cls-3" d="M314.45,369.52a1,1,0,0,1,.51.14,1,1,0,0,1,.48.63l1.74,6.49,4.76-4.75a1,1,0,0,1,.73-.3,1,1,0,0,1,.73.3l4.76,4.76,1.75-6.51a1,1,0,0,1,1-.76,1.27,1.27,0,0,1,.28,0l6.49,1.74-1.74-6.49a1,1,0,0,1,.1-.79,1.05,1.05,0,0,1,.63-.48l6.5-1.74L338.4,357a1.05,1.05,0,0,1,0-1.47l4.78-4.78-6.51-1.71a1,1,0,0,1-.64-.48,1.06,1.06,0,0,1-.1-.78l1.75-6.55L331.17,343a.84.84,0,0,1-.27,0,1.07,1.07,0,0,1-.52-.14,1,1,0,0,1-.48-.63l-1.74-6.49-4.76,4.75a1,1,0,0,1-.73.3,1,1,0,0,1-.73-.3l-4.76-4.76-1.74,6.51a1,1,0,0,1-.48.62,1,1,0,0,1-.52.14,1.18,1.18,0,0,1-.27,0l-6.49-1.74,1.74,6.49a1,1,0,0,1-.73,1.27l-6.55,1.75,4.8,4.75a1.06,1.06,0,0,1,.31.73,1.07,1.07,0,0,1-.3.74l-4.76,4.75,6.49,1.74a1,1,0,0,1,.63.48,1,1,0,0,1,.1.78l-1.74,6.51,6.51-1.74A.77.77,0,0,1,314.45,369.52Z"/><path class="cls-3" d="M732.18,675.14a1,1,0,0,1-.89-.52l-1.2-2.09v7.66l6.59,3.77-1.22-2.11a1,1,0,0,1,.17-1.24l4-4-2-2.9-5.22,1.4A1.26,1.26,0,0,1,732.18,675.14Z"/><polygon class="cls-3" points="121.31 622.28 117.17 628.37 125.24 626.21 121.31 622.28"/><polygon class="cls-3" points="786.68 42.73 787.13 42.07 786.27 41.22 786.68 42.73"/><path class="cls-3" d="M758.71,6.6l2.07-1.19a.91.91,0,0,1,.51-.14,1,1,0,0,1,.73.3l8.68,8.68L767.77,3.31h-7.16Z"/><polygon class="cls-3" points="755.68 52.03 735.57 46.65 730.08 56.17 730.08 67.13 750.21 72.53 769.9 67.25 770.31 66.65 755.68 52.03"/><polygon class="cls-3" points="780.52 3.31 776.7 5.51 782.1 25.64 791.76 35.31 802.46 19.67 798.07 3.31 780.52 3.31"/><polygon class="cls-3" points="774.94 59.89 776.49 57.62 771.27 56.22 774.94 59.89"/><polygon class="cls-3" points="716.58 13.58 722.07 4.07 722.07 3.31 691.57 3.31 696.47 8.21 716.58 13.58"/><polygon class="cls-3" points="807.1 3.31 806.41 3.31 806.75 4.59 807.1 3.31"/><polygon class="cls-3" points="680.17 3.31 678.25 3.31 680.88 4.02 680.17 3.31"/><polygon class="cls-3" points="730.13 23.11 744.74 14.67 751.3 3.31 731.81 3.31 730.12 6.25 730.13 23.11"/><polygon class="cls-3" points="674.52 206.61 680.06 198.52 671.73 196.29 674.52 206.61"/><path class="cls-3" d="M605.79,254.64l4.43,7.67a1.18,1.18,0,0,1,.17.22,1.08,1.08,0,0,1,.12.85.71.71,0,0,1-.11.29,1.46,1.46,0,0,1-.17.24l-4.46,7.72,16.94-.05,12.17-7,1.42-2.08-13.61-7.81Z"/><polygon class="cls-3" points="642.25 253.77 646.77 247.17 645.4 242.03 642.25 253.77"/><polygon class="cls-3" points="649.56 226.49 652.76 238.41 666.87 217.8 655.06 205.98 649.56 226.49"/><path class="cls-3" d="M638.82,254.65l2,1.18.93-1.36a1,1,0,0,1-.55.19Z"/><polygon class="cls-3" points="696.41 145.27 681.44 160.26 701.97 165.76 702.6 165.59 718.24 142.74 716.58 139.87 696.41 145.27"/><polygon class="cls-3" points="688.32 186.45 695.62 175.79 681.46 179.58 688.32 186.45"/><path class="cls-3" d="M732.18,116a1,1,0,0,1-.89-.51l-1.2-2.09V121l2.18,1.26,5.24-7.65-5.06,1.36A1.12,1.12,0,0,1,732.18,116Z"/><polygon class="cls-3" points="730.08 86.27 730.09 97.26 735.58 106.76 744.5 104.37 758.98 83.2 750.21 80.87 730.08 86.27"/><polygon class="cls-3" points="700.71 619.36 699.76 617.97 698.96 619.36 700.71 619.36"/><path class="cls-3" d="M153.31,729,138.6,720.6H121.7l4.43,7.67a1.18,1.18,0,0,1,.17.22,1.08,1.08,0,0,1,.14.79,1,1,0,0,1-.12.35,1.08,1.08,0,0,1-.18.24l-4.46,7.72,16.94-.05Z"/><polygon class="cls-3" points="181.86 712.54 191.36 707.06 185.96 686.93 170.97 671.93 165.47 692.44 170.88 712.55 181.86 712.54"/><polygon class="cls-3" points="384.29 589.31 369.53 574.55 349.06 569.07 354.56 589.6 369.29 604.31 378.79 598.82 384.29 589.31"/><path class="cls-3" d="M116.57,707a1.06,1.06,0,0,1-.73.3,1,1,0,0,1-.52-.14L113.25,706l3.82,6.6,7.58,0-2.1-1.21a1,1,0,0,1-.48-1.16l3.18-11.85Z"/><path class="cls-3" d="M115.84,750.83a1,1,0,0,1,.73.3l8.68,8.68L122.07,748a1,1,0,0,1,.48-1.16l2.07-1.19H117l-3.76,6.58,2.09-1.21A1,1,0,0,1,115.84,750.83Z"/><polygon class="cls-3" points="164.4 665.3 161.31 662.26 158.23 665.35 161.31 676.84 164.4 665.3"/><path class="cls-3" d="M167.89,720.61h-2.41a1,1,0,0,1-1-.77L161.31,708l-3.18,11.86a1,1,0,0,1-1,.77h-2.4l6.58,3.8Z"/><polygon class="cls-3" points="143.9 659.86 140.82 671.36 149.24 662.93 148.11 658.73 143.9 659.86"/><polygon class="cls-3" points="151.65 671.92 136.62 686.95 131.25 707.06 140.75 712.54 151.74 712.55 157.14 692.38 151.65 671.92"/><polygon class="cls-3" points="102.62 720.59 97.74 729.14 102.67 737.59 112.45 737.54 117.32 729.02 112.36 720.54 102.62 720.59"/><polygon class="cls-3" points="632.19 706.24 633.32 702.01 624.91 693.6 628 705.15 632.19 706.24"/><path class="cls-3" d="M520.72,712.52h7.63l3.76-6.58L530,707.15a1.07,1.07,0,0,1-.52.14,1,1,0,0,1-.73-.3l-8.68-8.68,3.18,11.86a1,1,0,0,1-.48,1.16Z"/><polygon class="cls-3" points="545.65 682.47 530.91 667.74 510.37 662.23 515.92 682.77 530.65 697.48 540.18 691.97 545.65 682.47"/><polygon class="cls-3" points="641.23 672.52 635.82 652.41 624.84 652.41 615.34 657.9 620.74 678.02 635.73 693.02 641.23 672.52"/><polygon class="cls-3" points="501.44 611.87 504.52 600.37 496.1 608.79 497.23 613 501.44 611.87"/><polygon class="cls-3" points="514.09 564.67 504.59 559.19 493.6 559.18 488.2 579.32 493.71 599.86 508.72 584.78 514.09 564.67"/><path class="cls-3" d="M488.21,551.12h2.4l-6.58-3.8-6.58,3.8h2.4a1,1,0,0,1,1,.77L484,563.74l3.18-11.85A1,1,0,0,1,488.21,551.12Z"/><polygon class="cls-3" points="645.4 702.69 648.47 699.61 645.39 688.11 642.31 699.6 645.4 702.69"/><path class="cls-3" d="M359.36,619.35h7.57l3.79-6.56L368.65,614a.94.94,0,0,1-.51.14,1,1,0,0,1-.74-.3l-8.67-8.68L361.9,617a1,1,0,0,1-.48,1.16Z"/><polygon class="cls-3" points="484.03 609.47 487.11 606.38 484.03 594.89 480.94 606.43 484.03 609.47"/><path class="cls-3" d="M225.18,713.52l4.34,7.53L238,706.36V689.47l-14.61,8.44-8.46,14.62h8.83a1,1,0,0,1,.25,0,1.24,1.24,0,0,1,.33,0,1,1,0,0,1,.76.51A1.11,1.11,0,0,1,225.18,713.52Z"/><polygon class="cls-3" points="220.01 737.55 224.88 729.03 219.93 720.54 210.16 720.59 205.29 729.11 210.25 737.59 220.01 737.55"/><path class="cls-3" d="M206,751.13a1,1,0,0,1,.73-.3.92.92,0,0,1,.52.14l2.07,1.19-3.79-6.56H198l2.08,1.19a1,1,0,0,1,.48,1.16l-3.18,11.86Z"/><path class="cls-3" d="M200.91,737.54l-4.43-7.67a.74.74,0,0,1-.16-.2,1.09,1.09,0,0,1-.15-.81,1,1,0,0,1,.12-.34,1.14,1.14,0,0,1,.18-.25l4.43-7.67H184l-14.69,8.5L184,737.53Z"/><path class="cls-3" d="M286,466h-7.62l-3.77,6.58,2.1-1.21a1.07,1.07,0,0,1,.52-.14,1,1,0,0,1,.73.31l8.67,8.67-3.17-11.85a1,1,0,0,1,.48-1.17Z"/><polygon class="cls-3" points="185.29 653.27 196.79 656.36 188.38 647.94 184.16 649.07 185.29 653.27"/><polygon class="cls-3" points="261.05 496.07 275.79 510.81 296.33 516.31 290.78 495.78 276.05 481.07 266.53 486.57 261.05 496.07"/><polygon class="cls-3" points="125.26 645.54 108.55 641.06 91.97 665.43 110.28 660.52 125.26 645.54"/><path class="cls-3" d="M238,672.54l-1.2,2.08a1,1,0,0,1-.89.52,1.09,1.09,0,0,1-.26,0l-11.87-3.18,8.68,8.68a1,1,0,0,1,.16,1.24l-1.2,2.09,6.58-3.81Z"/><path class="cls-3" d="M223.75,599.81l11.86-3.17a.88.88,0,0,1,.27,0,1,1,0,0,1,.89.52L238,599.2v-7.65l-6.59-3.77,1.22,2.1a1,1,0,0,1-.16,1.25Z"/><path class="cls-3" d="M229.5,550.75l-4.32,7.48a1,1,0,0,1-.13.47,1,1,0,0,1-.77.51.93.93,0,0,1-.29,0,1.65,1.65,0,0,1-.32,0h-8.79l8.46,14.65,14.6,8.42v-16.9Z"/><polygon class="cls-3" points="222.92 682.49 208.16 667.73 187.7 662.26 193.2 682.78 207.93 697.49 217.43 692.01 222.92 682.49"/><polygon class="cls-3" points="197.32 626.25 217.88 631.71 237.98 626.31 237.98 615.34 232.49 605.82 212.35 611.21 197.32 626.25"/><polygon class="cls-3" points="174.51 658.73 173.38 662.95 181.79 671.36 178.71 659.85 174.51 658.73"/><polygon class="cls-3" points="184.17 622.68 188.37 623.8 196.79 615.38 185.3 618.46 184.17 622.68"/><polygon class="cls-3" points="187.7 635.87 190.79 638.96 202.28 635.88 190.78 632.79 187.7 635.87"/><path class="cls-3" d="M206.77,707.31a.94.94,0,0,1-.37-.07l-5.84,3.38a1.05,1.05,0,0,1-.5.73L198,712.54h7.57l3.79-6.56-2.06,1.19A1.07,1.07,0,0,1,206.77,707.31Z"/><polygon class="cls-3" points="237.98 656.41 237.98 645.44 217.85 640.05 197.37 645.54 212.38 660.55 232.49 665.92 237.98 656.41"/><path class="cls-3" d="M246,640.05v2.38l3.79-6.55L246,629.31v2.39a1,1,0,0,1-.77,1l-11.85,3.18,11.86,3.17A1,1,0,0,1,246,640.05Z"/><path class="cls-3" d="M277.93,800.21a1,1,0,0,1-.73.3,1.07,1.07,0,0,1-.52-.14l-2.06-1.19.87,1.5h8.67l2.45-9.15Z"/><polygon class="cls-3" points="212.33 797.61 209.25 800.68 237.38 800.68 232.49 792.21 212.33 797.61"/><polygon class="cls-3" points="246.03 782.67 246.04 799.59 246.67 800.68 266.22 800.68 260.64 791.09 246.03 782.67"/><path class="cls-3" d="M433,611.18l-17.55-4.69-.38.23,14.7,24.38a3.66,3.66,0,0,1,1.24-.35l17-4.56Z"/><path class="cls-3" d="M454.94,672.32l2.7-10.06-7.26,1.94a3.11,3.11,0,0,1-.39.49l4.66,7.74Z"/><path class="cls-3" d="M474.37,671.85l-12.43,12.48-.13-.21-.07.06,14,23.22.11,0,4-15Z"/><path class="cls-3" d="M442.3,651.2l5.68-5.68-10.91-2.93a2.26,2.26,0,0,1-.23.29l5.1,8.46Z"/><path class="cls-3" d="M490.62,720.59h-2.41a1,1,0,0,1-1-.76L484,708l-2.42,9-.1-.16a1,1,0,0,0,0,.1l4.09,6.79.09,0-.1-.16Z"/><path class="cls-3" d="M504.59,745.58h-5.72l-.08-.14-.07.07,11.58,19.21.15,0,3.64-13.63Z"/><path class="cls-3" d="M545.65,775.62l-5.49-9.51-9.5-5.49-14.17,14.17-.16-.27s-.05,0-.07.07l10.24,17h.1l0,0,4.36-1.17Z"/><path class="cls-3" d="M555.22,792.19l-20.14,5.39-3,3-.06-.1-.06.08.06.09h28.13Z"/><polygon class="cls-3" points="292.97 798.92 312.6 765.54 297.99 780.15 292.97 798.92"/><polygon class="cls-3" points="377.65 654.92 379.12 652.42 376.19 652.42 377.65 654.92"/><polygon class="cls-3" points="354.56 682.19 349.07 702.68 349.66 702.52 370.03 667.88 369.3 667.46 354.56 682.19"/><path class="cls-3" d="M335.93,720.58l1.74-6.51-6.51,1.75-.26,0a1,1,0,0,1-1-.76l-1.74-6.5-4.76,4.76a1,1,0,0,1-.73.3,1.06,1.06,0,0,1-.73-.3l-4.76-4.77-1.74,6.51a1,1,0,0,1-1,.77,1.15,1.15,0,0,1-.26,0l-6.55-1.76,1.79,6.5a1,1,0,0,1-.73,1.27l-6.55,1.76,4.8,4.75a1,1,0,0,1,.31.73,1,1,0,0,1-.31.73l-4.75,4.76,6.49,1.73a1.07,1.07,0,0,1,.63.49,1,1,0,0,1,.1.78l-1.75,6.55,6.51-1.79a1.33,1.33,0,0,1,.28,0,.91.91,0,0,1,.51.14,1,1,0,0,1,.48.63l1.74,6.49,4.76-4.76a1,1,0,0,1,.73-.3,1.06,1.06,0,0,1,.73.3l.88.88,13.79-23.45-1.41-.38A1,1,0,0,1,335.93,720.58Z"/><polygon class="cls-3" points="76.57 782.69 61.94 791.14 56.43 800.68 75.93 800.68 76.58 799.54 76.57 782.69"/><polygon class="cls-3" points="90.12 792.21 85.23 800.68 113.33 800.68 110.23 797.59 90.12 792.21"/><polygon class="cls-3" points="76.62 719.53 76.61 708.56 71.12 699.04 68.67 699.69 52.28 723.8 56.52 724.93 76.62 719.53"/><path class="cls-3" d="M45.92,800.39a1,1,0,0,1-.51.14,1,1,0,0,1-.74-.31L36,791.55l2.45,9.13h8.71l.86-1.5Z"/><polygon class="cls-3" points="71.13 759.14 76.62 749.63 76.62 738.66 56.49 733.27 43.47 736.75 39.64 742.39 51.02 753.77 71.13 759.14"/><path class="cls-3" d="M91.21,683.94,90,681.86a1,1,0,0,1,.16-1.25l8.69-8.68L87,675.11l-.27,0a1,1,0,0,1-.89-.51l-.06-.1-1.14,1.69v3.92Z"/><path class="cls-3" d="M76.61,692.42V688l-1.42,2.1a.77.77,0,0,1,.22.22Z"/><polygon class="cls-3" points="24.6 780.15 18.27 773.82 0 800.68 29.3 800.68 29.99 800.28 24.6 780.15"/><polygon class="cls-3" points="35.03 749.18 34.86 749.42 35.42 749.58 35.03 749.18"/><polygon class="cls-3" points="46.56 790.71 56.09 785.21 61.56 775.71 46.8 760.95 30.06 756.47 27.55 760.17 31.83 776 46.56 790.71"/><polygon class="cls-3" points="722.03 782.68 707.41 791.12 701.89 800.68 721.37 800.68 722.03 799.53 722.03 782.68"/><polygon class="cls-3" points="743.19 729.13 748.12 737.58 757.9 737.53 762.77 729.02 757.82 720.53 748.08 720.58 743.19 729.13"/><path class="cls-3" d="M758.71,752.15l2.07-1.19a1,1,0,0,1,.51-.14,1,1,0,0,1,.73.3l8.68,8.68-3.18-11.86a1,1,0,0,1,.49-1.16l2.06-1.19H762.5Z"/><path class="cls-3" d="M738.57,721l4.31-7.47a1,1,0,0,1,1-1l.21,0,.23,0h8.93l-8.52-14.64-14.64-8.44,0,17Z"/><polygon class="cls-3" points="309.48 751.94 305.26 753.07 302.18 764.56 310.61 756.14 309.48 751.94"/><polygon class="cls-3" points="696.41 704.43 681.4 719.46 701.97 724.92 722.07 719.52 722.07 708.55 716.58 699.03 696.41 704.43"/><path class="cls-3" d="M74.52,768.36l-.26,0-11.87-3.18,8.68,8.68a1,1,0,0,1,.17,1.24L70,777.16l6.58-3.81v-7.59l-1.2,2.08A1,1,0,0,1,74.52,768.36Z"/><polygon class="cls-3" points="675.45 657.9 665.95 652.42 654.96 652.41 649.56 672.54 655.07 693.09 670.08 678.01 675.45 657.9"/><polygon class="cls-3" points="662.8 705.09 665.88 693.6 657.42 702.06 658.58 706.23 662.8 705.09"/><polygon class="cls-3" points="568.76 782.68 568.77 799.58 569.41 800.68 588.9 800.68 583.36 791.1 568.76 782.68"/><polygon class="cls-3" points="671.79 729.08 674.88 732.17 686.37 729.09 674.86 726 671.79 729.08"/><path class="cls-3" d="M691.38,800.38a1.07,1.07,0,0,1-.52.14,1,1,0,0,1-.73-.3l-8.68-8.68,2.45,9.14h8.71l.86-1.51Z"/><polygon class="cls-3" points="635.72 765.08 620.71 780.16 615.34 800.27 616.06 800.68 637.19 800.68 641.23 785.6 635.72 765.08"/><polygon class="cls-3" points="670.05 780.14 655.06 765.15 649.56 785.65 653.6 800.68 674.74 800.68 675.45 800.27 670.05 780.14"/><path class="cls-3" d="M600.65,800.22a1,1,0,0,1-.73.3,1,1,0,0,1-.51-.14l-2.07-1.19.87,1.49h8.67l2.46-9.14Z"/><path class="cls-3" d="M649.56,644.35H652l-6.59-3.8-6.58,3.8h2.4a1,1,0,0,1,1,.76L645.39,657l3.18-11.85A1,1,0,0,1,649.56,644.35Z"/><polygon class="cls-3" points="780.36 50.31 774.87 29.79 760.14 15.08 750.64 20.57 745.14 30.09 759.88 44.82 780.36 50.31"/><polygon class="cls-3" points="497.23 53.83 501.44 52.7 504.52 41.21 496.1 49.63 497.23 53.83"/><polygon class="cls-3" points="735.57 792.2 730.68 800.68 758.79 800.68 755.69 797.58 735.57 792.2"/><path class="cls-3" d="M113.26,6.61l2.06-1.2a1.06,1.06,0,0,1,.52-.13,1,1,0,0,1,.73.3l8.68,8.67L122.32,3.31h-7.16Z"/><path class="cls-3" d="M116.57,147.84a1,1,0,0,1-1.25.17l-2.07-1.19,3.79,6.55h7.58l-2.07-1.19a1,1,0,0,1-.48-1.16l3.18-11.86Z"/><polygon class="cls-3" points="151.65 112.76 136.62 127.79 131.25 147.89 140.78 153.39 151.74 153.38 157.14 133.25 151.65 112.76"/><polygon class="cls-3" points="114.4 108.6 99.69 123.34 105.18 132.84 114.68 138.33 129.42 123.59 134.91 103.11 114.4 108.6"/><path class="cls-3" d="M77.33,73.53a1,1,0,0,1-.76-1V70.15l-3.79,6.56,3.79,6.57v-2.4a1,1,0,0,1,.77-1l11.85-3.17Z"/><polygon class="cls-3" points="125.29 86.33 104.76 80.88 84.63 86.27 84.63 97.27 90.12 106.77 110.26 101.37 125.29 86.33"/><path class="cls-3" d="M167.88,178.36l-6.63-3.82-6.56,3.82h2.44a1,1,0,0,1,1,.77L161.3,191l3.18-11.86a1,1,0,0,1,1-.77Z"/><polygon class="cls-3" points="140.82 112.19 149.24 103.77 148.11 99.57 143.9 100.7 140.82 112.19"/><polygon class="cls-3" points="174.5 240.24 178.71 239.11 181.79 227.61 173.37 236.03 174.5 240.24"/><polygon class="cls-3" points="191.36 191.91 181.84 186.42 170.87 186.43 165.47 206.56 170.98 227.1 185.99 212.02 191.36 191.91"/><polygon class="cls-3" points="61.56 30.16 46.82 15.42 26.28 9.92 31.83 30.45 46.56 45.16 56.09 39.66 61.56 30.16"/><polygon class="cls-3" points="134.96 50.33 129.41 29.8 114.69 15.09 105.19 20.58 99.69 30.09 114.42 44.83 134.96 50.33"/><polygon class="cls-3" points="131.82 73.63 120.33 76.71 131.83 79.79 134.91 76.72 131.82 73.63"/><polygon class="cls-3" points="138.44 89.91 134.19 88.77 125.8 97.2 137.32 94.12 138.44 89.91"/><polygon class="cls-3" points="134.27 64.68 138.45 63.52 137.32 59.31 125.82 56.23 134.27 64.68"/><path class="cls-3" d="M85.83,38a1,1,0,0,1,.89-.52,1.1,1.1,0,0,1,.27,0l11.86,3.18L90.17,32A1,1,0,0,1,90,30.73l1.2-2.08-6.58,3.8V40Z"/><path class="cls-3" d="M71.24,29.52,70,31.61l6.58-3.8v-7.6l-1.2,2.08a1,1,0,0,1-.9.52.84.84,0,0,1-.27,0L62.39,19.6l8.68,8.67A1,1,0,0,1,71.24,29.52Z"/><polygon class="cls-3" points="84.63 56.17 84.63 67.14 104.76 72.53 125.24 67.05 110.23 52.04 90.12 46.66 84.63 56.17"/><polygon class="cls-3" points="237.98 253.53 237.98 242.56 232.49 233.04 212.33 238.44 197.35 253.43 217.88 258.94 237.98 253.53"/><path class="cls-3" d="M76.57,37.14,62,45.58,53.51,60.2h8.64a1,1,0,0,1,.45-.1,1,1,0,0,1,.61.19,1.08,1.08,0,0,1,.47.43.94.94,0,0,1,.13.44l4.32,7.48L76.58,54Z"/><polygon class="cls-3" points="184.17 249.9 188.37 251.03 196.78 242.61 185.3 245.69 184.17 249.9"/><path class="cls-3" d="M237.93,536.13l-3.78,6.56,3.79,6.56v-2.39a1,1,0,0,1,.76-1l11.85-3.17-11.85-3.18a1,1,0,0,1-.77-1Z"/><path class="cls-3" d="M385.12,506.63,397,503.45l.26,0a1,1,0,0,1,.9.51l1.2,2.09v-7.66l-6.59-3.77L394,496.7a1,1,0,0,1-.17,1.25Z"/><path class="cls-3" d="M247.2,503.94a1,1,0,0,1,.89-.52,1.15,1.15,0,0,1,.26,0l11.87,3.19L251.54,498a1,1,0,0,1-.17-1.25l1.21-2.08-6.59,3.8V506Z"/><polygon class="cls-3" points="624.87 60.22 635.83 60.21 641.23 40.05 635.72 19.53 620.71 34.61 615.34 54.72 624.87 60.22"/><path class="cls-3" d="M206,564.74a1.06,1.06,0,0,1,.73-.3,1.08,1.08,0,0,1,.53.14l2.06,1.19-3.82-6.61-7.59,0,2.11,1.21a1.06,1.06,0,0,1,.48,1.17l-3.18,11.85Z"/><path class="cls-3" d="M260.67,480.64,269.1,466h-8.82a1.09,1.09,0,0,1-.25,0,1.2,1.2,0,0,1-.33-.05,1,1,0,0,1-.76-.51,1,1,0,0,1-.14-.47l-4.32-7.49L246,472.2v16.89Z"/><path class="cls-3" d="M209.38,519.57l-2.09,1.21a1.07,1.07,0,0,1-.52.14,1,1,0,0,1-.73-.3l-8.68-8.68,3.18,11.86a1,1,0,0,1-.48,1.16L198,526.15h7.63Z"/><path class="cls-3" d="M224,526.11a1.24,1.24,0,0,1,.33,0,1,1,0,0,1,.76.51,1.11,1.11,0,0,1,.14.47l4.32,7.49L238,520V503.08l-14.61,8.44-8.46,14.63h8.83A1,1,0,0,1,224,526.11Z"/><polygon class="cls-3" points="210.25 551.2 220.01 551.16 224.88 542.64 219.93 534.16 210.16 534.21 205.29 542.72 210.25 551.2"/><path class="cls-3" d="M287.5,448.69a1.06,1.06,0,0,1,.16.21,1,1,0,0,1,.14.8.73.73,0,0,1-.12.35,1.08,1.08,0,0,1-.18.24L283,458,300,458l14.69-8.49L300,441H283.07Z"/><path class="cls-3" d="M246,269.66l3.82-6.61L246,256.5v2.43a1,1,0,0,1-.77,1l-11.85,3.18,11.86,3.18a1,1,0,0,1,.76,1Z"/><polygon class="cls-3" points="296.28 356.31 293.19 353.22 281.7 356.3 293.2 359.38 296.28 356.31"/><polygon class="cls-3" points="271.6 331.63 251.48 326.25 246 335.76 245.99 346.73 266.13 352.13 286.61 346.64 271.6 331.63"/><polygon class="cls-3" points="197.37 272.76 212.38 287.77 232.49 293.15 237.98 283.63 237.98 272.67 217.85 267.27 197.37 272.76"/><polygon class="cls-3" points="299.81 369.5 295.61 368.37 287.19 376.79 298.68 373.71 299.81 369.5"/><path class="cls-3" d="M286,433l-2.09-1.21a1,1,0,0,1-.48-1.16l3.17-11.86-8.68,8.68a1,1,0,0,1-.73.31,1.07,1.07,0,0,1-.52-.14l-2.06-1.19,3.82,6.6Z"/><polygon class="cls-3" points="273.82 457.97 278.68 449.45 273.73 440.97 263.97 441.01 259.1 449.53 264.05 458.02 273.82 457.97"/><path class="cls-3" d="M235.89,302.36a1.12,1.12,0,0,1-.27,0l-11.86-3.18,8.68,8.68a1,1,0,0,1,.16,1.25l-1.2,2.08,6.58-3.8v-7.59l-1.2,2.08A1,1,0,0,1,235.89,302.36Z"/><polygon class="cls-3" points="313.11 432.97 318.51 412.81 313.02 392.35 297.99 407.38 292.62 427.49 302.12 432.97 313.11 432.97"/><path class="cls-3" d="M568.77,54l8.44,14.6,4.3-7.45a1.09,1.09,0,0,1,.11-.43,1,1,0,0,1,.89-.55h9.31l-8.46-14.64-14.6-8.42Z"/><polygon class="cls-3" points="487.12 106.17 484.03 103.09 480.96 106.16 484.04 117.66 487.12 106.17"/><polygon class="cls-3" points="474.47 153.37 479.87 133.2 474.38 112.74 459.35 127.77 453.98 147.88 463.51 153.38 474.47 153.37"/><polygon class="cls-3" points="470.84 99.55 466.62 100.68 463.55 112.18 471.97 103.75 470.84 99.55"/><polygon class="cls-3" points="501.44 100.67 497.24 99.55 496.11 103.77 504.52 112.18 501.44 100.67"/><polygon class="cls-3" points="504.59 153.36 514.09 147.88 508.69 127.75 493.7 112.75 488.2 133.26 493.61 153.37 504.59 153.36"/><polygon class="cls-3" points="407.36 242.54 407.36 253.51 427.49 258.9 447.97 253.42 432.96 238.41 412.85 233.03 407.36 242.54"/><polygon class="cls-3" points="457.69 236.71 452.14 216.17 437.42 201.46 427.92 206.95 422.42 216.46 437.15 231.2 457.69 236.71"/><path class="cls-3" d="M145.88,76.71a1.09,1.09,0,0,1-.3.74l-4.76,4.75,6.5,1.74a1,1,0,0,1,.62.48,1,1,0,0,1,.11.78l-1.75,6.51L152.81,90a.84.84,0,0,1,.27,0,1,1,0,0,1,1,.77l1.74,6.49,4.75-4.75a1,1,0,0,1,.73-.3,1,1,0,0,1,.73.3l4.77,4.76,1.74-6.51a1,1,0,0,1,.48-.62,1,1,0,0,1,.52-.14,1.24,1.24,0,0,1,.27,0l6.49,1.74-1.74-6.49a1,1,0,0,1,.73-1.27l6.55-1.75L177,77.44a1,1,0,0,1-.31-.73A1.07,1.07,0,0,1,177,76l4.76-4.75-6.5-1.74a1,1,0,0,1-.62-.48,1,1,0,0,1-.11-.78l1.75-6.51-6.51,1.74a.84.84,0,0,1-.27,0,1.07,1.07,0,0,1-.52-.14,1.05,1.05,0,0,1-.48-.63l-1.74-6.49L162,61a1,1,0,0,1-.73.3,1,1,0,0,1-.73-.3l-4.8-4.79-1.71,6.53a1,1,0,0,1-1,.77,1.09,1.09,0,0,1-.26,0l-6.54-1.75,1.78,6.49a1.08,1.08,0,0,1-.1.79,1.06,1.06,0,0,1-.63.49l-6.55,1.75,4.8,4.75A1,1,0,0,1,145.88,76.71Z"/><path class="cls-3" d="M449,170.45a1.24,1.24,0,0,1-.17.23l-4.46,7.72,16.94-.05L476,169.86l-14.7-8.44H444.43l4.43,7.67a.87.87,0,0,1,.17.21,1.05,1.05,0,0,1,.13.8A.73.73,0,0,1,449,170.45Z"/><polygon class="cls-3" points="519.52 56.2 508.02 59.28 506.9 63.5 511.1 64.62 519.52 56.2"/><polygon class="cls-3" points="208.21 603.98 222.92 589.25 217.43 579.74 207.93 574.25 193.19 588.99 187.71 609.47 208.21 603.98"/><path class="cls-3" d="M568,79.87a1,1,0,0,1,.76,1v2.38l3.79-6.56-3.79-6.56v2.39a1,1,0,0,1-.77,1l-11.85,3.17Z"/><path class="cls-3" d="M575.3,31.6l-1.2-2.08a1,1,0,0,1,.16-1.25L583,19.59l-11.86,3.18a1.26,1.26,0,0,1-.27,0,1,1,0,0,1-.89-.52l-1.21-2.09v7.6Z"/><polygon class="cls-3" points="598.77 45.15 613.51 30.41 618.99 9.93 598.49 15.43 583.78 30.16 589.27 39.67 598.77 45.15"/><polygon class="cls-3" points="520.05 67.07 540.61 72.53 560.71 67.13 560.71 56.13 555.22 46.64 535.08 52.03 520.05 67.07"/><path class="cls-3" d="M408.56,224.33a1,1,0,0,1,.89-.52,1.1,1.1,0,0,1,.27,0L421.58,227l-8.68-8.68a1,1,0,0,1-.16-1.25l1.2-2.08-6.58,3.8v7.59Z"/><polygon class="cls-3" points="545.65 30.07 540.16 20.56 530.66 15.07 515.92 29.81 510.43 50.29 530.94 44.8 545.65 30.07"/><polygon class="cls-3" points="519.54 97.19 511.07 88.73 506.89 89.88 508.03 94.15 519.54 97.19"/><path class="cls-3" d="M546.48,40.63l11.86-3.17a.77.77,0,0,1,.27,0,1,1,0,0,1,.89.52L560.71,40V32.41l-6.57-3.79,1.2,2.08a1,1,0,0,1-.16,1.25Z"/><path class="cls-3" d="M438.57,191.65a1,1,0,0,1,.73.3l8.68,8.68-3.18-11.86a1,1,0,0,1,.48-1.16l2.07-1.2h-7.57L436,193l2.06-1.2A1.06,1.06,0,0,1,438.57,191.65Z"/><path class="cls-3" d="M223.75,40.65l11.86-3.18.27,0a1,1,0,0,1,.89.52L238,40V32.43l-6.57-3.79,1.2,2.08a1,1,0,0,1-.16,1.25Z"/><path class="cls-3" d="M399.3,256.52l-3.79,6.56,3.79,6.56v-2.39a1,1,0,0,1,.76-1l11.86-3.17-11.86-3.18a1,1,0,0,1-.76-1Z"/><polygon class="cls-3" points="197.31 67.08 217.88 72.55 237.98 67.15 237.98 56.17 232.49 46.66 212.33 52.06 197.31 67.08"/><path class="cls-3" d="M245.28,79.89a1,1,0,0,1,.76,1v2.38l3.79-6.56L246,70.15v2.39a1,1,0,0,1-.77,1l-11.85,3.17Z"/><polygon class="cls-3" points="164.38 47.24 161.3 35.74 158.21 47.28 161.3 50.32 164.38 47.24"/><polygon class="cls-3" points="148.1 53.86 149.23 49.64 140.82 41.22 143.92 52.78 148.1 53.86"/><polygon class="cls-3" points="196.78 56.22 185.24 59.31 184.16 63.51 188.37 64.64 196.78 56.22"/><path class="cls-3" d="M252.58,31.59l-1.2-2.08a1,1,0,0,1,.16-1.24l8.68-8.69-11.85,3.18a1.26,1.26,0,0,1-.27,0,1,1,0,0,1-.9-.52L246,20.2v7.59Z"/><polygon class="cls-3" points="178.71 52.72 181.79 41.23 173.37 49.65 174.5 53.85 178.71 52.72"/><polygon class="cls-3" points="222.92 30.08 217.43 20.57 207.93 15.09 193.19 29.83 187.71 50.31 208.21 44.82 222.92 30.08"/><polygon class="cls-3" points="349.07 169.91 352.15 172.99 363.65 169.91 352.14 166.83 349.07 169.91"/><path class="cls-3" d="M246,54l8.44,14.61,4.31-7.48a1.07,1.07,0,0,1,.14-.47,1,1,0,0,1,.76-.51,1,1,0,0,1,.29,0,1.08,1.08,0,0,1,.32,0h8.8l-8.47-14.64L246,37.12Z"/><polygon class="cls-3" points="345.52 156.72 349.73 157.84 358.15 149.42 346.61 152.52 345.52 156.72"/><polygon class="cls-3" points="373.74 194.59 393.86 199.96 399.35 190.45 399.35 179.48 379.21 174.09 358.73 179.57 373.74 194.59"/><polygon class="cls-3" points="332.33 133.86 347.35 118.84 352.73 98.73 343.2 93.23 332.23 93.24 326.84 113.37 332.33 133.86"/><path class="cls-3" d="M287.5,75.92a.83.83,0,0,1,.16.21,1.05,1.05,0,0,1,.14.8,1,1,0,0,1-.12.34,1.08,1.08,0,0,1-.18.24L283,85.23l16.94,0,14.69-8.49-14.73-8.45H283.07Z"/><path class="cls-3" d="M329.25,68.26h-2.4a1,1,0,0,1-1-.76l-3.18-11.86L319.5,67.49a1,1,0,0,1-1,.77h-2.41l6.58,3.8Z"/><polygon class="cls-3" points="276.05 45.15 290.78 30.41 296.27 9.92 275.77 15.42 261.05 30.15 266.55 39.66 276.05 45.15"/><path class="cls-3" d="M318.49,85.18a1,1,0,0,1,1,.76l3.18,11.86,3.17-11.86a1,1,0,0,1,1-.76h2.41l-6.58-3.8-6.58,3.8h2.4Z"/><path class="cls-3" d="M232.6,495.47l-1.2,2.08,6.58-3.81v-7.59l-1.2,2.08a1,1,0,0,1-.89.52,1.09,1.09,0,0,1-.26,0l-11.87-3.18,8.68,8.68A1,1,0,0,1,232.6,495.47Z"/><polygon class="cls-3" points="480.96 665.33 484.04 676.83 487.13 665.28 484.04 662.25 480.96 665.33"/><polygon class="cls-3" points="496.11 662.93 504.52 671.34 501.44 659.84 497.24 658.71 496.11 662.93"/><path class="cls-3" d="M519.21,729.85a.87.87,0,0,1-.17-.21,1.12,1.12,0,0,1-.14-.8.82.82,0,0,1,.13-.35.91.91,0,0,1,.17-.23l4.43-7.68H506.72L492,729.08l14.66,8.44h16.95Z"/><path class="cls-3" d="M491.27,649.84a1,1,0,0,1,.48-.63,1,1,0,0,1,.52-.14.82.82,0,0,1,.26,0l6.5,1.74-1.74-6.5a1,1,0,0,1,.73-1.26l6.51-1.74-4.77-4.77a1,1,0,0,1,0-1.46l4.76-4.75-6.5-1.74a1,1,0,0,1-.73-1.27l1.76-6.55-6.52,1.79-.27,0a1,1,0,0,1-.51-.13,1.07,1.07,0,0,1-.49-.63l-1.74-6.5-4.75,4.76a1.06,1.06,0,0,1-.73.3,1,1,0,0,1-.73-.3l-4.8-4.8-1.71,6.54a1,1,0,0,1-.48.63,1.07,1.07,0,0,1-.52.14l-.26,0-6.5-1.75,1.74,6.5a1,1,0,0,1-.73,1.26l-6.51,1.75,4.77,4.76a1,1,0,0,1,.3.73,1,1,0,0,1-.3.73l-4.76,4.76,6.5,1.74a1,1,0,0,1,.73,1.26L469,650.9l6.52-1.79.27,0a1,1,0,0,1,.51.13,1.07,1.07,0,0,1,.49.63l1.74,6.5,4.75-4.76a1.06,1.06,0,0,1,.73-.3,1,1,0,0,1,.73.3l4.8,4.8Z"/><polygon class="cls-3" points="504.59 712.53 514.09 707.04 508.69 686.91 493.7 671.92 488.2 692.42 493.61 712.53 504.59 712.53"/><path class="cls-3" d="M554.11,774.15l1.22,2.1a1,1,0,0,1-.16,1.25l-8.68,8.68L558.34,783a.84.84,0,0,1,.27,0,1,1,0,0,1,.89.52l1.21,2.09v-7.66Z"/><path class="cls-3" d="M520.68,745.56l2.11,1.21a1.06,1.06,0,0,1,.48,1.17l-3.18,11.85,8.68-8.68A1,1,0,0,1,530,751l2.07,1.19-3.82-6.61Z"/><path class="cls-3" d="M560.66,751.75l-8.44-14.61-4.33,7.51a1,1,0,0,1-1,1,1,1,0,0,1-.42-.09h-8.83l8.46,14.64,14.59,8.42Z"/><polygon class="cls-3" points="547.6 729.04 542.63 720.53 532.89 720.57 528.02 729.09 532.97 737.58 542.75 737.53 547.6 729.04"/><polygon class="cls-3" points="461.18 622.66 460.05 618.46 448.55 615.37 456.96 623.78 461.18 622.66"/><path class="cls-3" d="M421.83,559.2a1,1,0,0,1-.46.1,1,1,0,0,1-.6-.19,1.06,1.06,0,0,1-.47-.42,1.18,1.18,0,0,1-.14-.45l-4.31-7.48-8.46,14.65v16.85L422,573.82l8.46-14.63Z"/><polygon class="cls-3" points="466.62 659.85 463.55 671.34 471.97 662.92 470.84 658.72 466.62 659.85"/><polygon class="cls-3" points="452.14 588.95 437.42 574.24 427.89 579.74 422.42 589.24 437.15 603.98 457.69 609.48 452.14 588.95"/><path class="cls-3" d="M412.74,589.88l1.2-2.09-6.58,3.81v7.59l1.2-2.08a1,1,0,0,1,.89-.52,1.09,1.09,0,0,1,.26,0l11.87,3.18-8.68-8.68A1,1,0,0,1,412.74,589.88Z"/><path class="cls-3" d="M561.42,725.91a1,1,0,0,1-.76-1v-2.38l-3.82,6.6,3.82,6.55v-2.42a1,1,0,0,1,.76-1l11.85-3.18Z"/><polygon class="cls-3" points="470.83 613 471.96 608.78 463.55 600.37 466.63 611.88 470.83 613"/><polygon class="cls-3" points="479.87 579.29 474.46 559.18 463.48 559.18 453.98 564.67 459.38 584.8 474.37 599.79 479.87 579.29"/><path class="cls-3" d="M407.41,549.25l3.78-6.56-3.78-6.56v2.39a1.06,1.06,0,0,1-.77,1l-11.85,3.17,11.85,3.18a1,1,0,0,1,.77,1Z"/><polygon class="cls-3" points="457.64 635.86 454.55 632.77 443.06 635.85 454.57 638.94 457.64 635.86"/><polygon class="cls-3" points="448.56 656.34 460.1 653.25 461.18 649.05 456.97 647.93 448.56 656.34"/><path class="cls-3" d="M730.13,735.65l3.79-6.56-3.79-6.57v2.39a1,1,0,0,1-.77,1l-11.85,3.18,11.86,3.17a1,1,0,0,1,.76,1Z"/><polygon class="cls-3" points="681.46 738.75 696.47 753.76 716.58 759.13 722.07 749.62 722.07 738.65 701.94 733.26 681.46 738.75"/><polygon class="cls-3" points="671.79 755.47 677.29 776 692.01 790.7 701.54 785.2 707.01 775.7 692.25 760.94 671.79 755.47"/><path class="cls-3" d="M735.46,776.27l1.21-2.08L730.08,778v7.58l1.2-2.08a1,1,0,0,1,.9-.51l.26,0,11.87,3.18-8.68-8.68A1,1,0,0,1,735.46,776.27Z"/><path class="cls-3" d="M583,765.14l-11.86,3.18-.27,0a1,1,0,0,1-.89-.51l-1.21-2.09v7.66l6.6,3.77-1.22-2.11a1,1,0,0,1,.16-1.24Z"/><polygon class="cls-3" points="803.66 792.82 806.75 795.86 809.84 792.78 806.75 781.28 803.66 792.82"/><path class="cls-3" d="M744.55,745.59a1,1,0,0,1-1.06-.09,1,1,0,0,1-.6-.86l-4.32-7.49-8.45,14.65v16.86l14.61-8.44,8.47-14.67Z"/><polygon class="cls-3" points="789.36 798.27 793.56 799.4 794.68 795.18 786.27 786.77 789.36 798.27"/><polygon class="cls-3" points="760.14 760.63 750.64 766.12 745.14 775.64 759.88 790.37 780.42 795.88 774.87 775.34 760.14 760.63"/><path class="cls-3" d="M720,768.35l-.26,0-11.86-3.18,8.68,8.68a1,1,0,0,1,.16,1.24l-1.2,2.09,6.58-3.8v-7.6l-1.2,2.08A1,1,0,0,1,720,768.35Z"/><polygon class="cls-3" points="583.78 775.71 589.27 785.22 598.77 790.71 613.51 775.97 619 755.48 598.49 760.98 583.78 775.71"/><polygon class="cls-3" points="185.99 584.8 191.36 564.69 181.86 559.21 170.87 559.2 165.47 579.33 170.98 599.87 185.99 584.8"/><polygon class="cls-3" points="609.38 738.71 588.82 733.25 568.72 738.65 568.72 749.62 574.21 759.14 594.35 753.75 609.38 738.71"/><polygon class="cls-3" points="627.98 753.07 624.9 764.57 633.33 756.15 632.2 751.94 627.98 753.07"/><polygon class="cls-3" points="672.43 741.12 668.25 742.28 669.38 746.48 680.88 749.57 672.43 741.12"/><path class="cls-3" d="M661.12,728.35l4.76-4.75-6.5-1.74a1,1,0,0,1-.73-1.27l1.74-6.51-6.51,1.75-.26,0a1,1,0,0,1-1-.76l-1.74-6.5-4.75,4.76a1.06,1.06,0,0,1-.73.3,1,1,0,0,1-.73-.3l-4.77-4.77-1.74,6.51a1,1,0,0,1-1,.77,1.26,1.26,0,0,1-.27,0l-6.49-1.74,1.74,6.5a1,1,0,0,1-.73,1.26l-6.51,1.74,4.77,4.77a1,1,0,0,1,0,1.46l-4.76,4.75,6.5,1.74a1,1,0,0,1,.62.49,1,1,0,0,1,.11.78l-1.76,6.55,6.52-1.79.27,0a1,1,0,0,1,.51.13,1.07,1.07,0,0,1,.49.63l1.74,6.49,4.75-4.75a1.06,1.06,0,0,1,.73-.3,1,1,0,0,1,.73.3l4.8,4.8,1.71-6.54a1,1,0,0,1,.48-.63,1.07,1.07,0,0,1,.52-.14l.26,0,6.5,1.75-1.74-6.5a1,1,0,0,1,.73-1.26l6.5-1.74-4.76-4.77A1,1,0,0,1,661.12,728.35Z"/><polygon class="cls-3" points="680.87 708.6 669.33 711.69 668.25 715.89 672.46 717.01 680.87 708.6"/><polygon class="cls-3" points="658.6 751.94 657.47 756.16 665.88 764.57 662.8 753.06 658.6 751.94"/><polygon class="cls-3" points="642.32 758.56 645.4 770.05 648.48 758.57 645.39 755.48 642.32 758.56"/><polygon class="cls-3" points="609.89 749.58 621.46 746.48 622.54 742.28 618.28 741.14 609.89 749.58"/><polygon class="cls-3" points="143.92 798.33 148.1 799.41 149.23 795.19 140.82 786.77 143.92 798.33"/><polygon class="cls-3" points="114.69 760.64 105.16 766.14 99.69 775.64 114.42 790.38 134.97 795.88 129.41 775.35 114.69 760.64"/><path class="cls-3" d="M99.1,745.6a1,1,0,0,1-1.06-.09,1,1,0,0,1-.47-.42,1.14,1.14,0,0,1-.14-.44l-4.31-7.49-8.46,14.65v16.86l14.61-8.44,8.46-14.63Z"/><path class="cls-3" d="M90,776.28l1.2-2.08L84.62,778v7.59l1.2-2.08a1,1,0,0,1,.89-.52,1.09,1.09,0,0,1,.26,0l11.87,3.18-8.68-8.68A1,1,0,0,1,90,776.28Z"/><polygon class="cls-3" points="140.75 745.59 131.25 751.07 136.65 771.2 151.64 786.2 157.14 765.7 151.74 745.59 140.75 745.59"/><polygon class="cls-3" points="181.84 745.58 170.87 745.59 165.47 765.72 170.98 786.26 185.99 771.19 191.36 751.08 181.84 745.58"/><polygon class="cls-3" points="207.93 760.64 193.19 775.38 187.71 795.86 208.21 790.37 222.92 775.63 217.43 766.13 207.93 760.64"/><path class="cls-3" d="M167.89,737.53l-6.64-3.83-6.56,3.83h2.44a1,1,0,0,1,1,.77l3.18,11.86,3.18-11.86a1,1,0,0,1,1-.76Z"/><polygon class="cls-3" points="158.21 792.83 161.3 795.87 164.38 792.79 161.3 781.29 158.21 792.83"/><polygon class="cls-3" points="174.5 799.4 178.72 798.27 181.79 786.78 173.37 795.2 174.5 799.4"/><polygon class="cls-3" points="148.1 613.03 149.23 608.8 140.82 600.39 143.92 611.94 148.1 613.03"/><polygon class="cls-3" points="358.73 552.35 373.74 567.36 393.86 572.74 399.35 563.22 399.35 552.26 379.21 546.86 358.73 552.35"/><polygon class="cls-3" points="164.38 606.4 161.3 594.9 158.21 606.44 161.3 609.48 164.38 606.4"/><polygon class="cls-3" points="178.71 611.88 181.79 600.39 173.34 608.85 174.49 613.01 178.71 611.88"/><path class="cls-3" d="M93.11,721l4.32-7.47a1,1,0,0,1,.13-.51,1,1,0,0,1,.86-.52.75.75,0,0,1,.21,0,.9.9,0,0,1,.23,0h8.87l-8.46-14.64-14.64-8.45,0,17Z"/><path class="cls-3" d="M84.68,735.65l3.81-6.6-3.81-6.55v2.42a1,1,0,0,1-.77,1l-11.85,3.17,11.85,3.18a1,1,0,0,1,.77,1Z"/><polygon class="cls-3" points="114.68 697.49 129.42 682.75 134.91 662.27 114.4 667.77 99.69 682.5 105.18 692.01 114.68 697.49"/><polygon class="cls-3" points="134.91 635.88 131.82 632.79 120.33 635.87 131.84 638.96 134.91 635.88"/><polygon class="cls-3" points="125.83 656.36 137.37 653.27 138.45 649.07 134.24 647.94 125.83 656.36"/><path class="cls-3" d="M145.88,635.87a1.05,1.05,0,0,1-.3.74l-4.76,4.75,6.5,1.74a1,1,0,0,1,.73,1.27l-1.76,6.55,6.52-1.79a1.26,1.26,0,0,1,.27,0,1.07,1.07,0,0,1,.52.14,1.08,1.08,0,0,1,.48.63l1.74,6.49,4.75-4.75a1.06,1.06,0,0,1,.73-.3,1,1,0,0,1,.73.3l4.77,4.76,1.74-6.5a1,1,0,0,1,1-.77l.26,0,6.5,1.75-1.74-6.5a1.06,1.06,0,0,1,.1-.78,1,1,0,0,1,.63-.48l6.51-1.75L177,636.6a1.06,1.06,0,0,1-.3-.73,1,1,0,0,1,.3-.73l4.79-4.79-6.52-1.7a1,1,0,0,1-.74-1.27l1.75-6.51-6.51,1.75-.27,0a1,1,0,0,1-1-.77l-1.74-6.49L162,620.14a1,1,0,0,1-.73.31,1,1,0,0,1-.73-.31l-4.8-4.79-1.71,6.53a1,1,0,0,1-.48.64,1.07,1.07,0,0,1-.52.14,1.27,1.27,0,0,1-.26,0l-6.5-1.74,1.74,6.49a1,1,0,0,1-.1.79,1,1,0,0,1-.63.48l-6.55,1.75,4.8,4.75A1,1,0,0,1,145.88,635.87Z"/><path class="cls-3" d="M357.84,636.68a.83.83,0,0,1-.16-.21,1.07,1.07,0,0,1-.13-.84.79.79,0,0,1,.11-.3,1.08,1.08,0,0,1,.18-.24l4.43-7.68H345.36l-14.69,8.49,14.74,8.45h16.87Z"/><polygon class="cls-3" points="335.86 706.22 340.08 705.08 343.16 693.59 334.74 702.01 335.86 706.22"/><path class="cls-3" d="M237.94,751.77l-8.44-14.63-4.32,7.48a1,1,0,0,1-.13.47,1,1,0,0,1-.76.51,1,1,0,0,1-.3,0,1.66,1.66,0,0,1-.32,0h-8.85l8.52,14.65,14.6,8.42Z"/><path class="cls-3" d="M329.25,644.34l-6.63-3.82-6.56,3.82h2.43a1,1,0,0,1,1,.76L322.67,657l3.17-11.86a1.06,1.06,0,0,1,1-.77Z"/><path class="cls-3" d="M384.69,604.72l-8.45,14.63h8.64a1,1,0,0,1,1.06.09,1.06,1.06,0,0,1,.47.42,1.17,1.17,0,0,1,.13.44l4.32,7.49,8.45-14.65V596.28Z"/><polygon class="cls-3" points="319.58 699.64 322.67 702.69 325.75 699.6 322.67 688.11 319.58 699.64"/><path class="cls-3" d="M359.36,652.41l2.07,1.2a1,1,0,0,1,.48,1.16l-3.18,11.85,8.68-8.68a1,1,0,0,1,.73-.3,1.07,1.07,0,0,1,.52.14l2.06,1.19-3.79-6.55Z"/><path class="cls-3" d="M398.15,581.44a1,1,0,0,1-.9.51l-.26,0-11.87-3.18,8.68,8.68a1,1,0,0,1,.17,1.25l-1.21,2.08,6.59-3.8v-7.59Z"/><polygon class="cls-3" points="371.53 627.41 366.66 635.92 371.61 644.41 381.35 644.36 386.24 635.81 381.31 627.36 371.53 627.41"/><polygon class="cls-3" points="332.23 652.4 326.84 672.54 332.34 693.08 347.35 678 352.73 657.89 343.2 652.39 332.23 652.4"/><path class="cls-3" d="M238.7,725.9a1,1,0,0,1-.77-1v-2.38l-3.78,6.55,3.79,6.57v-2.39a1,1,0,0,1,.76-1l11.85-3.18Z"/><path class="cls-3" d="M260.22,765.13l-11.85,3.18a1.47,1.47,0,0,1-.27,0,1,1,0,0,1-.9-.52l-1.2-2.08v7.59l6.58,3.8-1.2-2.08a1,1,0,0,1,.16-1.24Z"/><path class="cls-3" d="M231.38,774.16l1.22,2.11a1,1,0,0,1-.16,1.25l-8.69,8.68L235.61,783l.27,0a1,1,0,0,1,.89.52l1.21,2.08v-7.65Z"/><polygon class="cls-3" points="286.63 738.74 266.1 733.24 246 738.64 246 749.64 251.49 759.13 271.65 753.73 286.63 738.74"/><polygon class="cls-3" points="287.19 749.56 298.73 746.47 299.82 742.27 295.61 741.15 287.19 749.56"/><polygon class="cls-3" points="305.28 705.14 309.47 706.23 310.6 702 302.19 693.59 305.28 705.14"/><polygon class="cls-3" points="261.05 775.7 266.55 785.21 276.05 790.7 290.78 775.96 296.27 755.48 275.77 760.97 261.05 775.7"/><polygon class="cls-3" points="302.12 652.4 292.62 657.89 298.01 678.02 313.01 693.01 318.5 672.51 313.1 652.4 302.12 652.4"/><path class="cls-3" d="M477.46,161.43l6.58,3.79,6.57-3.79h-2.4a1,1,0,0,1-1-.77L484,148.8l-3.18,11.86a1,1,0,0,1-1,.77Z"/><polygon class="cls-3" points="310.6 142.84 302.19 134.43 305.27 145.93 309.47 147.06 310.6 142.84"/><polygon class="cls-3" points="302.12 93.24 292.62 98.72 298.01 118.86 313.01 133.85 318.5 113.34 313.1 93.24 302.12 93.24"/><polygon class="cls-3" points="326.84 226.48 332.24 246.59 343.22 246.58 352.72 241.1 347.33 220.97 332.33 205.97 326.84 226.48"/><polygon class="cls-3" points="276.05 108.29 266.53 113.79 261.05 123.29 275.79 138.03 296.33 143.54 290.78 123 276.05 108.29"/><polygon class="cls-3" points="335.87 192.77 334.74 196.99 343.16 205.4 340.07 193.89 335.87 192.77"/><polygon class="cls-3" points="251.49 199.97 271.62 194.57 286.66 179.54 266.1 174.08 246 179.47 246 190.47 251.49 199.97"/><path class="cls-3" d="M252.58,218l-1.2-2.08a1,1,0,0,1,.16-1.25l8.68-8.68-11.85,3.18-.27,0a1,1,0,0,1-.9-.51l-1.2-2.09v7.6Z"/><path class="cls-3" d="M368.14,241.35a1,1,0,0,1-.73-.3l-8.68-8.68,3.17,11.86a1,1,0,0,1-.48,1.16l-2.06,1.19H367l3.76-6.58-2.1,1.21A1,1,0,0,1,368.14,241.35Z"/><polygon class="cls-3" points="245.99 160.34 266.13 165.74 286.61 160.25 271.6 145.24 251.48 139.86 246 149.38 245.99 160.34"/><path class="cls-3" d="M246,133.24l1.2-2.08a1,1,0,0,1,.89-.51,1.24,1.24,0,0,1,.27,0l11.86,3.18-8.68-8.68a1,1,0,0,1-.16-1.25l1.2-2.08-6.58,3.8Z"/><path class="cls-3" d="M258.8,92.26l-4.32-7.48L246,99.43v16.89l14.64-8.46,8.42-14.61h-8.82l-.25,0a1.24,1.24,0,0,1-.33,0,1,1,0,0,1-.9-1Z"/><polygon class="cls-3" points="358.15 335.81 346.61 338.9 345.52 343.1 349.73 344.23 358.15 335.81"/><path class="cls-3" d="M362.28,458l-4.44-7.67a1.66,1.66,0,0,1-.16-.21,1.1,1.1,0,0,1-.14-.8,1.12,1.12,0,0,1,.12-.35,1.08,1.08,0,0,1,.18-.24l4.43-7.68H345.36l-14.69,8.49L345.33,458Z"/><polygon class="cls-3" points="349.01 196.29 354.56 216.82 369.29 231.53 378.81 226.03 384.29 216.53 369.55 201.79 349.01 196.29"/><polygon class="cls-3" points="358.15 522.2 346.66 525.28 345.53 529.49 349.73 530.62 358.15 522.2"/><path class="cls-3" d="M330.67,263.14l14.66,8.43h16.95l-4.44-7.67a1.12,1.12,0,0,1-.16-.22,1.06,1.06,0,0,1-.13-.84.79.79,0,0,1,.11-.3,1.08,1.08,0,0,1,.18-.24l4.43-7.67H345.36Z"/><path class="cls-3" d="M399.35,393l-1.2,2.08a1,1,0,0,1-.9.52,1.26,1.26,0,0,1-.27,0l-11.86-3.18L393.8,401a1,1,0,0,1,.17,1.25l-1.21,2.08,6.59-3.8Z"/><polygon class="cls-3" points="384.29 496.06 378.8 486.55 369.3 481.07 354.56 495.81 349.07 516.29 369.58 510.79 384.29 496.06"/><path class="cls-3" d="M390.86,271.14l-4.31,7.47a1.07,1.07,0,0,1-.14.52,1.05,1.05,0,0,1-.86.52l-.2,0-.23,0h-8.87l8.46,14.65,14.64,8.44-.05-17Z"/><path class="cls-3" d="M399.3,409.89l-14.61,8.44L376.24,433h8.64a1,1,0,0,1,1.06.09,1.12,1.12,0,0,1,.47.42,1.17,1.17,0,0,1,.13.45l4.32,7.48,8.45-14.65Z"/><polygon class="cls-3" points="345.53 183.1 346.65 187.31 358.15 190.4 349.7 181.95 345.53 183.1"/><path class="cls-3" d="M246,675.48,260.68,667l8.42-14.61h-8.82a1.07,1.07,0,0,1-.25,0,1.12,1.12,0,0,1-.32,0,1,1,0,0,1-.77-.5.92.92,0,0,1-.14-.48l-4.32-7.49L246,658.59Z"/><path class="cls-3" d="M254.48,627.81l4.31-7.48a1.16,1.16,0,0,1,.14-.47,1.42,1.42,0,0,1,1.05-.56,1.66,1.66,0,0,1,.33,0h8.79l-8.46-14.65L246,596.28v16.93Z"/><path class="cls-3" d="M260.22,578.75l-11.85,3.17a.93.93,0,0,1-.27,0,1,1,0,0,1-.9-.52l-1.2-2.08V587l6.58,3.79-1.2-2.07a1,1,0,0,1,.16-1.25Z"/><polygon class="cls-3" points="263.97 627.4 259.1 635.92 264.05 644.4 273.82 644.36 278.68 635.84 273.73 627.36 263.97 627.4"/><path class="cls-3" d="M286,652.41h-7.62L274.59,659l2.1-1.21a1,1,0,0,1,1.25.16l8.67,8.68-3.17-11.85a1,1,0,0,1,.48-1.17Z"/><polygon class="cls-3" points="299.81 529.5 298.69 525.29 287.19 522.21 295.64 530.65 299.81 529.5"/><polygon class="cls-3" points="296.27 569.09 275.77 574.58 261.05 589.31 266.55 598.82 276.05 604.31 290.78 589.57 296.27 569.09"/><polygon class="cls-3" points="293.2 545.77 296.28 542.69 293.19 539.61 281.7 542.69 293.2 545.77"/><polygon class="cls-3" points="299.82 555.89 295.61 554.76 287.19 563.17 298.73 560.08 299.82 555.89"/><path class="cls-3" d="M277.93,613.82a1,1,0,0,1-.73.3,1,1,0,0,1-.52-.14l-2.06-1.19,3.82,6.61,7.57,0-2.09-1.21a1,1,0,0,1-.48-1.17l3.17-11.85Z"/><polygon class="cls-3" points="309.47 333.44 310.6 329.23 302.19 320.81 305.27 332.32 309.47 333.44"/><polygon class="cls-3" points="299.81 343.11 298.69 338.9 287.19 335.82 295.64 344.27 299.81 343.11"/><polygon class="cls-3" points="318.5 299.73 313.1 279.63 302.12 279.63 292.62 285.11 298.01 305.24 313.01 320.24 318.5 299.73"/><polygon class="cls-3" points="296.33 329.93 290.78 309.39 276.05 294.68 266.55 300.17 261.05 309.68 275.79 324.42 296.33 329.93"/><polygon class="cls-3" points="302.12 466.02 292.62 471.5 298.01 491.63 313.01 506.63 318.5 486.12 313.1 466.01 302.12 466.02"/><polygon class="cls-3" points="319.59 385.77 322.68 397.27 325.75 385.78 322.67 382.7 319.59 385.77"/><path class="cls-3" d="M254.48,255l4.31-7.48a1.16,1.16,0,0,1,.14-.48,1,1,0,0,1,.76-.5.74.74,0,0,1,.29-.05,1.08,1.08,0,0,1,.32,0h8.8l-8.46-14.64L246,223.51v16.92Z"/><path class="cls-3" d="M318.41,458h.08a1,1,0,0,1,1,.77l3.18,11.86,3.17-11.86a1.06,1.06,0,0,1,1-.77h2.41l-6.63-3.83L316.06,458Z"/><path class="cls-3" d="M316.09,441l6.59,3.8,6.57-3.79h-2.4a1,1,0,0,1-1-.77l-3.18-11.86-3.17,11.86a1,1,0,0,1-1,.76Z"/><path class="cls-3" d="M390.86,457.53,386.55,465a1.07,1.07,0,0,1-.14.52,1,1,0,0,1-.86.51l-.2,0a.85.85,0,0,1-.23,0h-8.88l8.47,14.65,14.61,8.42,0-17Z"/><polygon class="cls-3" points="261.05 216.54 266.55 226.05 276.05 231.53 290.78 216.79 296.27 196.31 275.77 201.81 261.05 216.54"/><polygon class="cls-3" points="352.73 285.12 343.23 279.63 332.23 279.63 326.84 299.76 332.34 320.3 347.35 305.23 352.73 285.12"/><polygon class="cls-3" points="335.87 379.15 334.74 383.37 343.16 391.79 340.07 380.28 335.87 379.15"/><path class="cls-3" d="M326.84,271.57h2.41l-6.63-3.83-6.56,3.82h2.43a1,1,0,0,1,1,.77l3.18,11.86,3.17-11.86A1,1,0,0,1,326.84,271.57Z"/><polygon class="cls-3" points="299.81 183.11 295.55 181.97 287.17 190.41 298.68 187.32 299.81 183.11"/><polygon class="cls-3" points="299.81 156.72 298.69 152.51 287.19 149.43 295.64 157.88 299.81 156.72"/><polygon class="cls-3" points="326.84 412.87 332.24 432.98 343.22 432.97 352.72 427.49 347.33 407.36 332.33 392.36 326.84 412.87"/><polygon class="cls-3" points="293.2 172.99 296.28 169.92 293.19 166.83 281.7 169.91 293.2 172.99"/><polygon class="cls-3" points="322.67 329.91 325.75 326.83 322.67 315.33 319.58 326.87 322.67 329.91"/><polygon class="cls-3" points="340.08 332.31 343.16 320.81 334.74 329.24 335.86 333.44 340.08 332.31"/><polygon class="cls-3" points="334.74 569.76 343.16 578.17 340.07 566.66 335.87 565.54 334.74 569.76"/><path class="cls-3" d="M343.18,537.17l-6.51-1.71a1,1,0,0,1-.74-1.27l1.74-6.5-6.51,1.74a1.27,1.27,0,0,1-.26,0,1,1,0,0,1-1-.77l-1.74-6.49L323.4,527a1,1,0,0,1-.73.3,1,1,0,0,1-.73-.3l-4.76-4.76-1.74,6.51a1,1,0,0,1-1,.76l-.27,0-6.49-1.74,1.74,6.49a1,1,0,0,1-.73,1.26l-6.55,1.76,4.8,4.75a1,1,0,0,1,.31.73,1,1,0,0,1-.31.73l-4.75,4.76,6.49,1.74a1,1,0,0,1,.73,1.26l-1.75,6.55,6.51-1.78a.9.9,0,0,1,.28,0,1,1,0,0,1,.51.14,1,1,0,0,1,.48.63l1.74,6.49,4.76-4.75a1,1,0,0,1,.73-.31,1,1,0,0,1,.73.31l4.76,4.76,1.75-6.51a1,1,0,0,1,1-.76,1.09,1.09,0,0,1,.26,0l6.51,1.74-1.74-6.49a1,1,0,0,1,.73-1.27l6.5-1.74-4.76-4.77a1,1,0,0,1,0-1.46Z"/><polygon class="cls-3" points="352.73 471.5 343.23 466.02 332.23 466.02 326.84 486.15 332.34 506.69 347.35 491.62 352.73 471.5"/><polygon class="cls-3" points="246 522.15 245.99 533.12 266.13 538.51 286.61 533.02 271.6 518.01 251.48 512.64 246 522.15"/><polygon class="cls-3" points="319.59 572.16 322.68 583.66 325.75 572.17 322.67 569.08 319.59 572.16"/><polygon class="cls-3" points="343.16 507.2 334.74 515.63 335.86 519.83 340.08 518.7 343.16 507.2"/><polygon class="cls-3" points="325.75 513.22 322.67 501.72 319.58 513.26 322.67 516.3 325.75 513.22"/><polygon class="cls-3" points="310.6 515.62 302.19 507.2 305.28 518.76 309.47 519.84 310.6 515.62"/><polygon class="cls-3" points="302.18 578.17 310.61 569.75 309.48 565.55 305.26 566.68 302.18 578.17"/><polygon class="cls-3" points="384.29 402.92 369.53 388.16 349.06 382.68 354.56 403.21 369.29 417.92 378.81 412.42 384.29 402.92"/><polygon class="cls-3" points="386.24 263.03 381.31 254.58 371.53 254.63 366.66 263.15 371.61 271.63 381.35 271.59 386.24 263.03"/><path class="cls-3" d="M359.36,433H367l3.76-6.57-2.1,1.21a1,1,0,0,1-.51.14,1,1,0,0,1-.74-.31l-8.67-8.68,3.17,11.86a1,1,0,0,1-.48,1.16Z"/><polygon class="cls-3" points="346.65 373.7 358.15 376.78 349.7 368.33 345.53 369.49 346.65 373.7"/><path class="cls-3" d="M277.93,241.05a1,1,0,0,1-.73.3,1,1,0,0,1-.51-.14L274.62,240l3.82,6.6,7.58,0-2.1-1.21a1,1,0,0,1-.48-1.16l3.17-11.85Z"/><polygon class="cls-3" points="399.35 376.84 399.35 365.87 379.21 360.48 358.73 365.96 373.75 380.97 393.86 386.35 399.35 376.84"/><polygon class="cls-3" points="369.3 294.68 354.56 309.42 349.07 329.9 369.58 324.41 384.29 309.67 378.8 300.17 369.3 294.68"/><path class="cls-3" d="M367.41,285.17a1,1,0,0,1,.73-.31,1.07,1.07,0,0,1,.52.14l2.06,1.19-3.81-6.6-7.59,0,2.1,1.21a1,1,0,0,1,.49,1.16l-3.18,11.86Z"/><path class="cls-3" d="M367.41,471.56a1,1,0,0,1,.73-.31,1.07,1.07,0,0,1,.52.14l2.06,1.19-3.81-6.6-7.59,0,2.1,1.21a1,1,0,0,1,.49,1.16l-3.18,11.85Z"/><polygon class="cls-3" points="363.65 356.3 352.14 353.22 349.07 356.3 352.15 359.38 363.65 356.3"/><polygon class="cls-3" points="381.35 457.98 386.24 449.42 381.31 440.97 371.53 441.02 366.66 449.54 371.61 458.02 381.35 457.98"/><path class="cls-3" d="M314.64,263.1,300,254.64H283.07l4.43,7.67a.83.83,0,0,1,.16.21,1,1,0,0,1,.14.8,1,1,0,0,1-.12.35,1.08,1.08,0,0,1-.18.24L283,271.62l16.94-.05Z"/><polygon class="cls-3" points="313.02 205.96 297.99 220.99 292.62 241.1 302.14 246.59 313.11 246.59 318.51 226.42 313.02 205.96"/><path class="cls-3" d="M277.21,284.87a1,1,0,0,1,.73.3l8.67,8.68L283.44,282a1,1,0,0,1,.48-1.16l2.06-1.2h-7.62l-3.77,6.57,2.1-1.21A1.06,1.06,0,0,1,277.21,284.87Z"/><polygon class="cls-3" points="259.1 263.15 264.05 271.63 273.82 271.58 278.68 263.06 273.73 254.58 263.97 254.63 259.1 263.15"/><path class="cls-3" d="M385.12,320.24,397,317.06a1.09,1.09,0,0,1,.26,0,1,1,0,0,1,.9.52l1.2,2.08V312l-6.59-3.77,1.22,2.11a1,1,0,0,1-.17,1.25Z"/><polygon class="cls-3" points="325.75 199.39 322.67 196.31 319.59 199.38 322.68 210.88 325.75 199.39"/><polygon class="cls-3" points="305.26 193.9 302.18 205.4 310.61 196.97 309.48 192.77 305.26 193.9"/><polygon class="cls-3" points="358.68 346.68 379.24 352.14 399.35 346.74 399.34 335.77 393.85 326.25 373.72 331.64 358.68 346.68"/><path class="cls-3" d="M318.5,254.65h-2.41l6.58,3.79,6.58-3.79h-2.4a1,1,0,0,1-1-.77L322.67,242l-3.17,11.86A1,1,0,0,1,318.5,254.65Z"/><polygon class="cls-3" points="620.71 221 615.34 241.1 624.87 246.6 635.83 246.59 641.23 226.43 635.72 205.92 620.71 221"/><polygon class="cls-3" points="532.89 347.8 528.02 356.32 532.98 364.8 542.69 364.76 547.6 356.26 542.63 347.75 532.89 347.8"/><path class="cls-3" d="M546.06,325.11l-8.46,14.63h8.88a.68.68,0,0,1,.2,0,.86.86,0,0,1,.23,0,1,1,0,0,1,.86.51,1.07,1.07,0,0,1,.14.52l4.34,7.52,8.42-14.7V316.68Z"/><polygon class="cls-3" points="515.92 402.59 510.43 423.07 530.94 417.57 545.65 402.84 540.16 393.33 530.66 387.85 515.92 402.59"/><path class="cls-3" d="M582.75,279.67a.86.86,0,0,1-.23,0,1,1,0,0,1-.86-.51,1.07,1.07,0,0,1-.14-.52l-4.31-7.47-8.45,14.65v16.91l14.63-8.45,8.43-14.61H583A.68.68,0,0,1,582.75,279.67Z"/><path class="cls-3" d="M568,452.65a1,1,0,0,1,.76,1V456l3.81-6.61-3.81-6.55v2.43a1,1,0,0,1-.77,1l-11.85,3.18Z"/><polygon class="cls-3" points="662.78 566.63 658.6 565.54 657.47 569.77 665.88 578.18 662.78 566.63"/><path class="cls-3" d="M568.77,269.64l3.79-6.56-3.79-6.56v2.39a1.06,1.06,0,0,1-.77,1l-11.85,3.17L568,266.26a1,1,0,0,1,.76,1Z"/><path class="cls-3" d="M574.1,310.33l1.2-2.08-6.58,3.8v7.59l1.2-2.08a1,1,0,0,1,.89-.52,1.26,1.26,0,0,1,.28,0l11.85,3.18-8.68-8.68A1,1,0,0,1,574.1,310.33Z"/><polygon class="cls-3" points="648.49 12.96 645.4 9.92 642.32 13.01 645.4 24.5 648.49 12.96"/><path class="cls-3" d="M559.51,301.83a1,1,0,0,1-.9.52,1.09,1.09,0,0,1-.26,0l-11.86-3.18,8.68,8.68a1,1,0,0,1,.16,1.25l-1.2,2.08,6.58-3.8v-7.59Z"/><polygon class="cls-3" points="520.04 439.84 540.61 445.31 560.71 439.9 560.71 428.91 555.22 419.41 535.06 424.81 520.04 439.84"/><polygon class="cls-3" points="632.2 565.56 627.98 566.69 624.9 578.18 633.33 569.76 632.2 565.56"/><polygon class="cls-3" points="615.34 613.88 624.84 619.36 635.83 619.37 641.23 599.21 635.72 578.69 620.71 593.77 615.34 613.88"/><path class="cls-3" d="M638.82,68.27l6.58,3.8,6.57-3.8h-2.4a1,1,0,0,1-1-.76L645.4,55.65,642.22,67.5a1,1,0,0,1-1,.77Z"/><polygon class="cls-3" points="665.95 619.37 675.45 613.89 670.05 593.75 655.02 578.72 649.56 599.26 654.97 619.37 665.95 619.37"/><polygon class="cls-3" points="648.49 572.13 645.4 569.09 642.32 572.17 645.4 583.67 648.49 572.13"/><path class="cls-3" d="M638.82,627.43l6.58,3.8,6.57-3.8h-2.4a1,1,0,0,1-1-.76l-3.17-11.86-3.18,11.86a1,1,0,0,1-1,.76Z"/><polygon class="cls-3" points="246 563.25 251.49 572.74 271.65 567.34 286.63 552.35 266.1 546.85 246 552.25 246 563.25"/><polygon class="cls-3" points="609.91 563.18 621.46 560.09 622.54 555.89 618.33 554.77 609.91 563.18"/><polygon class="cls-3" points="583.78 496.08 598.51 510.82 619.05 516.32 613.5 495.79 598.77 481.08 589.28 486.56 583.78 496.08"/><polygon class="cls-3" points="618.36 530.66 622.54 529.5 621.41 525.3 609.91 522.21 618.36 530.66"/><path class="cls-3" d="M568.77,489.1l14.6-8.44L591.83,466H583l-.2,0-.23,0a1,1,0,0,1-.86-.51,1.07,1.07,0,0,1-.14-.52l-4.31-7.47-8.45,14.65Z"/><polygon class="cls-3" points="692.01 45.15 701.54 39.65 707.01 30.15 692.25 15.39 671.73 9.9 677.28 30.45 692.01 45.15"/><path class="cls-3" d="M715.47,121.82l1.22,2.11a1,1,0,0,1-.16,1.25l-8.69,8.68,11.86-3.17a.84.84,0,0,1,.27,0,1,1,0,0,1,.89.52l1.21,2.08V125.6Z"/><polygon class="cls-3" points="692.02 108.3 677.28 123.04 671.79 143.52 692.3 138.03 707.01 123.3 701.52 113.79 692.02 108.3"/><polygon class="cls-3" points="671.79 169.92 674.88 173 686.37 169.92 674.87 166.84 671.79 169.92"/><polygon class="cls-3" points="662.8 7.51 658.6 6.39 657.47 10.61 665.88 19.02 662.8 7.51"/><polygon class="cls-3" points="596.45 254.59 586.68 254.63 581.83 263.13 586.79 271.64 596.54 271.59 601.41 263.07 596.45 254.59"/><polygon class="cls-3" points="665.95 60.21 675.45 54.72 670.05 34.59 655.06 19.6 649.56 40.1 654.97 60.21 665.95 60.21"/><path class="cls-3" d="M713.58,84.76l-4.31,7.48a1,1,0,0,1-.13.51,1.06,1.06,0,0,1-.86.52l-.21,0-.23,0H699l8.46,14.64,14.65,8.44,0-16.91Z"/><path class="cls-3" d="M722,70.14l-3.78,6.56L722,83.27V80.88a1,1,0,0,1,.77-1l11.85-3.18-11.86-3.18a1,1,0,0,1-.76-1Z"/><path class="cls-3" d="M731.28,38a1,1,0,0,1,.9-.51l.27,0,11.86,3.18L735.63,32a1,1,0,0,1-.17-1.25l1.21-2.08-6.59,3.8V40Z"/><path class="cls-3" d="M716.69,29.51l-1.2,2.09,6.58-3.8V20.2l-1.2,2.08a1,1,0,0,1-.9.52.84.84,0,0,1-.27,0l-11.85-3.17,8.68,8.68A1,1,0,0,1,716.69,29.51Z"/><polygon class="cls-3" points="598.49 201.81 583.78 216.55 589.27 226.06 598.77 231.54 613.51 216.8 618.99 196.32 598.49 201.81"/><polygon class="cls-3" points="668.25 183.11 669.38 187.32 680.88 190.4 672.43 181.96 668.25 183.11"/><path class="cls-3" d="M597.32,286.22l2.09-1.21a1.07,1.07,0,0,1,.52-.14,1,1,0,0,1,.73.31l8.68,8.67L606.16,282a1.05,1.05,0,0,1,.48-1.17l2.07-1.19h-7.63Z"/><polygon class="cls-3" points="632.2 6.39 627.98 7.53 624.9 19.02 633.33 10.6 632.2 6.39"/><path class="cls-3" d="M600.65,241.06a1,1,0,0,1-.73.3,1,1,0,0,1-.51-.14L597.34,240l3.82,6.6,7.58,0-2.1-1.21a1,1,0,0,1-.48-1.16l3.18-11.85Z"/><path class="cls-3" d="M661.12,169.19l4.76-4.76-6.5-1.74a1,1,0,0,1-.73-1.26l1.74-6.51-6.51,1.74a.75.75,0,0,1-.26,0,1.07,1.07,0,0,1-.52-.14,1,1,0,0,1-.48-.62l-1.74-6.5-4.75,4.75a1,1,0,0,1-.73.31,1,1,0,0,1-.73-.31l-4.77-4.76-1.74,6.51a1,1,0,0,1-1,.76,1.24,1.24,0,0,1-.27,0l-6.54-1.75,1.79,6.5a1.06,1.06,0,0,1-.1.78,1,1,0,0,1-.63.49l-6.51,1.74,4.77,4.77a1,1,0,0,1,.3.73,1.06,1.06,0,0,1-.3.73l-4.76,4.75,6.5,1.74a1,1,0,0,1,.73,1.27l-1.75,6.5,6.51-1.74a.84.84,0,0,1,.27,0,1,1,0,0,1,1,.77l1.74,6.49,4.75-4.75a1.06,1.06,0,0,1,.73-.3,1,1,0,0,1,.73.3l4.77,4.76,1.74-6.51a1,1,0,0,1,1-.76l.27,0,6.49,1.74-1.74-6.49a1,1,0,0,1,.73-1.26l6.51-1.75-4.77-4.76A1,1,0,0,1,661.12,169.19Z"/><polygon class="cls-3" points="627.98 193.91 624.9 205.41 633.33 196.98 632.2 192.78 627.98 193.91"/><path class="cls-3" d="M707.6,60.19a1,1,0,0,1,.46-.1,1.07,1.07,0,0,1,.6.19,1,1,0,0,1,.47.43.94.94,0,0,1,.13.44l4.35,7.53L722,54V37.13l-14.64,8.45L699,60.19Z"/><polygon class="cls-3" points="642.32 199.39 645.4 210.89 648.48 199.4 645.39 196.32 642.32 199.39"/><polygon class="cls-3" points="658.6 192.78 657.47 196.99 665.88 205.41 662.8 193.9 658.6 192.78"/><polygon class="cls-3" points="399.35 533.12 399.34 522.15 393.85 512.63 373.72 518.03 358.68 533.06 379.24 538.53 399.35 533.12"/><path class="cls-3" d="M400.06,452.64l11.86-3.17-11.86-3.18a1,1,0,0,1-.76-1v-2.38l-3.79,6.56L399.3,456v-2.39A1,1,0,0,1,400.06,452.64Z"/><polygon class="cls-3" points="519.51 615.37 507.97 618.46 506.89 622.66 511.1 623.79 519.51 615.37"/><path class="cls-3" d="M415.84,534.63l4.32-7.48a1,1,0,0,1,.13-.51,1.06,1.06,0,0,1,.86-.52l.21,0,.23,0h8.87L422,511.48,407.36,503l0,17Z"/><polygon class="cls-3" points="474.38 485.52 459.35 500.55 453.98 520.65 463.48 526.14 474.47 526.14 479.87 505.98 474.38 485.52"/><path class="cls-3" d="M476,542.63l-14.74-8.45H444.38l4.48,7.68a.87.87,0,0,1,.17.21,1.11,1.11,0,0,1,.12.86.66.66,0,0,1-.11.29,1.18,1.18,0,0,1-.17.24l-4.44,7.67h16.92Z"/><polygon class="cls-3" points="345.53 555.89 346.65 560.09 358.15 563.17 349.74 554.76 345.53 555.89"/><polygon class="cls-3" points="435.18 551.14 440.05 542.62 435.12 534.18 425.35 534.18 420.47 542.74 425.39 551.19 435.18 551.14"/><path class="cls-3" d="M438.57,564.42a1,1,0,0,1,.73.3L448,573.4l-3.18-11.85a1,1,0,0,1,.49-1.17l2.06-1.19h-7.63L436,565.77l2.1-1.21A1.07,1.07,0,0,1,438.57,564.42Z"/><polygon class="cls-3" points="352.14 539.61 349.07 542.68 352.15 545.77 363.65 542.69 352.14 539.61"/><polygon class="cls-3" points="298.69 711.67 287.19 708.59 295.64 717.04 299.81 715.88 298.69 711.67"/><path class="cls-3" d="M653.39,635.92l14.74,8.45H685l-4.43-7.67a1.06,1.06,0,0,1-.17-.2,1.14,1.14,0,0,1-.14-.81.92.92,0,0,1,.12-.34,1.08,1.08,0,0,1,.18-.24l4.43-7.68H668.08Z"/><polygon class="cls-3" points="286.61 719.41 271.6 704.4 251.48 699.03 246 708.54 245.99 719.51 266.13 724.9 286.61 719.41"/><path class="cls-3" d="M247.2,690.33a1,1,0,0,1,.89-.52,1.15,1.15,0,0,1,.26,0L260.22,693l-8.68-8.68a1,1,0,0,1-.17-1.24l1.21-2.09L246,684.82v7.59Z"/><polygon class="cls-3" points="313.02 578.74 297.99 593.76 292.62 613.87 302.12 619.36 313.11 619.36 318.51 599.2 313.02 578.74"/><path class="cls-3" d="M329.25,627.42h-2.4a1,1,0,0,1-1-.77l-3.18-11.86-3.17,11.86a1,1,0,0,1-1,.76h-2.41l6.59,3.8Z"/><polygon class="cls-3" points="343.23 619.36 352.72 613.88 347.33 593.74 332.33 578.75 326.84 599.26 332.24 619.36 343.23 619.36"/><polygon class="cls-3" points="276.05 667.46 266.53 672.96 261.05 682.46 275.79 697.2 296.33 702.7 290.78 682.17 276.05 667.46"/><path class="cls-3" d="M314.67,635.85,300,627.42H283.07l4.43,7.67a.83.83,0,0,1,.16.21,1,1,0,0,1,.14.8,1,1,0,0,1-.12.35,1.08,1.08,0,0,1-.18.24L283,644.4l16.94-.06Z"/><polygon class="cls-3" points="296.28 729.08 293.19 725.99 281.7 729.07 293.2 732.16 296.28 729.08"/><path class="cls-3" d="M690.13,658a1.06,1.06,0,0,1,.73-.3,1,1,0,0,1,.52.14l2.06,1.19-3.81-6.61-7.58,0,2.1,1.21a1,1,0,0,1,.48,1.16l-3.18,11.85Z"/><path class="cls-3" d="M569.92,690.34a1,1,0,0,1,.89-.52,1.09,1.09,0,0,1,.26,0L582.94,693l-8.68-8.68a1,1,0,0,1-.16-1.24l1.2-2.09-6.59,3.81v7.59Z"/><polygon class="cls-3" points="707.01 682.46 701.52 672.95 692.02 667.46 677.28 682.2 671.79 702.68 692.3 697.19 707.01 682.46"/><polygon class="cls-3" points="619.01 729.1 615.91 726 604.42 729.08 615.98 732.18 619.01 729.1"/><polygon class="cls-3" points="621.41 711.68 609.91 708.6 618.32 717.01 622.53 715.88 621.41 711.68"/><path class="cls-3" d="M716.69,683.1a1,1,0,0,1-.16,1.24L707.84,693l11.86-3.18a.84.84,0,0,1,.27,0,1,1,0,0,1,.89.52l1.21,2.09v-7.66L715.47,681Z"/><polygon class="cls-3" points="694.31 644.37 704.08 644.37 708.96 635.82 704.03 627.37 694.25 627.41 689.41 635.88 694.31 644.37"/><path class="cls-3" d="M684.15,618.17l-2.07,1.19h7.63l3.76-6.58L691.38,614a1.07,1.07,0,0,1-.52.14,1,1,0,0,1-.73-.3l-8.68-8.68L684.63,617A1,1,0,0,1,684.15,618.17Z"/><path class="cls-3" d="M708.27,652.43a.71.71,0,0,1-.2,0l-.22,0H699l8.46,14.64,14.62,8.43V658.58l-8.46-14.65-4.31,7.47a1,1,0,0,1-.14.52A1,1,0,0,1,708.27,652.43Z"/><polygon class="cls-3" points="609.33 719.42 594.32 704.41 574.21 699.04 568.72 708.55 568.72 719.52 588.85 724.91 609.33 719.42"/><path class="cls-3" d="M560.71,672.52l-1.2,2.09a1,1,0,0,1-.9.51,1.07,1.07,0,0,1-.25,0l-11.87-3.18,8.68,8.68a1,1,0,0,1,.16,1.25l-1.2,2.08,6.58-3.81Z"/><path class="cls-3" d="M568.77,640v2.39l3.81-6.61-3.81-6.55v2.42a1,1,0,0,1-.77,1l-11.85,3.18L568,639A1,1,0,0,1,568.77,640Z"/><path class="cls-3" d="M546.68,712.49a.85.85,0,0,1,.23,0,1,1,0,0,1,1,1l4.34,7.52,8.42-14.69V689.45l-14.6,8.44-8.46,14.63h8.88Z"/><polygon class="cls-3" points="519.52 656.34 511.11 647.93 506.89 649.06 508.02 653.26 519.52 656.34"/><path class="cls-4" d="M642.22,253.89l0-.12-.48.7A1,1,0,0,0,642.22,253.89Z"/><polygon class="cls-3" points="802.46 19.67 813.66 3.31 807.1 3.31 806.75 4.59 806.41 3.31 798.07 3.31 802.46 19.67"/></g></g></svg>