<svg xmlns="http://www.w3.org/2000/svg" width="359" height="701" fill="none" viewBox="0 0 359 701">
  <mask id="a" width="359" height="701" x="0" y="0" maskUnits="userSpaceOnUse" style="mask-type:alpha">
    <path fill="#eaeaea" d="M0 0h358.736v701H0z"/>
  </mask>
  <g mask="url(#a)">
    <path fill="#DCDCDC" d="m174.215 57.017 3.884 6.734c.055.057.105.119.149.184.129.213.17.468.114.711a.903.903 0 0 1-.105.308 1.73 1.73 0 0 1-.15.202l-3.91 6.778h14.852l12.871-7.454-12.915-7.42-14.79-.043Zm-16.701 0-4.305 7.454 4.349 7.472 8.548-.044 4.27-7.472-4.349-7.454-8.513.044Zm19.858 97.72-18.034-4.794-17.623 4.742v9.631l4.814 8.359 17.675-4.75 13.168-13.188Zm-35.657-16.857 17.649 4.741 17.956-4.82-13.16-13.178-17.631-4.724-4.814 8.35v9.631Zm7.442 83.102 3.779-6.559a.892.892 0 0 1 .105-.368.881.881 0 0 1 .763-.483h8.163l-7.418-12.854-12.8-7.393v14.829l7.408 12.828Zm-14.51-78.369v-2.09l-3.349 5.83 3.349 5.751v-2.134a.878.878 0 0 1 .667-.878l10.398-2.792-10.398-2.792a.876.876 0 0 1-.667-.895Zm35.061-97.519a.883.883 0 0 1-.64.263.879.879 0 0 1-.448-.123l-1.814-1.045 3.322 5.751h6.646l-1.815-1.045a.884.884 0 0 1-.421-1.018l2.78-10.396-7.61 7.613Zm16.089 101.197-2.709-2.713-10.074 2.704 10.083 2.705 2.7-2.696Zm-79.108 182.982a.875.875 0 0 1 1.096-.149l1.815 1.044-3.323-5.751h-6.655l1.824 1.045a.88.88 0 0 1 .421 1.019l-2.788 10.395 7.61-7.603ZM152.936 78.08l-3.779-6.567-7.408 12.862v14.856l12.827-7.42 7.391-12.835h-7.909a.735.735 0 0 1-.201 0 .875.875 0 0 1-.877-.878l-.044-.018Zm35.963 79.792-3.691-.993-7.373 7.393 10.118-2.713.946-3.687Zm-.008-23.179-.982-3.688-10.082-2.704 7.373 7.384 3.691-.992Zm-47.176-20.607 1.052-1.826a.881.881 0 0 1 .781-.448.932.932 0 0 1 .236 0l10.399 2.792-7.61-7.621a.879.879 0 0 1-.141-1.098l1.052-1.826-5.769 3.336v6.691Zm12.521 63.874-10.398 2.792a1.044 1.044 0 0 1-.237 0 .873.873 0 0 1-.78-.447l-1.061-1.835v6.672l5.769 3.337-1.052-1.826a.879.879 0 0 1 .14-1.098l7.619-7.595Zm22.539-98.984h-6.69l-3.305 5.777 1.841-1.071a.93.93 0 0 1 .456-.115.874.874 0 0 1 .64.264l7.61 7.62-2.788-10.412a.874.874 0 0 1 .421-1.019l1.815-1.044Zm-21.857 26.374 12.914 12.942 17.965 4.82-4.822-18.017L168.06 92.18 159.731 97l-4.813 8.35Zm30.879 368.231-2.709-2.705-10.074 2.705 10.091 2.704 2.692-2.704Zm-17.982 27.999-12.897 12.932 4.813 8.35 8.329 4.82 12.923-12.941 4.805-17.982-17.973 4.821Zm-21.286-54.383-4.814 8.349v9.632l17.649 4.732 17.956-4.82-13.16-13.178-17.631-4.715Zm-4.814 34.777v9.632l4.814 8.358 17.675-4.741 13.133-13.161-17.999-4.829-17.623 4.741Zm-7.067-12.064v-2.089l-3.323 5.751 3.323 5.768v-2.098a.879.879 0 0 1 .675-.878l10.39-2.784-10.399-2.792a.88.88 0 0 1-.666-.878Zm-74.393-66.578a.877.877 0 0 1 .877.668l1.525 5.707 4.165-4.171a.889.889 0 0 1 1.28 0l4.208 4.206 1.5-5.734a.884.884 0 0 1 .42-.553.88.88 0 0 1 .456-.123h.228l5.7 1.528-1.526-5.645a.881.881 0 0 1 .315-.965.87.87 0 0 1 .325-.15l5.742-1.537-4.208-4.17a.877.877 0 0 1-.272-.641c0-.243.095-.476.263-.65l4.173-4.17-5.698-1.528a.87.87 0 0 1-.563-.418.882.882 0 0 1-.077-.697l1.543-5.751-5.717 1.572a1.17 1.17 0 0 1-.236 0 .89.89 0 0 1-.448-.123.94.94 0 0 1-.43-.554l-1.534-5.742-4.155 4.215a.872.872 0 0 1-.64.263.873.873 0 0 1-.64-.263l-4.182-4.153-1.526 5.707a.876.876 0 0 1-.42.553.88.88 0 0 1-.457.123h-.228l-5.698-1.528 1.525 5.698a.884.884 0 0 1-.318.957.892.892 0 0 1-.322.15l-5.707 1.51 4.182 4.179a.931.931 0 0 1 .197.988.868.868 0 0 1-.197.294l-4.174 4.197 5.7 1.527a.892.892 0 0 1 .558.415.885.885 0 0 1 .081.692l-1.56 5.68 5.707-1.536.263-.027Zm74.436 133.982-4.813-8.333-17.658 4.742-13.177 13.196 18.026 4.794 17.622-4.741v-9.658ZM90.61 555.365l2.709 2.713 10.073-2.704-10.091-2.713-2.692 2.704Zm39.268 26.393 4.813-8.358v-9.632l-17.648-4.732-17.956 4.82 13.16 13.178 17.631 4.724Zm55.919 32.302-4.822-18.026-12.915-12.906-8.329 4.811-4.813 8.359 12.932 12.959 17.947 4.803Zm-31.561-108.819-10.398 2.783a.785.785 0 0 1-.237 0 .875.875 0 0 1-.78-.457l-1.061-1.826v6.734l5.786 3.31-1.069-1.843a.879.879 0 0 1 .14-1.098l7.619-7.603Zm-5.079 43.056 3.77-6.549a.88.88 0 0 1 .877-.878h8.163l-7.418-12.854-12.8-7.393v14.838l7.408 12.836Zm-1.673-116.922-5.778 3.345v6.638l1.052-1.826a.882.882 0 0 1 .78-.457.966.966 0 0 1 .228 0l10.407 2.792-7.601-7.533a.88.88 0 0 1-.14-1.089l1.052-1.87Zm54.436 123.999-12.915-7.419h-14.834l3.928 6.734c.054.06.104.125.149.193a.945.945 0 0 1 .114.711.809.809 0 0 1-.097.29 1.206 1.206 0 0 1-.158.219l-3.91 6.778 14.843-.052 12.88-7.454Zm-32.212-19.342a.879.879 0 0 1-1.088.149l-1.814-1.053 3.349 5.803h6.645l-1.841-1.071a.88.88 0 0 1-.421-1.018l2.78-10.404-7.61 7.594ZM98.123 310.423a.941.941 0 0 1-.105-.755.52.52 0 0 1 .096-.255.715.715 0 0 1 .15-.211l3.892-6.734h-14.8l-12.905 7.454 12.862 7.411h14.852l-3.884-6.735a1.313 1.313 0 0 1-.158-.175Zm59.338 237.532-4.252 7.454 4.349 7.471 8.548-.035 4.261-7.48-4.314-7.41h-8.592Zm-15.701 42.214 12.826-7.454 7.391-12.837h-8.118a.873.873 0 0 1-.754-.456.873.873 0 0 1-.123-.448l-3.779-6.567-7.408 12.871-.035 14.891Zm35.015-20.255h-6.69l-3.305 5.777 1.841-1.063a.935.935 0 0 1 .803-.057c.11.046.21.113.293.198l7.61 7.621-2.788-10.413a.875.875 0 0 1 .421-1.019l1.815-1.044ZM49.508 422.876l7.383-7.393-.991-3.687-3.7.992-2.692 10.088ZM197.36 126.22l.991-3.705-7.373-7.393 2.709 10.15 3.673.948Zm35.307 9.465 7.373-7.393-10.074 2.705-.99 3.696 3.691.992Zm-16.719-71.196 12.853 7.401h14.905l-3.884-6.734a.592.592 0 0 1-.149-.184.99.99 0 0 1-.123-.712.812.812 0 0 1 .105-.29.967.967 0 0 1 .158-.21l3.849-6.734h-14.834l-12.88 7.463Zm1.473 50.186 13.16-13.232 4.708-17.656-8.329-4.82h-9.636L212.59 96.64l4.831 18.034Zm31.38-69.292a.874.874 0 0 1-.64-.263l-7.61-7.639 2.788 10.413a.879.879 0 0 1-.421 1.019l-1.815 1.045h6.69l3.296-5.777-1.832 1.062a.941.941 0 0 1-.456.14Zm11.588 26.525 4.279-7.516-4.323-7.419-8.574.044-4.27 7.48 4.34 7.446 8.548-.035Zm-36.192 53.311 2.701-10.088-7.382 7.393.99 3.688 3.691-.993Zm23.964-41.389a.875.875 0 0 1 .64-.263.93.93 0 0 1 .456.115l1.815 1.053-3.323-5.76h-6.655l1.824 1.045a.879.879 0 0 1 .421 1.019l-2.788 10.413 7.61-7.621Zm-41.927 36.569 2.709 2.713 2.692-2.705-2.701-10.096-2.7 10.088Zm-15.318-41.432-8.329 4.811 4.735 17.674 13.142 13.17 4.822-17.999-4.743-17.656h-9.627Zm12.223-7.086h2.13a.873.873 0 0 1 .877.676l2.788 10.413 2.788-10.369a.876.876 0 0 1 .877-.667h2.13l-5.821-3.363-5.769 3.31ZM129.878 90.81l4.813-8.35v-9.63l-17.648-4.733-17.956 4.82 13.16 13.178 17.631 4.715ZM90.61 64.427l2.709 2.713 10.073-2.713-10.091-2.704-2.692 2.704Zm8.477 335.78 13.16 13.179 17.631 4.723 4.813-8.358v-9.623l-17.648-4.741-17.956 4.82Zm.543 58.825h6.69l3.297-5.777-1.85 1.063a.882.882 0 0 1-.456.123.888.888 0 0 1-.64-.264l-7.61-7.621 2.788 10.413a.875.875 0 0 1-.43 1.019l-1.788 1.044Zm35.019-20.246-12.8 7.401-7.417 12.845h7.785a.57.57 0 0 1 .175 0 .853.853 0 0 1 .202 0 .873.873 0 0 1 .754.448c.078.136.12.29.123.448l3.779 6.567 7.408-12.845-.009-14.864Zm-44.092-23.9 4.865 18.025 12.915 12.916 8.355-4.838 4.796-8.332-12.923-12.942-18.008-4.829Zm28.335 66.104 4.304-7.463-4.348-7.463-8.548.044-4.27 7.472 4.34 7.454 8.522-.044Zm14.747-55.242a.88.88 0 0 1-.789.447.892.892 0 0 1-.219 0l-10.407-2.792 7.61 7.621a.878.878 0 0 1 .14 1.098l-1.052 1.826 5.769-3.336v-6.673l-1.052 1.809Zm-25.048 101.618 12.897-12.932-4.813-8.35-8.329-4.812-12.923 12.933-4.814 17.99 17.982-4.829ZM87.504 403.307l.991 3.696 10.083 2.704-7.409-7.419-3.665 1.019Zm19.185 89.607a.927.927 0 0 1 .64-.264.882.882 0 0 1 .456.123l1.815 1.045-3.35-5.795h-6.654l1.85 1.063a.875.875 0 0 1 .421 1.018l-2.788 10.404 7.61-7.594Zm-4.498-11.923-3.884-6.734a.763.763 0 0 1-.149-.193.966.966 0 0 1-.123-.702.969.969 0 0 1 .263-.51l3.893-6.743H87.357l-12.906 7.463 12.853 7.411 14.887.008ZM85.428 360.565l-7.382 7.401.99 3.688 3.692-.992 2.7-10.097Zm-29.537 11.089.99-3.696-7.373-7.393 2.7 10.106 3.683.983Zm71.355 109.004-3.779 6.567a.829.829 0 0 1-.113.369.935.935 0 0 1-.325.342.95.95 0 0 1-.596.246.88.88 0 0 1-.465-.114h-7.531l7.417 12.854 12.792 7.392v-14.838l-7.4-12.818Zm-63.43-138.601L59.073 324.4l-9.627.009-8.329 4.812 4.735 17.674 13.142 13.169 4.822-18.007Zm14.238 73.435 7.373 7.384-2.7-10.097-3.683-.992-.99 3.705ZM-.388 307.139l-10.39 2.784 10.39 2.792a.875.875 0 0 1 .675.878v2.089l3.34-5.803-3.34-5.751v2.133a.88.88 0 0 1-.675.878ZM64.772 417.6l2.7 10.097 2.71-10.132-2.71-2.669-2.7 2.704Zm57.452 106.114 10.389-2.792h.237a.876.876 0 0 1 .78.447l1.061 1.835v-6.681l-5.76-3.336 1.052 1.835a.879.879 0 0 1-.14 1.088l-7.619 7.604Zm-60.519-57.597 5.812 3.363 5.752-3.363h-2.14a.873.873 0 0 1-.876-.676l-2.814-10.404-2.788 10.413a.88.88 0 0 1-.877.667h-2.07ZM12.711 259.736l-10.389 2.792h-.237a.87.87 0 0 1-.78-.456l-1.052-1.826v6.672l5.76 3.337-1.052-1.827a.877.877 0 0 1 .14-1.097l7.61-7.595Zm36.735-98.975-8.329 4.811 4.735 17.674 13.142 13.17 4.822-18.008-4.743-17.647h-9.627Zm12.222-7.086h2.13a.88.88 0 0 1 .877.676l2.762 10.44 2.788-10.413a.877.877 0 0 1 .877-.668h2.113l-5.778-3.389-5.769 3.354Zm14.265 42.75 13.177-13.196 4.709-17.648-8.33-4.82h-9.635l-4.734 17.674 4.813 17.99Zm-32.169 21.088 3.665-1.018-.99-3.697-10.083-2.704 7.408 7.419Zm3.666 185.802-3.69-.992-7.374 7.392 10.117-2.721.947-3.679Zm-5.805-172.534 2.7-2.696-2.709-2.713-10.073 2.704 10.082 2.705ZM.278 290.019l7.4 12.827 3.788-6.558a.883.883 0 0 1 .868-.905h.183a.85.85 0 0 1 .202 0h7.777l-7.417-12.862L.243 275.11l.035 14.909ZM90.61 391.716l2.709 2.713 10.073-2.704-10.091-2.704-2.692 2.695Zm-62.374 62.461a.89.89 0 0 1-.64.264.88.88 0 0 1-.456-.123l-1.788-1.045 3.349 5.803h6.645l-1.84-1.062a.878.878 0 0 1-.422-1.019l2.788-10.439-7.636 7.621Zm46.215-307.895 12.853 7.402h14.861l-3.884-6.734a.737.737 0 0 1-.15-.185.993.993 0 0 1-.122-.711.888.888 0 0 1 .263-.5l3.893-6.743H87.357l-12.906 7.471Zm35.166 143.332-1.85 1.062a.925.925 0 0 1-.456.123.883.883 0 0 1-.64-.272l-7.61-7.612 2.788 10.404a.935.935 0 0 1-.421 1.027l-1.815 1.045h6.69l3.314-5.777ZM85.49 324.41h-9.636l-4.734 17.674 4.813 17.99 13.177-13.196 4.709-17.648-8.33-4.82Zm2.025 55.726 3.682.992 7.373-7.393-10.073 2.705-.982 3.696Zm33.973-111.128-12.923-12.942-18.008-4.829 4.865 18.025 12.915 12.916 8.355-4.829 4.796-8.341Zm13.203-22.898v-9.632l-17.648-4.741-17.956 4.82 13.16 13.179 17.631 4.723 4.813-8.349ZM95.422 105.614l12.915 12.915 8.355-4.829 4.796-8.341-12.923-12.942-18.008-4.829 4.865 18.026Zm38.217-7.165a.88.88 0 0 1-.789.456.656.656 0 0 1-.228 0l-10.398-2.783 7.61 7.621a.88.88 0 0 1 .14 1.089l-1.052 1.835 5.769-3.345v-6.664l-1.052 1.79Zm1.053 111.576-4.813-8.332-17.675 4.741-13.169 13.196 18.035 4.794 17.622-4.741v-9.658ZM.243 236.47v9.658l4.813 8.332 17.658-4.732 13.177-13.205-18.025-4.794L.243 236.47Zm121.972-40.071 10.398-2.784a.725.725 0 0 1 .237 0 .878.878 0 0 1 .78.457l1.061 1.826v-6.699l-5.769-3.336 1.052 1.826a.876.876 0 0 1-.14 1.098l-7.619 7.612Zm5.031-43.022-3.787 6.576a.885.885 0 0 1-.272.667.917.917 0 0 1-1.008.176h-7.742l7.417 12.863 12.792 7.384v-14.856l-7.4-12.81Zm7.403-41.89-12.8 7.411-7.417 12.836h8.162a.883.883 0 0 1 .439.126.883.883 0 0 1 .315.33c.08.136.123.291.123.448l3.805 6.603 7.382-12.898-.009-14.856Zm-15.705 42.214 4.252-7.463-4.357-7.471-8.539.044-4.27 7.48 4.34 7.445 8.574-.035Zm-30.449 89.652 10.083 2.704-7.409-7.419-3.665 1.019.991 3.696Zm2.115-38.456 17.981-4.821 12.897-12.941-4.813-8.341-8.329-4.82-12.923 12.941-4.814 17.982Zm2.709 25.884 10.073-2.705-10.091-2.704-2.692 2.704 2.71 2.705Zm6.311-99.038h6.69l3.297-5.777-1.85 1.071a.947.947 0 0 1-.456.123.878.878 0 0 1-.64-.264l-7.61-7.621 2.806 10.396a.88.88 0 0 1-.421 1.018l-1.815 1.054Zm-12.115 84.744 3.682.992 7.373-7.393-10.073 2.705-.982 3.696ZM71.12 277.744l4.743 17.656 9.626-.008 8.33-4.812-4.735-17.674-13.142-13.17-4.822 18.008Zm-58.4 145.641-10.398 2.784a.783.783 0 0 1-.237 0 .88.88 0 0 1-.78-.457l-1.052-1.826v6.716l5.778 3.319-1.07-1.852a.88.88 0 0 1 .14-1.098l7.62-7.586Zm40.952-195.949a.873.873 0 0 1 .272.64.878.878 0 0 1-.264.641l-4.173 4.18 5.699 1.527a.89.89 0 0 1 .563.418.882.882 0 0 1 .077.697l-1.534 5.707 5.707-1.527a.724.724 0 0 1 .237 0 .873.873 0 0 1 .877.676l1.525 5.698 4.165-4.171a.873.873 0 0 1 .64-.263.878.878 0 0 1 .64.263l4.208 4.206 1.5-5.733a.876.876 0 0 1 .42-.553.925.925 0 0 1 .456-.123h.237l5.69 1.527-1.526-5.698a.878.878 0 0 1 .088-.685.94.94 0 0 1 .552-.43l5.743-1.536-4.208-4.171a.873.873 0 0 1-.272-.641.876.876 0 0 1 .263-.641l4.173-4.179-5.699-1.528a.867.867 0 0 1-.543-.421.88.88 0 0 1-.097-.685l1.544-5.751-5.717 1.563a.723.723 0 0 1-.237 0 .936.936 0 0 1-.721-.352.885.885 0 0 1-.155-.315l-1.535-5.742-4.155 4.205a.877.877 0 0 1-1.28 0l-4.209-4.205-1.499 5.733a.876.876 0 0 1-.42.553.871.871 0 0 1-.457.123h-.236l-5.726-1.536 1.561 5.707a.876.876 0 0 1-.64 1.115l-5.743 1.536 4.209 4.171ZM35.891 400.172l-18.025-4.794-17.623 4.741v9.658l4.813 8.332 17.658-4.732 13.177-13.205Zm70.798-234.504a.875.875 0 0 1 1.096-.15l1.815 1.045-3.35-5.794h-6.654l1.85 1.062a.875.875 0 0 1 .421 1.018l-2.788 10.413 7.61-7.594ZM44.318 414.904l-17.973 4.82-12.897 12.942 4.813 8.341 8.33 4.82 12.922-12.941 4.805-17.982Zm12.564-210.595-7.374-7.393 2.7 10.106 3.683.983.99-3.696Zm28.546-7.384-7.382 7.393.99 3.687 3.692-.992 2.7-10.088Zm-15.264 5.277-2.7-10.097-2.7 10.088 2.709 2.704 2.691-2.695ZM46.438 376.448l-10.082-2.704 7.373 7.384 3.7-.992-.99-3.688Zm13.985-66.569-12.88-7.411H32.745l3.884 6.734c.055.058.105.119.15.185.13.213.17.468.113.711a.618.618 0 0 1-.105.299.867.867 0 0 1-.15.21l-3.892 6.734H47.58l12.844-7.462Zm-32.187-19.351a.876.876 0 0 1-1.087.149l-1.797-1.044 3.322 5.75h6.646l-1.815-1.044a.878.878 0 0 1-.42-1.019l2.788-10.413-7.637 7.621Zm7.067 33.882h-6.637l-3.314 5.768 1.806-1.053a.925.925 0 0 1 .455-.123.877.877 0 0 1 .64.272l7.62 7.603-2.789-10.404a.93.93 0 0 1 .421-1.027l1.798-1.036Zm1.036-78.343 10.144-2.713.947-3.688-3.735-1.001-7.356 7.402ZM7.687 317.008.27 329.853v14.794l12.81-7.401 7.39-12.828h-8.03a.873.873 0 0 1-.781-.448l-3.972-6.962Zm5.761-47.991 4.813 8.35 8.33 4.811 12.922-12.941 4.805-17.982-17.973 4.821-12.897 12.941Zm13.151 68.607-8.355 4.828-4.796 8.341 12.914 12.942 18.008 4.829-4.865-18.025-12.906-12.915ZM.243 359.529l1.052-1.826a.881.881 0 0 1 .78-.457.965.965 0 0 1 .228 0l10.407 2.801-7.61-7.621a.878.878 0 0 1-.14-1.097l1.052-1.827-5.778 3.337.01 6.69Zm11.495-49.563 4.314 7.419 8.583-.044 4.27-7.48-4.349-7.445-8.54.035-4.278 7.515Zm19.805 81.759 10.082 2.704 2.7-2.704-2.709-2.704-10.073 2.704Zm38.63-137.765-2.709-2.705-2.692 2.696 2.7 10.097 2.701-10.088Zm.955 48.517a.932.932 0 0 1-.877-.676l-2.814-10.413-2.788 10.413a.876.876 0 0 1-.877.676h-2.104l5.813 3.363 5.751-3.354-2.104-.009Zm-3.655 66.069 2.691-2.695-2.7-10.097-2.7 10.088 2.709 2.704Zm11.571-120.399-.99 3.696 7.373 7.393-2.7-10.106-3.683-.983ZM35.848 383.244l-13.16-13.179-17.632-4.723-4.813 8.349v9.632l17.649 4.732 17.956-4.811Zm13.66-124.017 7.383-7.392-.991-3.688-3.7.992-2.692 10.088Zm21.62 58.097h2.104l-5.795-3.354-5.752 3.354h2.131a.879.879 0 0 1 .877.676l2.744 10.413L70.225 318a.875.875 0 0 1 .903-.676Zm-30.011-26.753 8.347 4.829 9.618-.008 4.734-17.701-4.813-17.963-13.178 13.196-4.708 17.647Zm44.373 168.47 8.329-4.812-4.735-17.683-13.142-13.161-4.822 18.008 4.743 17.648h9.626ZM106.689 1.975a.926.926 0 0 1 1.078-.149l1.815 1.054L107.916 0h-6.286l-2.569 9.596 7.628-7.62Zm39.84 7.051 17.657-4.741L168.465 0h-26.75v.667l4.814 8.359ZM204.744 0h-.78l.166.623.614-.623ZM180.15 0h-1.718l-.622.632L180.15 0ZM60.256 76.034a.876.876 0 0 1 .876.676l1.526 5.698 4.165-4.17a.928.928 0 0 1 .987-.198c.11.045.21.113.293.198l4.208 4.214 1.5-5.742a.879.879 0 0 1 .42-.553.938.938 0 0 1 .456-.123.735.735 0 0 1 .237 0l5.663 1.563-1.525-5.707a.878.878 0 0 1 .087-.685.879.879 0 0 1 .553-.421l5.743-1.546-4.209-4.17a.88.88 0 0 1-.272-.641.879.879 0 0 1 .263-.641l4.174-4.18-5.69-1.527a.876.876 0 0 1-.544-.421.88.88 0 0 1-.097-.685l1.544-5.751-5.717 1.563a.735.735 0 0 1-.237 0 .963.963 0 0 1-.447-.114.93.93 0 0 1-.43-.553l-1.086-3.96L56.039 77.14l3.98-1.027a1.1 1.1 0 0 1 .237-.079ZM.279 181.024l12.8-7.41 7.417-12.845h-7.583a.874.874 0 0 1-.395.097 1.379 1.379 0 0 1-.938-.545.877.877 0 0 1-.123-.395l-1.587-2.757-6.917 12.011-2.166-3.863-.517.878.009 14.829Zm24.356-27.332 4.27-7.48-4.35-7.445-4.076.017-6.532 11.335 2.105 3.617 8.583-.044Zm10.695-21.941-1.84-1.062a.878.878 0 0 1-.422-1.019l2.806-10.404-7.61 7.621a.889.889 0 0 1-.64.264.894.894 0 0 1-.35-.097l-.65 1.115 2.087 3.609 6.62-.027Zm99.318-114.384V2.537L133.184 0h-17.087l5.76 9.983 12.791 7.384Zm189.41 639.152 4.734 17.683 13.142 13.161 4.235-15.804-13.476-19.851h-.298l-8.337 4.811Zm-166.5-257.288 3.673-.017-6.672-9.816-1.35 2.371 4.349 7.462Zm39.803 54.279.21-.773-6.33-9.333 2.438 9.123 3.682.983Zm-28.739-42.531a.934.934 0 0 1 .455-.122h.071l-.877-1.353-1.447 2.52 1.798-1.045Zm-36.009-53.706h.123l-3.121-4.592-7.391 7.41 10.389-2.818Zm16.546 27.375 1-1.738-8.399-12.371v1.282l7.399 12.827Zm10.555-123.99-4.796 8.341 10.512 10.536 10.696-15.646-8.066-8.06-8.346 4.829Zm-36.247 62.917a.888.888 0 0 1-.412.694.876.876 0 0 1-1.104.149h-7.514l7.417 12.863 2.946 1.694 8.206-11.993-5.76-9.974-3.779 6.567Zm18.248-31.677v9.631l7.339 1.967 11.134-16.287-13.659-3.661-4.814 8.35Zm-6.401 15.241a.883.883 0 0 1-.667-.877v-2.09l-3.349 5.803 3.349 5.751v-2.133a.886.886 0 0 1 .179-.557.872.872 0 0 1 .488-.321l9.109-2.441.395-.58-9.504-2.555Zm110.313 216.355-10.547-15.523 1.823 6.795 8.724 8.728Zm73.951 113.007a.74.74 0 0 1 .14.184.954.954 0 0 1 .123.694.902.902 0 0 1-.105.307.986.986 0 0 1-.158.211l-3.911 6.778h12.222l-10.1-14.882h-2.104l3.893 6.708ZM213.923 0h-.798l.623.632.175-.632Zm-11.758 461.851a.88.88 0 0 1-.447.122.966.966 0 0 1-.228 0l-5.743-1.545 1.569 5.707a.953.953 0 0 1-.087.694.885.885 0 0 1-.553.421l-5.707 1.537 4.182 4.179a.93.93 0 0 1 .197.988.874.874 0 0 1-.197.294l-4.174 4.179 5.699 1.528a.87.87 0 0 1 .559.414.883.883 0 0 1 .081.692l-1.534 5.716 5.708-1.519h.236a.874.874 0 0 1 .877.667l1.526 5.707 4.164-4.179a.935.935 0 0 1 .64-.264.888.888 0 0 1 .64.264l4.182 4.188 1.526-5.716a.875.875 0 0 1 .876-.676c.076-.008.153-.008.228 0l3.963 1.062-17.535-25.813-.227.878a.88.88 0 0 1-.421.475Zm109.436 160.84h1.385l-3.402-5.005-1.297-.755 3.314 5.76ZM183.938 252.458l6.558-9.596-7.909 4.565 1.351 5.031Zm101.088 337.404a.884.884 0 0 1-.781-.457l-1.052-1.835v6.726l5.778 3.31-1.07-1.853a.88.88 0 0 1 .149-1.089l3.507-3.512-1.753-2.546-4.577 1.229a1.13 1.13 0 0 1-.201.027ZM332.81 34.61l.394-.58-.754-.746.36 1.325ZM308.287 2.889l1.814-1.045a.8.8 0 0 1 .448-.123.875.875 0 0 1 .64.263l7.61 7.621L316.23 0h-6.278l-1.665 2.889Zm-2.656 39.886-17.632-4.723-4.813 8.358v9.623l17.649 4.741 17.263-4.636.359-.526-12.826-12.837ZM327.407 0l-3.349 1.932 4.734 17.674 8.469 8.49 9.381-13.732L342.794 0h-15.387Zm-4.89 49.676 1.359-1.993-4.576-1.229 3.217 3.222ZM271.349 9.017l4.813-8.35V0h-26.741l4.296 4.302 17.632 4.715ZM350.711 0h-.605l.298 1.124.307-1.124ZM239.425 0h-1.683l2.306.623-.623-.623Zm43.804 17.384 12.809-7.41L301.79 0h-17.088l-1.482 2.581.009 14.803Zm-48.757 161.111 4.857-7.102-7.303-1.958 2.446 9.06Zm-60.257 42.171 3.884 6.734c.057.058.107.123.149.193a.96.96 0 0 1 .105.747.623.623 0 0 1-.096.254 1.302 1.302 0 0 1-.15.211l-3.91 6.778 14.852-.044 10.67-6.146 1.245-1.826-11.932-6.857-14.817-.044Zm31.966-.764 3.963-5.794-1.201-4.513-2.762 10.307Zm6.409-23.951 2.805 10.465 12.371-18.095-10.354-10.378-4.822 18.008Zm-9.417 24.724 1.753 1.036.816-1.194a.876.876 0 0 1-.483.166l-2.086-.008Zm50.493-96.035-13.125 13.161 17.999 4.829.553-.149 13.712-20.062-1.455-2.52-17.684 4.741Zm-7.093 36.156 6.4-9.359-12.415 3.327 6.015 6.032Zm38.453-61.854a.874.874 0 0 1-.781-.448l-1.052-1.835v6.672l1.912 1.107 4.594-6.717-4.437 1.194a.977.977 0 0 1-.236.026Zm-1.84-26.104.009 9.649 4.813 8.34 7.821-2.097 12.695-18.588-7.689-2.045-17.649 4.74Zm-25.75 468.049-.833-1.22-.701 1.22h1.534Zm-60.076 76.281.991-3.714-7.373-7.384 2.709 10.141 3.673.957Zm-97.73 5.513h6.69l3.297-5.777-1.85 1.063a.935.935 0 0 1-.803.057.888.888 0 0 1-.293-.198l-7.61-7.621 2.788 10.413a.875.875 0 0 1-.421 1.019l-1.797 1.044Zm21.858-26.383-12.923-12.933-18.008-4.838 4.865 18.034 12.915 12.916 8.355-4.838 4.796-8.341Zm83.798-8.737-4.743-17.656h-9.627l-8.329 4.82 4.735 17.665 13.142 13.17 4.822-17.999ZM82.728 534.312l2.7-10.097-7.382 7.393.99 3.696 3.692-.992Zm11.091-41.443-8.33-4.811-9.635-.009-4.734 17.683 4.83 18.034 13.16-13.24 4.709-17.657Zm-22.691-11.895h2.104l-5.77-3.337-5.768 3.337h2.104a.876.876 0 0 1 .877.676l2.761 10.404 2.788-10.404a.88.88 0 0 1 .904-.676Zm137.815 133.077 2.692-2.705-2.701-10.096-2.7 10.088 2.709 2.713ZM67.462 532.204l2.7-2.713-2.7-10.088-2.71 10.132 2.71 2.669Zm-44.74 1.501-15.386-4.118-.334.202 12.889 21.406a3.2 3.2 0 0 1 1.087-.307l14.904-4.004-13.16-13.179Zm19.237 53.681 2.367-8.833-6.365 1.704c-.1.154-.214.298-.342.43l4.085 6.795.255-.096Zm17.035-.412-10.898 10.957-.114-.184-.061.052 12.274 20.387h.097l3.507-13.17-4.805-18.042Zm-28.117-18.131 4.98-4.987-9.566-2.573c-.06.09-.127.176-.201.255l4.471 7.428.316-.123Zm42.365 60.923h-2.113a.878.878 0 0 1-.877-.667l-2.814-10.387-2.122 7.902-.087-.141a.922.922 0 0 0 0 .088l3.585 5.962h.08l-.088-.141 4.436-2.616Zm12.248 21.942h-5.015l-.07-.123-.062.061 10.153 16.867h.131l3.192-11.967-8.33-4.838Zm35.998 26.374-4.814-8.349-8.329-4.82-12.423 12.441-.14-.237s-.044 0-.062.061l8.978 14.926h.088l3.822-1.027 12.88-12.995Zm8.39 14.548-17.658 4.733-2.63 2.634-.053-.088-.052.07.052.079H134.2l-4.322-7.428Zm146.251-8.348-12.818 7.41-4.84 8.394h17.079l.579-1.01v-14.794Zm18.55-47.018 4.323 7.419 8.574-.044 4.27-7.471-4.34-7.455-8.54.044-4.287 7.507Zm13.608 20.212 1.814-1.045a.883.883 0 0 1 .448-.123.878.878 0 0 1 .64.264l7.61 7.621-2.788-10.413a.88.88 0 0 1 .429-1.019l1.806-1.045h-6.637l-3.322 5.76Zm-17.659-27.349 3.779-6.559a.877.877 0 0 1 .877-.878h8.215l-7.47-12.853-12.836-7.411v14.926l7.435 12.775Zm-36.963-14.549-13.16 13.196 18.035 4.794 17.622-4.741v-9.632l-4.813-8.358-17.684 4.741Zm-18.376-40.853-8.329-4.811-9.636-.009-4.734 17.674 4.831 18.043 13.16-13.241 4.708-17.656Zm-11.092 41.433 2.7-10.088-7.417 7.428 1.017 3.661 3.7-1.001Zm-82.448 68.124.009 14.838.561.966h17.088l-4.858-8.412-12.8-7.392Zm90.331-47.062 2.709 2.713 10.073-2.704-10.091-2.713-2.691 2.704Zm17.177 62.602a.936.936 0 0 1-.803.057.87.87 0 0 1-.293-.197l-7.61-7.621 2.148 8.024h7.636l.754-1.325-1.832 1.062Zm-48.802-30.993-13.16 13.24-4.708 17.656.632.36h18.525l3.542-13.24-4.831-18.016Zm30.099 13.222-13.142-13.161-4.822 17.999 3.542 13.196h18.534l.623-.36-4.735-17.674Zm-60.846 17.631a.88.88 0 0 1-.64.263.883.883 0 0 1-.448-.123l-1.814-1.045.762 1.308h7.602l2.157-8.024-7.619 7.621Zm42.882-136.853h2.139l-5.777-3.337-5.769 3.337h2.104a.878.878 0 0 1 .877.667l2.77 10.439 2.788-10.404a.88.88 0 0 1 .868-.702ZM327.266 41.266l-4.813-18.017-12.914-12.915-8.329 4.82-4.822 8.359 12.923 12.933 17.955 4.82Zm-248.229 3.09 3.69-.992 2.701-10.088-7.382 7.393.99 3.687ZM287.999 692.64l-4.287 7.445h24.645l-2.718-2.722-17.64-4.723ZM190.943 49.967l9.609-.009 4.734-17.7-4.831-18.017-13.16 13.24-4.708 17.657 8.356 4.829Zm-49.185-5.461 7.399 12.818 3.77-6.54a.954.954 0 0 1 .097-.378.876.876 0 0 1 .78-.483h8.163l-7.418-12.854-12.8-7.393.009 14.83ZM70.173 90.31l-2.709-2.704-2.692 2.696 2.7 10.097 2.701-10.088Zm-11.091 41.441 4.734-17.709-4.813-17.963-13.178 13.196-4.708 17.656 8.355 4.829 9.61-.009ZM55.9 84.498l-3.7.992-2.692 10.097 7.383-7.401-.991-3.688Zm26.827.983-3.683-.983-.99 3.705 7.373 7.384-2.7-10.106Zm2.763 46.262 8.329-4.812-4.735-17.674-13.142-13.17-4.822 18.008 4.743 17.656 9.626-.008Zm-85.247 78.3v9.631l17.649 4.733 17.956-4.812-13.16-13.179-17.632-4.723-4.813 8.35Zm44.127-5.12-4.865-18.034-12.906-12.915-8.33 4.82-4.821 8.35 12.914 12.941 18.008 4.838Zm-7.618-58.175a1.14 1.14 0 0 1-.15.202l-3.91 6.778 14.852-.044 12.88-7.454-12.888-7.411H32.745l3.884 6.735a.924.924 0 0 1 .263.886.644.644 0 0 1-.14.308ZM98.58 46.438l-10.083 2.704-.982 3.705 3.682.983 7.382-7.392Zm42.504 20.782a.874.874 0 0 1 .666.877v2.09l3.323-5.76-3.323-5.76v2.099a.874.874 0 0 1-.675.878l-10.389 2.783 10.398 2.792Zm6.401-42.381-1.052-1.827a.875.875 0 0 1 .14-1.097l7.663-7.621-10.398 2.792a1.105 1.105 0 0 1-.237 0 .88.88 0 0 1-.78-.457l-1.061-1.835v6.673l5.725 3.372Zm20.575 11.895 12.923-12.941 4.805-17.981-17.973 4.828-12.897 12.933 4.813 8.35 8.329 4.811ZM99.043 55.98l18.026 4.794 17.622-4.741v-9.658l-4.813-8.332-17.658 4.732L99.043 55.98ZM1.295 194.054a.881.881 0 0 1 .78-.457c.08-.009.159-.009.237 0l10.398 2.801-7.61-7.621a.878.878 0 0 1-.14-1.097l1.052-1.826-5.769 3.336v6.664l1.052-1.8ZM121.488 23.495l-4.813-8.35-8.329-4.82-12.923 12.941-4.814 17.982 17.982-4.82 12.897-12.933ZM98.595 82.426l-7.426-7.428-3.665 1.01 1 3.749 10.091 2.669Zm23.62-49.66 10.398-2.783a.679.679 0 0 1 .237 0 .873.873 0 0 1 .78.457l1.061 1.773V25.55l-5.76-3.327 1.052 1.826a.876.876 0 0 1-.141 1.097l-7.627 7.621Zm-94.61 132.595a.875.875 0 0 1 .64.264l7.61 7.621-2.788-10.413a.88.88 0 0 1 .42-1.019l1.816-1.053h-6.637l-3.314 5.786 1.806-1.054a.94.94 0 0 1 .447-.132Zm-34.428 56.955-3.323 5.76 3.323 5.76v-2.099a.88.88 0 0 1 .666-.878l10.398-2.783-10.398-2.792a.875.875 0 0 1-.666-.878v-2.09Zm71.595 358.932 2.7 10.097 2.71-10.141-2.71-2.66-2.7 2.704Zm13.282-2.107 7.373 7.384-2.7-10.097-3.683-.992-.99 3.705Zm20.253 58.756a.753.753 0 0 1-.149-.184.984.984 0 0 1-.123-.702.721.721 0 0 1 .115-.308.793.793 0 0 1 .148-.202l3.884-6.743H87.357l-12.906 7.463 12.853 7.411h14.861l-3.858-6.735ZM73.81 567.649a.876.876 0 0 1 .42-.554.88.88 0 0 1 .456-.122.671.671 0 0 1 .228 0l5.7 1.527-1.526-5.707a.876.876 0 0 1 .64-1.106l5.707-1.528-4.182-4.188a.878.878 0 0 1 0-1.282l4.173-4.17-5.698-1.528a.87.87 0 0 1-.563-.418.872.872 0 0 1-.077-.697l1.543-5.751-5.717 1.572h-.236a.875.875 0 0 1-.448-.114.939.939 0 0 1-.43-.553l-1.525-5.707-4.164 4.179a.928.928 0 0 1-.987.198.89.89 0 0 1-.293-.198l-4.209-4.214-1.499 5.742a.876.876 0 0 1-.42.553.947.947 0 0 1-.457.123h-.228l-5.698-1.537 1.525 5.707a.88.88 0 0 1-.64 1.106l-5.707 1.537 4.182 4.179a.878.878 0 0 1 .263.641.884.884 0 0 1-.263.641l-4.174 4.179 5.7 1.528a.87.87 0 0 1 .67.752.878.878 0 0 1-.03.354l-1.561 5.786L60 567.008h.237a.866.866 0 0 1 .447.114.94.94 0 0 1 .43.553l1.525 5.707 4.164-4.179a.93.93 0 0 1 .987-.198c.11.045.21.113.293.198l4.209 4.214 1.517-5.768Zm11.68 55.041 8.329-4.821-4.735-17.674-13.142-13.161-4.822 17.999 4.743 17.657h9.626Zm43.414 54.102 1.07 1.843a.877.877 0 0 1-.14 1.098l-7.61 7.621 10.389-2.792a.725.725 0 0 1 .237 0 .869.869 0 0 1 .453.12c.138.08.251.196.327.336l1.061 1.835v-6.725l-5.787-3.336ZM99.596 651.69l1.85 1.063a.93.93 0 0 1 .421 1.027l-2.788 10.404 7.61-7.621a.883.883 0 0 1 .522-.235.88.88 0 0 1 .556.139l1.815 1.045-3.349-5.804-6.637-.018Zm35.052 5.434-7.399-12.827-3.797 6.594a.878.878 0 0 1-1.245.799h-7.741l7.417 12.853 12.792 7.393-.027-14.812Zm-11.452-19.939-4.357-7.472-8.539.035-4.27 7.481 4.34 7.454 8.574-.044 4.252-7.454Zm-75.766-93.4-.992-3.688-10.082-2.713 7.373 7.384 3.7-.983Zm-34.5-55.717a.88.88 0 0 1-.403.088.878.878 0 0 1-.526-.167.929.929 0 0 1-.412-.369 1.035 1.035 0 0 1-.123-.395l-3.779-6.567L.27 493.52v14.794l12.81-7.41 7.416-12.845-7.566.009Zm39.27 88.369-2.692 10.088 7.383-7.393-.991-3.687-3.7.992Zm-12.695-62.249-12.906-12.916-8.355 4.829-4.796 8.341 12.914 12.942 18.008 4.829-4.865-18.025Zm-34.545.815 1.052-1.835-5.769 3.346v6.664l1.052-1.827a.872.872 0 0 1 .78-.456.965.965 0 0 1 .229 0l10.406 2.792-7.61-7.621a.879.879 0 0 1-.14-1.063Zm130.354 119.434a.872.872 0 0 1-.488-.321.886.886 0 0 1-.179-.557v-2.089l-3.349 5.794 3.349 5.751v-2.124a.884.884 0 0 1 .667-.878l10.389-2.792-10.389-2.784Zm-79.423-99.133.99-3.705-7.373-7.384 2.7 10.106 3.683.983Zm7.925-29.598-4.743-17.657h-9.627l-8.329 4.82 4.735 17.674 13.142 13.162 4.822-17.999ZM.287 479.331l3.314-5.76-3.314-5.759v2.098a.932.932 0 0 1-.675.878l-10.39 2.783 10.39 2.792a.88.88 0 0 1 .675.878v2.09Zm44.038 76.043-2.709-2.713-10.073 2.704 10.09 2.713 2.692-2.704Zm-7.959 17.982 10.117-2.713.947-3.688-3.69-.983-7.374 7.384Zm246.863 69.633 3.322-5.76-3.322-5.768v2.098a.879.879 0 0 1-.676.878l-10.389 2.792 10.398 2.784a.884.884 0 0 1 .667.878v2.098Zm-42.671 2.721 13.16 13.179 17.631 4.715 4.814-8.35v-9.631l-17.649-4.733-17.956 4.82Zm-8.478 14.681 4.822 18.025 12.905 12.906 8.356-4.829 4.795-8.341-12.94-12.959-17.938-4.802Zm55.823 18.262 1.061-1.826-5.778 3.345v6.656l1.052-1.827a.88.88 0 0 1 .789-.448h.228l10.407 2.792-7.61-7.62a.88.88 0 0 1-.149-1.072Zm-133.667-9.772-10.398 2.792h-.237a.873.873 0 0 1-.78-.447l-1.061-1.835v6.725l5.786 3.31-1.069-1.853a.873.873 0 0 1 .14-1.088l7.619-7.604Zm193.459 24.303 2.709 2.669 2.709-2.704-2.709-10.097-2.709 10.132Zm-51.823-41.467a.874.874 0 0 1-.93-.079.882.882 0 0 1-.526-.755l-3.787-6.576-7.409 12.862v14.803l12.809-7.41 7.426-12.88-7.583.035Zm39.287 46.251 3.683.993.982-3.706-7.374-7.383 2.709 10.096Zm-25.62-33.047-8.329 4.821-4.822 8.358 12.923 12.933 18.008 4.838-4.866-18.034-12.914-12.916Zm-35.192 6.778h-.228l-10.398-2.792 7.61 7.621a.88.88 0 0 1 .14 1.089l-1.052 1.835 5.769-3.336v-6.673l-1.052 1.826a.877.877 0 0 1-.789.43Zm-119.429 6.462 4.813 8.35 8.329 4.82 12.923-12.942 4.814-17.99-17.982 4.829-12.897 12.933Zm22.446-32.485-18.026-4.794-17.623 4.741v9.632l4.814 8.358 17.657-4.732 13.178-13.205Zm16.305 12.607-2.7 10.097 7.391-7.393-.991-3.696-3.7.992Zm38.971-10.491-3.664 1.018.99 3.688 10.083 2.713-7.409-7.419Zm-9.916-11.212 4.174-4.17-5.699-1.528a.87.87 0 0 1-.563-.418.878.878 0 0 1-.077-.697l1.525-5.716-5.707 1.537h-.228a.881.881 0 0 1-.877-.668l-1.526-5.707-4.164 4.18a.93.93 0 0 1-.987.197.87.87 0 0 1-.293-.197l-4.182-4.188-1.526 5.715a.872.872 0 0 1-.876.676 1.044 1.044 0 0 1-.237 0l-5.69-1.527 1.525 5.707a.864.864 0 0 1-.081.691.872.872 0 0 1-.559.415l-5.707 1.528 4.182 4.188a.889.889 0 0 1 .277.641.872.872 0 0 1-.277.641l-4.174 4.17 5.699 1.528a.873.873 0 0 1 .544.43.881.881 0 0 1 .096.685l-1.543 5.751 5.717-1.572h.236a.873.873 0 0 1 .447.114c.21.122.363.32.43.553l1.526 5.698 4.164-4.17a.93.93 0 0 1 .987-.198c.11.046.21.113.293.198l4.209 4.214 1.499-5.742a.885.885 0 0 1 .421-.553.946.946 0 0 1 .455-.123h.228l5.699 1.537-1.525-5.707a.884.884 0 0 1 .081-.692.884.884 0 0 1 .559-.415l5.699-1.527-4.174-4.188a.873.873 0 0 1-.208-.998.866.866 0 0 1 .208-.293Zm17.316-17.341-10.118 2.713-.946 3.688 3.691.983 7.373-7.384Zm-19.524 38.052-.991 3.705 7.373 7.384-2.7-10.106-3.682-.983Zm-14.274 5.813 2.7 10.088 2.7-10.08-2.709-2.713-2.691 2.705Zm-28.432-7.885 10.143-2.721.947-3.688-3.735-1.001-7.355 7.41ZM61.705 138.828l5.769 3.328 5.76-3.328H71.13a.873.873 0 0 1-.877-.676l-2.814-10.413-2.788 10.413a.876.876 0 0 1-.877.676h-2.07Zm125.59 52.302-4.708 17.648 8.356 4.829 9.609-.009 4.734-17.7-4.831-18.008-13.16 13.24ZM110.3 302.459l-4.27 7.481 4.348 7.445 8.514-.035 4.304-7.463-4.357-7.471-8.539.043Zm11.549-19.921-7.417 12.845h7.785a.641.641 0 0 1 .175 0 .759.759 0 0 1 .202 0 .873.873 0 0 1 .754.448.947.947 0 0 1 .123.457l3.805 6.602 7.382-12.906v-14.847l-12.809 7.401Zm-26.426 68.027-4.814 17.981 17.982-4.829 12.897-12.932-4.813-8.35-8.329-4.811-12.923 12.941Zm58.592-107.923a.759.759 0 0 1-.202 0 .873.873 0 0 1-.754-.448.947.947 0 0 1-.123-.456l-3.779-6.559-7.408 12.863v14.847l12.827-7.419 7.391-12.828h-7.733a.576.576 0 0 1-.219 0Zm-12.931 151.875a.872.872 0 0 1 .666.878v2.063l3.341-5.803-3.341-5.751v2.133a.872.872 0 0 1-.675.878l-10.389 2.792 10.398 2.81Zm83.096 100.074-3.664-.957-.991 3.714 7.373 7.384-2.718-10.141Zm-82.421-260.755 3.323-5.76-3.323-5.76v2.099a.937.937 0 0 1-.675.878l-10.39 2.783 10.39 2.792a.88.88 0 0 1 .666.878l.009 2.09Zm4.673 35.725 1.052-1.826-5.769 3.336v6.664l1.052-1.826a.884.884 0 0 1 .781-.457c.081-.009.164-.009.245 0l10.39 2.792-7.61-7.621a.875.875 0 0 1-.141-1.062ZM211.651 8.473l-2.709-2.67-2.7 2.714 2.7 10.088 2.709-10.132Zm-78.012 253.626a.883.883 0 0 1-.789.456.966.966 0 0 1-.228 0l-10.398-2.792 7.61 7.621a.878.878 0 0 1 .14 1.098l-1.052 1.826 5.769-3.337v-6.663l-1.052 1.791ZM99.035 383.27l18.035 4.803 17.622-4.75v-9.65l-4.813-8.34-17.675 4.741-13.169 13.196Zm98.334 110.381-3.7.993-2.7 10.088 7.391-7.393-.991-3.688Zm-14.782 42.424 8.329 4.812 9.636.008 4.734-17.7-4.831-18.016-13.16 13.24-4.708 17.656Zm20.586-479.041 5.769 3.336 5.76-3.336h-2.104a.876.876 0 0 1-.877-.667l-2.779-10.413-2.788 10.404a.881.881 0 0 1-.877.676h-2.104Zm23.787 483.862 8.329-4.811-4.735-17.683-13.177-13.196-4.787 18.034 4.743 17.656h9.627Zm-15.309-41.476-2.709-2.67-2.7 2.705 2.7 10.097 2.709-10.132Zm-8.478 48.553 5.769 3.336 5.76-3.336h-2.104a.876.876 0 0 1-.877-.667l-2.779-10.413-2.788 10.413a.876.876 0 0 1-.877.667h-2.104Zm-25.346-56.411 10.126-2.713.947-3.688-3.691-.983-7.382 7.384Zm-22.909-58.913 12.914 12.942 18.009 4.828-4.866-18.025-12.915-12.915-8.32 4.811-4.822 8.359Zm30.317 30.36 3.665-1.018-.991-3.688-10.082-2.713 7.408 7.419ZM141.76 426.52l12.8-7.41 7.417-12.872h-8.118a.872.872 0 0 1-.754-.447.942.942 0 0 1-.123-.457l-3.779-6.559-7.408 12.863-.035 14.882ZM249.806 36.735l8.356-4.83 4.795-8.34-12.94-12.96-17.991-4.82 4.866 18.043 12.914 12.907Zm20.57 67.316 1.07 1.853a.88.88 0 0 1-.141 1.097l-7.618 7.621 10.398-2.783a.719.719 0 0 1 .236 0 .872.872 0 0 1 .781.457l1.061 1.826v-6.752l-5.787-3.319Zm-20.56-11.871-12.923 12.942-4.813 17.981 17.982-4.82 12.896-12.933-4.813-8.35-8.329-4.82Zm-17.736 54.102 2.709 2.705 10.073-2.705-10.082-2.704-2.7 2.704ZM224.198 3.687l-3.682-.983-.991 3.705 7.373 7.384-2.7-10.106Zm-58.171 216.935-8.566.035-4.252 7.463 4.349 7.472 8.548-.044 4.27-7.481-4.349-7.445ZM226.96 49.958l8.329-4.82-4.735-17.674-13.142-13.161-4.822 17.999 4.743 17.656h9.627Zm41.757 21.555-3.778 6.567a.888.888 0 0 1-.114.448.927.927 0 0 1-.754.456h-8.136l7.417 12.854 12.844 7.41V84.403l-7.479-12.89Zm7.384-12.837-3.314 5.76 3.314 5.768v-2.098a.881.881 0 0 1 .675-.878l10.39-2.792-10.398-2.792a.874.874 0 0 1-.667-.878v-2.09Zm8.137-28.219a.875.875 0 0 1 .789-.448h.237l10.398 2.792-7.61-7.612a.877.877 0 0 1-.149-1.097l1.061-1.826-5.778 3.336v6.611l1.052-1.756Zm-12.792-7.454-1.052 1.835 5.769-3.336v-6.673l-1.052 1.826a.879.879 0 0 1-.789.457.742.742 0 0 1-.237 0l-10.389-2.783 7.61 7.62a.877.877 0 0 1 .14 1.054ZM167.815 174.282l-12.897 12.941 4.813 8.35 8.329 4.811 12.923-12.941 4.805-17.982-17.973 4.821Zm61.161-16.419.99 3.697 10.083 2.704-7.409-7.41-3.664 1.009Zm-62.185 90.53 1.832-1.062a.925.925 0 0 1 .456-.123.883.883 0 0 1 .64.272l7.61 7.612-2.788-10.404a.92.92 0 0 1 .421-1.027l1.815-1.045h-6.69l-3.296 5.777ZM197.369 2.704l-3.7 1.001-2.7 10.088L198.36 6.4l-.991-3.696Zm-27.661 206.039a.88.88 0 0 1-.64.263.883.883 0 0 1-.448-.123l-1.814-1.071 3.349 5.795h6.645l-1.841-1.063a.88.88 0 0 1-.421-1.018l2.789-10.404-7.619 7.621Zm53.016-63.102 4.174-4.179-5.699-1.528a.87.87 0 0 1-.559-.415.872.872 0 0 1-.081-.691l1.525-5.716-5.707 1.528a.671.671 0 0 1-.228 0 .947.947 0 0 1-.456-.123.887.887 0 0 1-.421-.544l-1.526-5.707-4.164 4.17a.865.865 0 0 1-.64.272.866.866 0 0 1-.64-.272l-4.182-4.179-1.526 5.716a.88.88 0 0 1-.876.667 1.173 1.173 0 0 1-.237 0l-5.734-1.537 1.569 5.707a.934.934 0 0 1-.319.958.874.874 0 0 1-.321.157l-5.707 1.528 4.182 4.188a.87.87 0 0 1 .263.641.93.93 0 0 1-.263.641l-4.174 4.17 5.699 1.528a.87.87 0 0 1 .563.418.878.878 0 0 1 .077.697l-1.534 5.707 5.708-1.528a.778.778 0 0 1 .236 0 .88.88 0 0 1 .877.676l1.526 5.699 4.164-4.171a.93.93 0 0 1 .987-.197.87.87 0 0 1 .293.197l4.182 4.179 1.526-5.715a.878.878 0 0 1 .876-.668h.237l5.69 1.528-1.525-5.698a.883.883 0 0 1 .318-.957.87.87 0 0 1 .322-.149l5.707-1.537-4.182-4.179a.882.882 0 0 1 0-1.282Zm-29.055 21.705-2.7 10.097 7.391-7.402-.991-3.687-3.7.992ZM263.475 49.94a.937.937 0 0 1 .929.079c.175.078.319.21.412.378.069.117.108.25.114.386l3.814 6.611 7.356-12.888V29.694l-12.836 7.419-7.329 12.827h7.54Zm-57.233 122.217 2.7 10.097 2.7-10.088-2.709-2.705-2.691 2.696Zm14.274-5.803-.991 3.696 7.373 7.393-2.7-10.106-3.682-.983ZM-6.157 394.508l10.398-2.783-10.398-2.792a.875.875 0 0 1-.666-.878v-2.09l-3.323 5.76 3.323 5.733v-2.098a.879.879 0 0 1 .666-.852ZM98.569 537.384l-10.118 2.713-.947 3.688 3.691.992 7.374-7.393ZM7.678 466.495l3.788-6.568a.88.88 0 0 1 .113-.448.937.937 0 0 1 .754-.456h8.163l-7.417-12.854-12.836-7.445v14.926l7.435 12.845Zm51.325-43.118-13.178 13.197-4.708 17.647 8.33 4.821h9.635l4.734-17.701-4.813-17.964Zm1.418 50.143-12.923-7.419h-14.8l3.928 6.743c.06.053.11.115.15.184a.973.973 0 0 1 .105.755.583.583 0 0 1-.097.255.964.964 0 0 1-.149.21l-3.892 6.735h14.834l12.844-7.463Zm-35.786 7.471 4.27-7.48-4.323-7.41h-8.565l-4.279 7.515 4.314 7.419 8.583-.044Zm2.97 11.66a.872.872 0 0 1 .64.263l7.628 7.621-2.789-10.404a.878.878 0 0 1 .43-1.027l1.806-1.045h-6.69l-3.278 5.777 1.84-1.062a.936.936 0 0 1 .413-.123Zm188.343 62.776 12.923 7.419h14.791l-3.884-6.734a.897.897 0 0 1-.149-.176 1 1 0 0 1-.123-.711.956.956 0 0 1 .263-.509l3.884-6.743h-14.825l-12.88 7.454Zm32.213 19.386a.929.929 0 0 1 .64-.264.882.882 0 0 1 .456.123l1.806 1.045-3.34-5.803h-6.646l1.841 1.062a.88.88 0 0 1 .421 1.018l-2.788 10.405 7.61-7.586Zm-105.394 28.394a.865.865 0 0 1 .327-.336.869.869 0 0 1 .453-.12.966.966 0 0 1 .228 0l10.407 2.792-7.61-7.621a.88.88 0 0 1-.14-1.089l1.052-1.835-5.778 3.345v6.664l1.061-1.8Zm120.191-6.918-4.813-8.35-8.329-4.82-12.923 12.942-4.813 17.981 17.982-4.82 12.896-12.933Zm-77.152 40.949-2.718-2.722-10.074 2.704 10.135 2.722 2.657-2.704Zm2.103-15.295-10.082-2.704 7.373 7.384 3.691-.992-.982-3.688Zm83.537-25.092a.879.879 0 0 1-.141 1.088l-7.618 7.604 10.398-2.792a.719.719 0 0 1 .236 0 .872.872 0 0 1 .781.456l1.061 1.835v-6.725l-5.787-3.31 1.07 1.844Zm-19.623-34.005h8.566l4.278-7.507-4.322-7.419-8.575.035-4.243 7.437 4.296 7.454Zm-8.905-23.004-1.815 1.045h6.69l3.296-5.777-1.832 1.071a.947.947 0 0 1-.456.123.878.878 0 0 1-.64-.264l-7.61-7.621 2.788 10.396a.877.877 0 0 1-.421 1.027Zm21.144 30.08a.57.57 0 0 1-.175 0h-7.952l7.417 12.854 12.818 7.402v-14.856l-7.417-12.863-3.779 6.559a.883.883 0 0 1-.123.457.88.88 0 0 1-.789.447Zm-86.742 58.817-13.16-13.178-17.631-4.715-4.814 8.349v9.632l17.649 4.732 17.956-4.82Zm-42.629-41.178-1.052 1.835a.873.873 0 0 1-.789.448.892.892 0 0 1-.219 0l-10.407-2.792 7.61 7.621a.878.878 0 0 1 .14 1.098l-1.052 1.826 5.769-3.345v-6.691Zm7.068-28.551v2.098l3.34-5.803-3.34-5.751v2.124a.878.878 0 0 1-.675.878l-10.39 2.792 10.39 2.784a.874.874 0 0 1 .675.878Zm-19.37 63.645a.759.759 0 0 1 .202 0 .88.88 0 0 1 .62.257.88.88 0 0 1 .256.621l3.806 6.603 7.382-12.898v-14.812l-12.801 7.411-7.417 12.845h7.785l.167-.027Zm-23.811-49.299-7.374-7.384-3.7.992.991 3.687 10.083 2.705Z"/>
    <path fill="#DCDCDC" d="M206.155 220.007v-.105l-.421.614a.871.871 0 0 0 .421-.509Z" style="mix-blend-mode:multiply"/>
    <path fill="#DCDCDC" d="M346.643 14.364 356.462 0h-5.751l-.307 1.124L350.106 0h-7.312l3.849 14.364Z"/>
  </g>
</svg>
