<svg xmlns="http://www.w3.org/2000/svg" viewBox="0 0 1378.77 1378.77"><defs><style>.cls-1{isolation:isolate}.cls-2{mix-blend-mode:multiply}</style></defs><g class="cls-1"><g id="Layer_3" data-name="Layer 3"><path d="M1193.05,1373.6v5.17h35.23l-23.52-6.3v-19.19l9.6-16.64,34.41,9.2L1275,1372.1l-24.89,6.67h48.14l-.6-.61,12.29-3.29a.88.88,0,0,0,.52-.4.85.85,0,0,0,.09-.66l-3.38-12.29,12.36,3.31a.91.91,0,0,0,.23,0,.86.86,0,0,0,.83-.64l3.29-12.3,9,9a.87.87,0,0,0,1.22,0l9-9,3.29,12.27a.9.9,0,0,0,.41.53.92.92,0,0,0,.43.11.83.83,0,0,0,.22,0l12.32-3.38-3.32,12.38a.85.85,0,0,0,.09.66.83.83,0,0,0,.53.4l12.32,3.22-.66.67h10v-10.21l-8.18-2.19,2.24-8.34,5.94-1.6V1344.3l-2.44.65,2.44-9.09v-45.22l-3.31,12.39-26.28,26.27-9.6-35.84,9.23-34.44H1368l10.78,6.22v-17.91h-7.69l-25.95-14.93,26-15h7.64v-17.91l-10.74,6.19h-19.21l-9.24-34.4,9.61-35.86,26.23,26.22,3.35,12.5v-45l-2.54-9.39,2.54.68v-12.14l-6-1.59-2.23-8.33,8.18-2.26v-16.7l-2.45-2.44,2.45-2.45v-16.75l-8.18-2.19,2.24-8.34,5.94-1.6v-12.13l-2.44.65,2.44-9.08V979.77l-3.31,12.39-26.25,26.36-9.63-35.93,9.23-34.44H1368l10.74,6.2v-17.9h-7.56l-26.08-15,26-15h7.65V888.57L1368,894.76h-19.21l-9.24-34.4,9.61-35.86,26.23,26.22,3.35,12.5V818l-2.45-9.14,2.45.65V797.35l-6-1.6-2.23-8.33,8.18-2.26v-16.7l-2.45-2.45,2.45-2.44V746.81l-8.18-2.19,2.24-8.34,5.94-1.59V722.56l-2.44.65,2.44-9.09V668.9l-3.31,12.38-26.28,26.28-9.6-35.84,9.23-34.44H1368l10.74,6.2V625.57h-7.69l-25.95-14.93,26-15h7.65V577.7L1368,583.89h-19.21l-9.24-34.4,9.61-35.87,26.23,26.23,3.35,12.5V507.31l-2.54-9.39,2.54.68V486.47l-6-1.59-2.23-8.33,8.18-2.27V457.59l-2.45-2.45,2.45-2.44V435.94l-8.18-2.19,2.24-8.34,5.94-1.59V411.69l-2.44.65,2.44-9.09V358l-3.31,12.38-26.28,26.28-9.6-35.84,9.23-34.44H1368l10.74,6.19V314.7h-7.69l-25.95-14.93,26-15h7.65V266.82L1368,273h-19.21l-9.24-34.4,9.61-35.87L1375.42,229l3.35,12.5V196.44l-2.54-9.39,2.54.68V175.6l-6-1.59-2.23-8.33,8.18-2.27V146.72l-2.45-2.45,2.45-2.44V125.07l-8.18-2.19,2.24-8.34,5.94-1.59V100.82l-2.44.65,2.44-9.09V47.16l-3.31,12.38-26.28,26.27L1339.58,50l9.23-34.44H1368l10.74,6.19V3.83h-7.69L1364.43,0h-23.34l6.62,3.82h-7.24a.86.86,0,0,0-.83.63l-6.13,22.89-6.13-22.89a.86.86,0,0,0-.83-.64h-7.26L1325.84,0h-23.32l-6.61,3.82-30,.09L1268.19,0h-13.46l-2.2,3.84-17.31.08L1232.93,0h-26.32l-1.76,3.05V0h-27.34l15.63,4.19V23.37L1183.53,40l-34.41-9.2L1122.87,4.56l17-4.56h-45.29l-6.66,1.78a.87.87,0,0,0-.61,1.06l3.29,12.27-12.27-3.29-.22,0a.89.89,0,0,0-.84.64L1074,24.73l-9-9a.87.87,0,0,0-1.22,0l-9,9-3.29-12.27a.86.86,0,0,0-.83-.64.91.91,0,0,0-.23,0l-12.29,3.3,3.29-12.3a.83.83,0,0,0-.09-.65.84.84,0,0,0-.52-.4L1034.19,0H989.08L1006,4.49l-26.29,26.3L945.25,40l-9.61-16.65V4.18L951.19,0H923.92V3.08L922.12,0H895.8l-2.21,3.84-17.2.07L874.11,0H860.6l2.2,3.82h-30L826.2,0H802.86l6.59,3.8h-7.24a.86.86,0,0,0-.83.64l-6.13,22.88L789.12,4.43a.87.87,0,0,0-.84-.63H781L787.55,0H764.23l-6.58,3.81-30,.09L729.92,0H716.46l-2.19,3.82L697,3.91,694.68,0H668.34l-1.75,3V0H639.3l15.57,4.17V23.36L645.27,40l-34.41-9.2L584.6,4.54l17-4.54H556.28l-6.61,1.77a.84.84,0,0,0-.52.4.85.85,0,0,0-.09.66l3.29,12.27-12.27-3.29a.9.9,0,0,0-.66.08.89.89,0,0,0-.4.53l-3.29,12.29-9-9a.85.85,0,0,0-1.22,0l-9,9-3.28-12.27a.87.87,0,0,0-.84-.64l-.22,0-12.3,3.29,3.3-12.29a.87.87,0,0,0-.61-1.06L496,0H450.87l16.85,4.48-26.3,26.3L407,40l-9.6-16.6V4.16L412.87,0H385.66V3l-1.75-3H357.6l-2.2,3.86-17.28.08L335.82,0H322.31l2.22,3.85h-30L287.87,0H264.54l6.64,3.83h-7.24a.86.86,0,0,0-.83.64L257,27.35,250.84,4.46a.87.87,0,0,0-.83-.64h-7.25L249.33,0H226l-6.64,3.84-30,.09L191.66,0H178.2L176,3.85l-17.32.09L156.39,0h-26.3l-1.77,3.06V0h-27.4L116.6,4.2V23.38L107,40,72.59,30.83,46.33,4.57,63.39,0H18.11L11.4,1.8a.89.89,0,0,0-.53.4.87.87,0,0,0-.08.65l3.29,12.27L1.8,11.84a.83.83,0,0,0-.22,0,.85.85,0,0,0-.83.64L0,15.24V60.51L3.52,47.38,29.75,73.61,39,108.05l-16.62,9.59H3.15L0,105.92v23.45H2l-2,1.18v13.53l25.46-14.72H55.39l-8.2,14.2a1,1,0,0,0-.24.29.92.92,0,0,0-.1.32,1,1,0,0,0,.13.73.87.87,0,0,0,.2.23l8.22,14.21h-30L0,144.7v13.43l2,1.18H0v23.43L3.14,171H22.36L39,180.63,29.79,215,3.54,241.4,0,228.2v45.28l.73,2.74a.85.85,0,0,0,.41.52.82.82,0,0,0,.43.12.83.83,0,0,0,.22,0l12.3-3.3-3.3,12.3a.86.86,0,0,0,.61,1.05l12.27,3.29-9,9a.87.87,0,0,0,0,1.22l9.08,9L11.4,312.67a.87.87,0,0,0-.61,1.06L14.08,326,1.8,322.71a.83.83,0,0,0-.22,0,.85.85,0,0,0-.83.64L0,326.11v45.28l3.52-13.14,26.23,26.23L39,418.92l-16.62,9.59H3.15L0,416.79v23.45H2l-2,1.18V455l25.46-14.72H55.39l-8.2,14.2a1,1,0,0,0-.24.3.67.67,0,0,0-.1.31,1,1,0,0,0,.13.74.73.73,0,0,0,.21.22L55.4,470.2h-30L0,455.57V469l2,1.18H0v23.43L3.14,481.9H22.32L39,491.5l-9.19,34.4L3.54,552.27,0,539.07v45.28l.73,2.74a.9.9,0,0,0,.41.53.92.92,0,0,0,.43.11.83.83,0,0,0,.22,0l12.3-3.29-3.3,12.29a.82.82,0,0,0,.09.65.81.81,0,0,0,.52.4L23.67,601l-9,9a.85.85,0,0,0,0,1.21l9,9L11.4,623.54a.87.87,0,0,0-.61,1.06l3.29,12.27L1.8,633.58a.78.78,0,0,0-.22,0,.92.92,0,0,0-.43.11.89.89,0,0,0-.4.53L0,637v45.28l3.52-13.13,26.23,26.22L39,729.8l-16.62,9.58H3.15L0,727.67v23.44H2l-2,1.18v13.53L25.46,751.1H55.39l-8.2,14.2a1,1,0,0,0-.24.3.67.67,0,0,0-.1.31,1,1,0,0,0,.13.74.63.63,0,0,0,.21.22l8.21,14.21h-30L0,766.44v13.44l2,1.17H0v23.43l3.14-11.7,19.18,0L39,802.37l-9.19,34.41L3.54,863.14,0,850v45.27L.73,898a.86.86,0,0,0,.84.64l.22,0,12.3-3.29-3.3,12.29a.85.85,0,0,0,.09.66.88.88,0,0,0,.52.4l12.27,3.28-9,9a.86.86,0,0,0,0,1.22l9,9L11.4,934.41a.87.87,0,0,0-.61,1.06l3.29,12.27L1.8,944.45a.83.83,0,0,0-.22,0,.86.86,0,0,0-.83.64L0,947.85v45.28L3.52,980l26.23,26.22L39,1040.67l-16.62,9.59H3.15L0,1038.54V1062H2l-2,1.18v13.53L25.46,1062l29.93,0-8.2,14.2a1.13,1.13,0,0,0-.24.3.67.67,0,0,0-.1.31,1,1,0,0,0,.13.74.63.63,0,0,0,.21.22L55.4,1092l-30,0L0,1077.31v13.44l2,1.18H0v23.42l3.14-11.7,19.18,0L39,1113.25l-9.19,34.4L3.54,1174,0,1160.82v45.28l.73,2.73a.87.87,0,0,0,.41.53.92.92,0,0,0,.43.11.83.83,0,0,0,.22,0l12.32-3.38-3.32,12.39a.83.83,0,0,0,.09.65.86.86,0,0,0,.53.4l12.33,3.22-9,9a.87.87,0,0,0,0,1.22l9.08,9-12.37,3.32a.86.86,0,0,0-.61,1l3.29,12.27L1.8,1255.32a.83.83,0,0,0-.22,0,.86.86,0,0,0-.83.64L0,1258.72V1304l3.52-13.13,26.23,26.23L39,1351.54l-16.62,9.59H3.15L0,1349.41v23.44H2L0,1374v4.74H15.22l10.24-5.92,29.93,0L52,1378.77H65.44l3.39-5.94,17.32-.09,3.51,6h23.88l3-5.15v5.15h35.18l-23.46-6.29V1353.3l9.59-16.64,34.41,9.2,26.26,26.25-24.85,6.66h48l-.57-.57,12.37-3.32a.86.86,0,0,0,.53-.4.89.89,0,0,0,.08-.66l-3.37-12.29,12.36,3.32.22,0a.92.92,0,0,0,.43-.11.9.9,0,0,0,.41-.53l3.23-12.35,9.06,9.06a.87.87,0,0,0,1.22,0l9-9,3.29,12.28a.86.86,0,0,0,.83.64.83.83,0,0,0,.22,0l12.3-3.3-3.29,12.29a.86.86,0,0,0,.61,1.06l12.27,3.29-.59.59h48.06l-24.84-6.66,26.19-26.22,34.49-9.24,9.61,16.65v19.19l-23.36,6.28h35.08v-5.18l3,5.18h23.82l3.42-6H445l3.49,6H462l-3.49-6h29.95l10.42,6h23.38l-10.3-6h7.23a.86.86,0,0,0,.83-.64l6.14-22.88,6.13,22.89a.86.86,0,0,0,.83.64h7.22L530,1378.77h23.42l10.29-6h29.93l-3.44,6H603.7l3.41-6,17.31-.09,3.53,6.06H651.8l3-5.18v5.18h35.29l-23.57-6.32v-19.18l9.6-16.64,34.41,9.2,26.25,26.25-24.95,6.69H760l-.62-.62,12.3-3.3a.86.86,0,0,0,.61-1L769,1361.53l12.27,3.29a.91.91,0,0,0,.23,0,.88.88,0,0,0,.43-.12.86.86,0,0,0,.4-.53l3.23-12.35,9.06,9.06a.86.86,0,0,0,.61.25h0a.86.86,0,0,0,.61-.25l9-9.07,3.31,12.36a.87.87,0,0,0,.83.64.91.91,0,0,0,.23,0l12.29-3.3-3.29,12.3a.86.86,0,0,0,.61,1l12.27,3.29-.62.62h48.1l-24.91-6.62,26.3-26.3,34.44-9.23,9.61,16.6v19.24l-23.46,6.31h35.18v-5.18l3,5.18h23.85l3.41-6,17.29-.07,3.52,6h13.5l-3.44-6h29.86l10.35,6h23.43l-10.28-5.94h7.23a.88.88,0,0,0,.84-.64l6.13-22.88,6.13,22.89a.86.86,0,0,0,.83.63h7.23l-10.27,5.93h23.42l10.26-5.94h29.94l-3.44,6H1142l3.4-6,17.31-.09,3.52,6h23.87Zm176.3-47.9-6.09,22.76-8.35,2.23-2.23-8.32ZM17.59,260.46,9.23,262.7,7,254.45,23.69,237.7ZM7,345.18l2.24-8.34,8.32,2.23,6.1,22.77ZM17.59,571.33l-8.36,2.24L7,565.32l16.74-16.74ZM7,656.06l2.24-8.35,8.32,2.23,6.1,22.78ZM17.59,882.21l-8.36,2.24L7,876.19l16.74-16.74ZM7,966.93l2.24-8.35,8.32,2.23,6.1,22.78Zm10.57,226.15-8.35,2.23L7,1187l16.68-16.67ZM7,1277.8l2.24-8.35,8.32,2.23,6.1,22.78Zm1186.1,28.9-14.19,8.19,3.62-6.26a.85.85,0,0,0-.14-1l-16.75-16.75,22.89,6.13a.83.83,0,0,0,.22,0,.86.86,0,0,0,.75-.43l3.61-6.25Zm0-39.84-9.6,16.64-34.41-9.2L1122.87,1248l35.82-9.59,34.45,9.22Zm-105.2-21.59a.84.84,0,0,0-.52.4.9.9,0,0,0-.09.66l3.29,12.27-12.27-3.29a.83.83,0,0,0-.22,0,.87.87,0,0,0-.84.64l-3.23,12.36-9.06-9.06a.87.87,0,0,0-1.22,0l-9,9-3.29-12.27a.9.9,0,0,0-.41-.53.88.88,0,0,0-.42-.11.85.85,0,0,0-.23,0l-12.32,3.38,3.32-12.38a.82.82,0,0,0-.09-.65.85.85,0,0,0-.52-.41l-12.27-3.28,9-9a.86.86,0,0,0,0-1.22l-9-9,12.29-3.29a.86.86,0,0,0,.61-1.06l-3.28-12.27,12.27,3.29a.83.83,0,0,0,.22,0,.86.86,0,0,0,.83-.64l3.3-12.3,9,9a.87.87,0,0,0,1.22,0l9-9,3.29,12.27a.85.85,0,0,0,.83.64.83.83,0,0,0,.22,0l12.3-3.29-3.29,12.29a.85.85,0,0,0,.61,1l12.27,3.29-9,9a.88.88,0,0,0,0,1.22l9,9Zm12.29,49.18-16.66-16.66,2.23-8.35,8.32,2.22Zm-55-16.68-16.68,16.67,6.1-22.76,8.35-2.23Zm-185.76-15.14-6.29-3.62,16.36-.06,8.23,14.23-6.23-3.6a.87.87,0,0,0-.44-.11.82.82,0,0,0-.6.25l-16.76,16.75,6.13-22.87A.86.86,0,0,0,859.46,1262.63Zm-128.81,1,6.13,22.88L720,1269.72a.9.9,0,0,0-.61-.25.82.82,0,0,0-.43.12l-6.24,3.6,8.18-14.17h16.34l-6.23,3.6A.87.87,0,0,0,730.65,1263.59Zm-181-18.33a.86.86,0,0,0-.61,1l3.29,12.27-12.27-3.29a.91.91,0,0,0-.23,0,.86.86,0,0,0-.83.64l-3.29,12.3-9-9a.87.87,0,0,0-1.22,0l-9,9-3.28-12.28a.85.85,0,0,0-.41-.52.82.82,0,0,0-.43-.12.83.83,0,0,0-.22,0l-12.32,3.38,3.32-12.37a.87.87,0,0,0-.61-1.06L490.3,1242l9-9a.87.87,0,0,0,.26-.62.94.94,0,0,0-.26-.61l-9.08-9,12.37-3.32a.85.85,0,0,0,.61-1.06l-3.37-12.29,12.36,3.31a.83.83,0,0,0,.22,0,.85.85,0,0,0,.83-.64l3.3-12.29,9,9a.87.87,0,0,0,1.22,0l9-9,3.29,12.28a.86.86,0,0,0,.83.63l.22,0,12.3-3.3-3.29,12.3a.86.86,0,0,0,.6,1l12.28,3.29-9,9a.88.88,0,0,0,0,1.22l9,9ZM562,1294.43l-16.66-16.66,2.24-8.35,8.32,2.23Zm-55-16.68-16.68,16.68,6.1-22.76,8.35-2.24Zm-185.77-15.1-6.26-3.6h16.38l8.17,14.15-6.23-3.6a.81.81,0,0,0-.43-.11.85.85,0,0,0-.61.25l-16.75,16.75,6.13-22.88A.87.87,0,0,0,321.19,1262.65Zm-128.81,1,6.13,22.89-16.75-16.75a.82.82,0,0,0-.61-.25,1,1,0,0,0-.43.11l-6.26,3.62,8.11-14.18H199l-6.23,3.6A.85.85,0,0,0,192.38,1263.61ZM46.31,1216.72,72.5,1190.5l34.49-9.25,9.6,16.66v19.19l-34.38,9.24Zm13.21,15.67-22.76,6.1-6.11-6.11,6.09-6.09ZM106,1156.12l-3.62-6.28,14.2,8.12v16.49l-3.62-6.27a.85.85,0,0,0-.74-.43.91.91,0,0,0-.23,0l-22.88,6.13,16.76-16.75A.86.86,0,0,0,106,1156.12Zm-.13-159.39L89.13,980,112,986.12l.22,0a.88.88,0,0,0,.75-.43l3.6-6.25v16.38L102.4,1004l3.62-6.27A.88.88,0,0,0,105.88,996.73ZM106,845.24,102.39,839l14.2,8.12v16.49L113,857.31a.85.85,0,0,0-.74-.43.91.91,0,0,0-.23,0L89.12,863l16.76-16.76A.86.86,0,0,0,106,845.24Zm-.13-159.38L89.13,669.11,112,675.24a.83.83,0,0,0,.22,0,.88.88,0,0,0,.75-.43l3.6-6.25V685l-14.19,8.2L106,686.9A.88.88,0,0,0,105.88,685.86ZM106,534.37l-3.61-6.25,14.19,8.19V552.7L113,546.44a.85.85,0,0,0-.74-.43.91.91,0,0,0-.23,0l-22.88,6.13,16.76-16.76A.86.86,0,0,0,106,534.37ZM105.88,375,89.13,358.24,112,364.37a.83.83,0,0,0,.22,0A.88.88,0,0,0,113,364l3.6-6.25V374.1l-14.19,8.19L106,376A.88.88,0,0,0,105.88,375ZM106,223.5l-3.61-6.25,14.19,8.19v16.39L113,235.57a.85.85,0,0,0-.74-.43.61.61,0,0,0-.23,0L89.12,241.3l16.76-16.76A.86.86,0,0,0,106,223.5ZM86.15,129.26l8.72,15-8.64,15.13L69,159.42l-8.76-15,8.61-15.07ZM75.7,117.62l15-25.89L116.52,76.8l0,29.83-15,25.93-8.07-14a.77.77,0,0,0-.11-.53.83.83,0,0,0-.47-.39.85.85,0,0,0-.57-.22h0a.88.88,0,0,0-.52.18Zm16.4,53.44a.9.9,0,0,0,.28,0h0a.59.59,0,0,0,.23,0h.06a.85.85,0,0,0,.74-.43.9.9,0,0,0,.1-.62l8.07-14,15,26,0,29.93L90.69,197l-15-25.92ZM233.43,131.4a.86.86,0,0,0,.61-1.06l-3.37-12.29L243,121.36a.83.83,0,0,0,.22,0,.82.82,0,0,0,.43-.12.85.85,0,0,0,.41-.53l3.23-12.35,9.06,9.06a.87.87,0,0,0,1.22,0l9-9,3.29,12.27a.89.89,0,0,0,.4.53.92.92,0,0,0,.43.11.78.78,0,0,0,.22,0l12.3-3.29-3.29,12.29a.85.85,0,0,0,.61,1.05l12.27,3.29-9,9a.86.86,0,0,0-.25.61.83.83,0,0,0,.26.61l9.08,9-12.38,3.32a.84.84,0,0,0-.52.4.85.85,0,0,0-.09.66l3.29,12.27-12.27-3.29a.91.91,0,0,0-.23,0,1,1,0,0,0-.43.11.93.93,0,0,0-.4.53l-3.29,12.3-9-9a.85.85,0,0,0-1.22,0l-9,9-3.29-12.27a.86.86,0,0,0-.84-.64l-.22,0-12.3,3.29,3.3-12.29a.82.82,0,0,0-.09-.65.85.85,0,0,0-.52-.41l-12.27-3.28,9-9a.83.83,0,0,0,.26-.61.87.87,0,0,0-.26-.61l-9.08-9ZM221.15,82.22l16.66,16.66-2.24,8.36-8.29-2.15Zm55,16.68,16.67-16.67L286.72,105l-8.34,2.24ZM461.91,114l6.24,3.6H451.8l-8.18-14.15,6.23,3.6a.88.88,0,0,0,.43.12.86.86,0,0,0,.61-.25l16.75-16.76L461.51,113A.87.87,0,0,0,461.91,114Zm128.82-1-6.14-22.88,16.75,16.74a.87.87,0,0,0,.61.26.82.82,0,0,0,.43-.12l6.26-3.62-8.11,14.18H584.09l6.23-3.59A.87.87,0,0,0,590.73,113Zm181,18.33a.87.87,0,0,0,.61-1.06L769,118l12.27,3.29a.91.91,0,0,0,.23,0,.82.82,0,0,0,.43-.12.84.84,0,0,0,.4-.52l3.23-12.36,9.06,9.06a.85.85,0,0,0,1.22,0l9-9,3.29,12.27a.9.9,0,0,0,.41.53.88.88,0,0,0,.42.11.85.85,0,0,0,.23,0l12.31-3.38-3.31,12.38a.87.87,0,0,0,.61,1.06l12.27,3.28-9,9a.83.83,0,0,0-.26.61.87.87,0,0,0,.26.61l9.08,9-12.37,3.31a.86.86,0,0,0-.61,1.06l3.28,12.27-12.27-3.29a.83.83,0,0,0-.22,0,.82.82,0,0,0-.43.12.85.85,0,0,0-.41.52l-3.23,12.36-9.06-9.06a.87.87,0,0,0-1.22,0l-9,9-3.29-12.27a.85.85,0,0,0-.83-.64.91.91,0,0,0-.23,0L769,170.5l3.29-12.29a.83.83,0,0,0-.09-.65.81.81,0,0,0-.52-.4l-12.27-3.29,9-9a.86.86,0,0,0,.25-.61.88.88,0,0,0-.25-.61l-9-9ZM759.42,82.19l16.66,16.66-2.23,8.35L765.53,105Zm55,16.68L831.09,82.2,825,105l-8.35,2.23ZM1000.18,114l6.23,3.6H990.06l-8.18-14.15,6.23,3.6a.87.87,0,0,0,.44.11.82.82,0,0,0,.6-.25l16.75-16.75-6.13,22.88A.87.87,0,0,0,1000.18,114Zm128.81-1-6.13-22.88,16.74,16.75a.9.9,0,0,0,.61.25.92.92,0,0,0,.43-.11l6.27-3.62-8.11,14.17h-16.44l6.23-3.6A.87.87,0,0,0,1129,113.05Zm188.86,89.7,9.61,35.83L1318.23,273l-19.18,0-16.66-9.62,9.19-34.4Zm-20.17,3.6,6.1-22.76,8.34-2.24,2.23,8.33Zm-6.06,164.09L1282.39,336l16.62-9.59h19.2l9.25,34.4-9.61,35.87Zm22.72,39.3-2.23,8.36-8.3-2.15-6.12-22.87Zm3.51,103.88,9.61,35.83-9.23,34.44-19.18,0-16.66-9.62,9.19-34.39Zm-20.17,3.6,6.1-22.76,8.34-2.23,2.23,8.32Zm-6.06,164.09-9.23-34.44,16.61-9.59h19.21l9.25,34.4-9.61,35.86Zm22.72,39.3-2.23,8.36-8.3-2.15L1297.69,704Zm3.51,103.88,9.61,35.83-9.23,34.45H1299l-16.62-9.59,9.19-34.4Zm-20.17,3.6,6.1-22.76,8.34-2.23,2.23,8.32Zm-6.06,164.09-9.23-34.43,16.61-9.59h19.21l9.25,34.4-9.61,35.86Zm22.72,39.3-2.23,8.35-8.32-2.23-6.1-22.77Zm3.49,103.79,9.63,35.93-9.23,34.44h-19.18l-16.66-9.61,9.19-34.4Zm-20.15,3.69,6.1-22.76,8.34-2.23,2.23,8.32Zm-28.77,124.64,6.13,22.88-16.74-16.74a.87.87,0,0,0-.61-.26.82.82,0,0,0-.43.12l-6.24,3.6,8.18-14.16h16.34l-6.23,3.59A.88.88,0,0,0,1268.91,1263.6Zm-146.14-46.83,26.26-26.29,34.49-9.24,9.6,16.65v19.19l-34.39,9.24Zm13.28,15.61-22.75,6.09-6.11-6.1,6.08-6.09Zm-71.67-117-6.13-22.89a.88.88,0,0,0-.84-.63h-7.22l14.19-8.19,14.2,8.19h-7.24a.86.86,0,0,0-.83.64Zm0,45.28,6.1,22.76-6.09,6.1-6.11-6.11Zm-78.6,19.3-25.24-25.25,9.61-16.64,16.62-9.6,25.19,25.16,9.62,35.9Zm39.3,22.64,2.23,8.32-8.34,2.23-16.65-16.65Zm-165.22-1.6-6.13-22.89,16.74,16.75a.85.85,0,0,0,.61.25.87.87,0,0,0,.44-.11l6.26-3.62-8.11,14.18H853.23l6.23-3.59A.87.87,0,0,0,859.86,1201.05Zm13-20.32-25.2-25.16L838,1119.65l35.93,9.63,25.22,25.21-9.58,16.62ZM731.05,1202l6.27,3.61-16.34.07-8.22-14.24,6.23,3.6a.82.82,0,0,0,.43.12.87.87,0,0,0,.61-.26l16.75-16.75L730.65,1201A.87.87,0,0,0,731.05,1202Zm-13.42-21.28L701,1171.14l-9.61-16.64,25.17-25.2,35.86-9.61-9.6,35.83Zm-40.54-27.58,3.61,6.25-14.18-8.19v-16.39l3.61,6.27a.88.88,0,0,0,.75.43.83.83,0,0,0,.22,0l22.88-6.13-16.75,16.75A.86.86,0,0,0,677.09,1153.15Zm-151-37.73L520,1092.53a.86.86,0,0,0-.83-.64H511.9l14.13-8.23,14.28,8.24h-7.23a.86.86,0,0,0-.83.63Zm0,45.28,6.1,22.76-6.1,6.1-6.12-6ZM447.48,1180l-25.21-25.21,9.58-16.62,16.66-9.62,25.19,25.16,9.71,35.92Zm39.34,22.67,2.23,8.33-8.27,2.29-16.72-16.72Zm-165.23-1.55,10.61-6.14a.85.85,0,0,0,.61.25.81.81,0,0,0,.43-.11l6.24-3.6-8.18,14.15H315l6.23-3.59A.88.88,0,0,0,321.59,1201.08Zm13-20.32-25.2-25.16-9.62-35.9,35.8,9.57,25.25,25.25-9.61,16.64ZM192.78,1202l6.26,3.62-16.33.06-8.23-14.23,6.23,3.6a.86.86,0,0,0,.43.11.82.82,0,0,0,.61-.25l16.75-16.75-6.13,22.88A.85.85,0,0,0,192.78,1202Zm-13.42-21.27-16.61-9.59-9.61-16.64,25.17-25.2,35.86-9.61-9.6,35.82Zm-40.54-27.58,3.61,6.25-14.18-8.19v-16.39l3.61,6.26a.85.85,0,0,0,.74.43l.23,0,22.88-6.14L139,1152.14A.86.86,0,0,0,138.82,1153.18Zm-22.3-373L108.34,766l8.17-14.15v7.19a.86.86,0,0,0,.64.83L140,766l-22.87,6.13a.86.86,0,0,0-.64.83Zm0-310.87-8.19-14.18L116.51,441v7.19a.86.86,0,0,0,.64.83L140,455.16l-22.87,6.13a.87.87,0,0,0-.64.84Zm22.29-248.77,3.61,6.25-14.18-8.19V202.24l3.61,6.26a.85.85,0,0,0,.74.43.91.91,0,0,0,.23,0l22.88-6.13L139,219.53A.86.86,0,0,0,138.82,220.57Zm39.49-23.85,35.86-9.61-9.6,35.82-25.21,25.22-16.61-9.6-9.61-16.63Zm33.18-33.28,8.42,2.25L217.67,174l-22.77,6.11Zm-3.4-13.05-22.78-6.1,22.76-6.1,6.11,6.11Zm55,133.74a.86.86,0,0,0,.83.63h7.23L257,293l-14.2-8.19H250a.87.87,0,0,0,.84-.64L257,261.24Zm-12.23-90.94,6.09-6.1,6.13,6L257,216Zm84.7,3.47,25.24,25.25-9.57,16.61-16.66,9.62L309.4,223l-9.71-35.92ZM296.28,174l-2.23-8.33,8.28-2.29,16.72,16.72Zm165.24,1.56,6.13,22.88L450.9,181.71a.86.86,0,0,0-.61-.25.85.85,0,0,0-.43.12l-6.26,3.61L451.71,171h16.44l-6.23,3.6A.86.86,0,0,0,461.52,175.58Zm-13,20.31,25.19,25.17L483.41,257l-35.93-9.62-25.21-25.22,9.58-16.62Zm141.82-21.27-6.24-3.6h16.35l8.18,14.15-6.23-3.6a.92.92,0,0,0-.43-.11.9.9,0,0,0-.61.25L584.6,198.46l6.13-22.87A.86.86,0,0,0,590.33,174.62Zm13.41,21.27,16.62,9.6L630,222.12l-25.17,25.2-35.87,9.61,9.6-35.83Zm40.55,27.58-3.63-6.28,14.2,8.13V241.8l-3.61-6.26a.88.88,0,0,0-.75-.43.83.83,0,0,0-.22,0l-22.88,6.13,16.75-16.76A.86.86,0,0,0,644.29,223.47Zm32.8-2.93,3.61,6.25-14.18-8.19V202.21l3.61,6.26a.88.88,0,0,0,.75.43.83.83,0,0,0,.22,0L694,202.74,677.23,219.5A.86.86,0,0,0,677.09,220.54Zm39.49-23.85,35.86-9.61-9.6,35.82-25.21,25.22L701,238.52l-9.61-16.63Zm84.81,87.41a.87.87,0,0,0,.84.64h7.22l-14.19,8.19-14.19-8.19h7.23a.86.86,0,0,0,.83-.64l6.13-22.88Zm-12.23-90.94,6.09-6.09,6.11,6.11-6.1,22.75Zm210.62-17.57,6.13,22.88-16.75-16.74a.82.82,0,0,0-.61-.25.86.86,0,0,0-.43.11l-6.26,3.62L990,171h16.44l-6.23,3.59A.87.87,0,0,0,999.78,175.59Zm-13,20.32L1012,221.07l9.62,35.89-35.83-9.6-25.21-25.21,9.61-16.64Zm141.82-21.28-6.26-3.6h16.38l8.17,14.15-6.23-3.6a.82.82,0,0,0-.43-.12.87.87,0,0,0-.61.26l-16.75,16.75L1129,175.6A.87.87,0,0,0,1128.59,174.63ZM1142,195.91l16.61,9.59,9.61,16.63-25.17,25.21L1107.19,257l9.6-35.83Zm40.54,27.58-3.63-6.28,14.2,8.12v16.49l-3.61-6.27a.88.88,0,0,0-.75-.43.83.83,0,0,0-.22,0l-22.88,6.13,16.75-16.75A.87.87,0,0,0,1182.55,223.49Zm32.8-2.94,3.61,6.26-14.18-8.2V202.22l3.61,6.27a.88.88,0,0,0,.75.43.83.83,0,0,0,.22,0l22.88-6.13-16.75,16.75A.87.87,0,0,0,1215.35,220.55Zm39.49-23.85,35.87-9.61-9.6,35.83-25.22,25.21-16.61-9.59-9.61-16.63Zm33.28-33.25,8.32,2.23-2.23,8.34-22.75,6.1Zm-3.5-13.07-22.78-6.1,22.76-6.1,6.11,6.11Zm-27.37,112.07a.82.82,0,0,0,.43.12.87.87,0,0,0,.61-.26L1275,245.56l-6.13,22.88a.86.86,0,0,0,.4,1l6.24,3.6H1259.2L1251,258.85Zm-4.87,22.18,8.77,15-8.62,15.07-17.31.09-8.72-14.95,8.64-15.14ZM1269.31,1202l6.24,3.6H1259.2l-8.18-14.15,6.23,3.59a.82.82,0,0,0,.43.12.9.9,0,0,0,.61-.25l16.75-16.75-6.13,22.87A.86.86,0,0,0,1269.31,1202Zm-13.42-21.27-16.61-9.6-9.61-16.63,25.22-25.22,35.82-9.59-9.6,35.82Zm-40.54-27.58,3.63,6.28-14.2-8.13v-16.48l3.61,6.26a.88.88,0,0,0,.75.43.83.83,0,0,0,.22,0l22.89-6.13-16.76,16.76A.86.86,0,0,0,1215.35,1153.17Zm-10.58-41.75v-19.24l34.44-9.22,35.91,9.54-26.3,26.3-34.44,9.23Zm66.69,1.31,16.67-16.66,8.31,2.23-2.23,8.33Zm13.16-29.73-22.78-6.11,22.76-6.09,6.11,6.1Zm-45.41-12.18-34.45-9.22v-19.19l9.6-16.64,34.41,9.2,26.25,26.25Zm-56.66,85.28-3.63-6.28,14.2,8.12v16.5l-3.61-6.27a.88.88,0,0,0-.75-.43.83.83,0,0,0-.22,0l-22.88,6.13,16.75-16.76A.86.86,0,0,0,1182.55,1156.1Zm-15.33-26.53-15-25.91h16.4a.84.84,0,0,0,.27,0h0a.57.57,0,0,0,.22,0h.06a.86.86,0,0,0,.75-.43.84.84,0,0,0,.09-.62l8.08-14,15,25.93,0,29.94Zm-38.63-22.32-6.27-3.62,16.34-.06,8.22,14.23-6.23-3.59a.82.82,0,0,0-.43-.12.9.9,0,0,0-.61.25l-16.75,16.75,6.13-22.87A.86.86,0,0,0,1128.59,1107.25Zm16.88-15.31-8.67-15,8.57-15,17.31-.08,8.72,15-8.64,15.13Zm-145.69,16.27,6.13,22.88-16.75-16.75a.86.86,0,0,0-.61-.25.88.88,0,0,0-.43.12l-6.26,3.61,8.11-14.17h16.44l-6.23,3.6A.86.86,0,0,0,999.78,1108.21Zm-16.38-16.28-17.25.09-8.78-15,8.59-15h17.33l8.72,14.93Zm6.71-41.62-8.22-14.24,6.22,3.6a.88.88,0,0,0,.44.12.86.86,0,0,0,.6-.25l16.75-16.76-6.13,22.88a.89.89,0,0,0,.41,1l6.26,3.61Zm-3.35-25-16.61-9.59-9.61-16.63,25.17-25.2,35.86-9.61-9.6,35.82Zm-148.7,51.52,6.09-6.09,22.78,6.1-22.76,6.1Zm19.26,35.84-22.76-6.1-2.23-8.32,8.33-2.24Zm-16.67-55-8.33-2.23,2.16-8.32,22.84-6.12Zm-21.84,32.07a.85.85,0,0,0-.61,1l3.28,12.27-12.27-3.29-.22,0a.92.92,0,0,0-.43.11.9.9,0,0,0-.41.53l-3.23,12.35-9.06-9.06a.87.87,0,0,0-1.22,0l-9,9-3.29-12.28a.88.88,0,0,0-.4-.52.85.85,0,0,0-.66-.09L769,1103.2l3.32-12.37a.87.87,0,0,0-.61-1.06l-12.27-3.29,9-9a.87.87,0,0,0,0-1.22l-9-9,12.3-3.29a.87.87,0,0,0,.61-1.06L769,1050.66l12.27,3.28a.9.9,0,0,0,.66-.08.89.89,0,0,0,.4-.53l3.23-12.35,9.06,9.06a.87.87,0,0,0,1.22,0l9-9,3.29,12.28a.85.85,0,0,0,.41.52.79.79,0,0,0,.42.12.85.85,0,0,0,.23,0l12.31-3.38-3.31,12.38a.86.86,0,0,0,.61,1l12.27,3.29-9,9a.86.86,0,0,0,0,1.22l9,9ZM831.09,1139l-16.66-16.66,2.23-8.35,8.33,2.23Zm-29.71-13.25-6.12,22.84-6.1-22.76,6.1-6.1Zm-25.29-3.43L759.42,1139l6.09-22.76,8.35-2.24Zm-185.76-15-6.24-3.6h16.35l8.18,14.15-6.23-3.6a.82.82,0,0,0-.43-.12.87.87,0,0,0-.61.26l-16.75,16.75,6.13-22.88A.87.87,0,0,0,590.33,1107.23ZM607.25,1092l-8.76-15,8.62-15.07,17.31-.09,8.72,15-8.64,15.14Zm-6.81-41.8H584.1l6.22-3.59a.87.87,0,0,0,.41-1l-6.14-22.89,16.75,16.75a.85.85,0,0,0,.61.25.92.92,0,0,0,.43-.11l6.24-3.6Zm3.3-24.87-25.2-25.16-9.62-35.91,35.8,9.58L630,999.1l-9.62,16.64Zm-142.22,82.85,6.13,22.89-16.75-16.75a.82.82,0,0,0-.61-.25.84.84,0,0,0-.43.11l-6.26,3.62,8.11-14.18h16.44l-6.23,3.6A.85.85,0,0,0,461.52,1108.19Zm-16.38-16.27-17.29.08-8.75-15,8.61-15.07,17.28-.08,8.76,15Zm6.71-41.63-8.23-14.23,6.23,3.6a.86.86,0,0,0,.43.11.82.82,0,0,0,.61-.25l16.75-16.75-6.13,22.87a.87.87,0,0,0,.4,1l6.27,3.62Zm-3.35-25-16.62-9.59-9.61-16.64,25.18-25.2,35.86-9.61-9.6,35.83Zm-164.68,52.17,9,9-12.29,3.3a.84.84,0,0,0-.52.4.83.83,0,0,0-.09.65l3.29,12.27-12.27-3.29a1.81,1.81,0,0,0-.23,0,.87.87,0,0,0-.83.64l-3.29,12.3-9-9a.87.87,0,0,0-1.22,0l-9,9-3.29-12.27a.85.85,0,0,0-.41-.52.82.82,0,0,0-.43-.12.83.83,0,0,0-.22,0l-12.32,3.38,3.32-12.38a.86.86,0,0,0-.61-1l-12.27-3.29,9-9a.83.83,0,0,0,.26-.61.87.87,0,0,0-.26-.61l-9.08-9,12.37-3.32a.89.89,0,0,0,.53-.4.87.87,0,0,0,.08-.65l-3.29-12.28L243,1054a.83.83,0,0,0,.22,0,.92.92,0,0,0,.43-.11.9.9,0,0,0,.41-.53l3.23-12.35,9.06,9.06a.87.87,0,0,0,1.22,0l9-9,3.29,12.27a.85.85,0,0,0,.83.64.83.83,0,0,0,.22,0l12.3-3.29-3.29,12.3a.87.87,0,0,0,.08.65.89.89,0,0,0,.53.4l12.33,3.22-9.05,9A.88.88,0,0,0,283.82,1077.51Zm9,61.47-16.66-16.66,2.23-8.35,8.32,2.23Zm-29.71-13.25L257,1148.57l-6.1-22.76,6.09-6.1Zm-25.29-3.43L221.14,1139l6.1-22.75,8.35-2.24ZM192.38,331l6.13,22.88-16.75-16.75a.86.86,0,0,0-.61-.25.88.88,0,0,0-.43.12l-6.23,3.6,8.18-14.16H199l-6.23,3.6A.86.86,0,0,0,192.38,331Zm-13,20.31,25.19,25.16,9.71,35.92-35.92-9.62-25.22-25.22,9.58-16.61Zm142.22-82.85-6.13-22.88,16.74,16.74a.87.87,0,0,0,.61.26.82.82,0,0,0,.43-.12l6.26-3.62L331.4,273H315l6.23-3.6A.87.87,0,0,0,321.59,268.46ZM338,284.73l17.28-.08,8.75,15-8.6,15.08-17.28.07-8.77-15Zm-6.66,41.71,8.17,14.15L333.25,337a.82.82,0,0,0-.43-.12.9.9,0,0,0-.61.25l-16.75,16.75L321.59,331a.86.86,0,0,0-.4-1l-6.26-3.6Zm3.3,24.87,16.61,9.6,9.61,16.63-25.17,25.2-35.86,9.61,9.59-35.83Zm168-64.46a.87.87,0,0,0,.61-1.06l-3.29-12.27,12.28,3.29a.83.83,0,0,0,.22,0,.82.82,0,0,0,.43-.12.84.84,0,0,0,.4-.52l3.3-12.3,9,9a.87.87,0,0,0,1.22,0l9-9L539,276.19a.89.89,0,0,0,.4.53.9.9,0,0,0,.66.08l12.31-3.38-3.31,12.38a.89.89,0,0,0,.08.66.93.93,0,0,0,.53.4L562,290.08l-9,9.05a.88.88,0,0,0,0,1.22l9,9-12.29,3.29a.88.88,0,0,0-.52.4.85.85,0,0,0-.09.66L552.35,326l-12.27-3.29a.91.91,0,0,0-.23,0,.82.82,0,0,0-.43.12.84.84,0,0,0-.4.52l-3.23,12.36-9.06-9.06a.85.85,0,0,0-1.22,0l-9,9-3.28-12.27a.87.87,0,0,0-.84-.64l-.22,0L499.88,326l3.3-12.29a.87.87,0,0,0-.61-1.06l-12.27-3.28,9-9a.85.85,0,0,0,0-1.22l-9-9Zm-12.28-49.18L507,254.33l-2.24,8.35-8.32-2.23ZM520,250.92l6.12-22.84,6.1,22.77-6.1,6.09Zm25.29,3.43L562,237.68l-6.1,22.75-8.34,2.24ZM730.65,331l6.13,22.88L720,337.11a.87.87,0,0,0-.61-.26.82.82,0,0,0-.43.12l-6.24,3.6,8.18-14.16h16.34l-6.23,3.6A.87.87,0,0,0,730.65,331Zm-13,20.32,25.2,25.16,9.71,35.91-35.93-9.62-25.21-25.21L701,360.88Zm142.22-82.86-6.13-22.88,16.74,16.75a.9.9,0,0,0,.61.25.88.88,0,0,0,.44-.12l6.26-3.61L869.67,273H853.23l6.23-3.6A.86.86,0,0,0,859.86,268.43Zm16.38,16.28,17.25-.09,8.78,15.05-8.59,15-17.29.07-8.76-15Zm-6.71,41.62,8.23,14.24-6.23-3.6a.88.88,0,0,0-.44-.12.86.86,0,0,0-.6.25l-16.75,16.75L859.86,331a.86.86,0,0,0-.4-1l-6.28-3.62Zm3.35,24.95,16.61,9.6,9.61,16.63-25.17,25.2-35.86,9.61,9.6-35.82Zm167.95-64.42a.86.86,0,0,0,.53-.4.89.89,0,0,0,.08-.66l-3.37-12.29,12.36,3.31a.83.83,0,0,0,.22,0,.92.92,0,0,0,.43-.11.86.86,0,0,0,.4-.53l3.3-12.29,9,9a.87.87,0,0,0,1.22,0l9-9,3.29,12.28a.84.84,0,0,0,.4.52.82.82,0,0,0,.43.12.83.83,0,0,0,.22,0l12.3-3.3-3.29,12.3a.85.85,0,0,0,.61,1.05l12.27,3.29-9,9a.88.88,0,0,0,0,1.22l9,9-12.29,3.3a.86.86,0,0,0-.61,1l3.29,12.27-12.27-3.29-.22,0a.89.89,0,0,0-.84.64L1074,335.6l-9-9a.87.87,0,0,0-1.22,0l-9,9-3.29-12.27a.87.87,0,0,0-.83-.64.91.91,0,0,0-.23,0l-12.29,3.3,3.29-12.29a.87.87,0,0,0-.61-1.06l-12.27-3.29,9-9a.86.86,0,0,0,0-1.22l-9-9Zm-12.28-49.17,16.66,16.66L1043,262.7l-8.29-2.15Zm29.73,13.16,6.1-22.75,6.1,22.76-6.09,6.09Zm25.27,3.51,16.67-16.67-6.1,22.76-8.34,2.24Zm26.23,26.23-8.32-2.23,2.23-8.34,22.75-6.1Zm3.5,13.07,22.78,6.1-22.76,6.1-6.11-6.11Zm-3.55,25.21,16.72,16.72-22.77-6.11-2.23-8.32Zm105.62,212.55,3.61,6.26-14.18-8.2V513.1l3.61,6.26a.88.88,0,0,0,.75.43.83.83,0,0,0,.22,0l22.88-6.13-16.75,16.75A.87.87,0,0,0,1215.35,531.42ZM1230.68,558l15,25.92h-16.4a1.27,1.27,0,0,0-.28,0h0l-.23,0h0a.87.87,0,0,0-.75.44.82.82,0,0,0-.09.61l-8.08,14-14.94-25.86-.08-30Zm-15.19,132.86,16.75,16.75-22.89-6.14a.83.83,0,0,0-.22,0,.86.86,0,0,0-.75.43l-3.61,6.26V691.71l14.21-8.2-3.62,6.26A.87.87,0,0,0,1215.49,690.81Zm-10.64-12.68,0-29.84,15-25.93,8.06,14a.93.93,0,0,0,.11.54,1.94,1.94,0,0,0,1,.6.82.82,0,0,0,.51-.17h16.14l-15,25.89Zm0-74.46v-7.23l8.22,14.11-8.22,14.24V617.6a.88.88,0,0,0-.64-.84l-22.88-6.13,22.88-6.13A.86.86,0,0,0,1204.85,603.67Zm10.5,238.62,3.62,6.26-14.19-8.19V824l3.61,6.26a.88.88,0,0,0,.75.43.83.83,0,0,0,.22,0l22.88-6.13-16.75,16.75A.87.87,0,0,0,1215.35,842.29Zm12.51,53.49-8.07,14-15-25.85-.08-30,25.92,14.94,15.07,25.92h-16.49a.86.86,0,0,0-.28,0h0a.66.66,0,0,0-.23,0h0a.86.86,0,0,0-.75.43A.82.82,0,0,0,1227.86,895.78Zm.3,52a.87.87,0,0,0,.75.43h16.76L1230.75,974l-25.9,15,0-29.84,15-25.93Zm-13.78-130.6-9.61-16.6V781.32l34.39-9.24,35.9,9.62-26.19,26.21Zm-20.69-45a.86.86,0,0,0-.64.83v7.23L1184.88,766l8.17-14.16v7.2a.86.86,0,0,0,.64.83l22.87,6.13ZM1087.93,934.4a.85.85,0,0,0-.52.41.83.83,0,0,0-.09.65l3.38,12.29-12.36-3.31-.22,0a.87.87,0,0,0-.84.64L1074,957.34l-9-9a.87.87,0,0,0-1.22,0l-9,9-3.29-12.28a.86.86,0,0,0-.83-.63l-.23,0-12.29,3.3,3.29-12.29a.87.87,0,0,0-.61-1.06l-12.27-3.29,9-9a.86.86,0,0,0,0-1.22l-9-9,12.29-3.29a.86.86,0,0,0,.61-1.06l-3.37-12.29,12.36,3.31a.83.83,0,0,0,.22,0,.82.82,0,0,0,.43-.12.84.84,0,0,0,.4-.52l3.3-12.3,9,9a.86.86,0,0,0,.61.25.88.88,0,0,0,.61-.25l9-9,3.29,12.27a.84.84,0,0,0,.4.52.82.82,0,0,0,.43.12.83.83,0,0,0,.22,0l12.3-3.3-3.29,12.3a.83.83,0,0,0,.09.65.84.84,0,0,0,.52.4l12.27,3.29-9,9a.86.86,0,0,0-.25.61.83.83,0,0,0,.26.61l9.08,9Zm12.29,49.17-16.66-16.66,2.23-8.35,8.3,2.15Zm-29.71-13.25-6.12,22.85-6.1-22.77,6.1-6.1Zm-70.33-545.43,6.26,3.61-16.33.06-8.23-14.23,6.23,3.6a.87.87,0,0,0,.44.11.82.82,0,0,0,.6-.25L1005.91,401l-6.14,22.88A.89.89,0,0,0,1000.18,424.89Zm70.34,14.7a.86.86,0,0,0,.83.64h7.23l-14.19,8.18-14.2-8.19h7.23a.87.87,0,0,0,.84-.64l6.13-22.88Zm-12.23-90.93,6.09-6.09,6.11,6.1-6.1,22.75Zm70.7,75.27L1122.86,401l16.74,16.75a.85.85,0,0,0,.61.25.92.92,0,0,0,.43-.11l6.27-3.62-8.11,14.17h-16.44l6.23-3.59A.88.88,0,0,0,1129,423.93Zm53.56,110.43-3.63-6.28,14.2,8.12v16.49l-3.61-6.27a.88.88,0,0,0-.75-.43.83.83,0,0,0-.22,0l-22.88,6.13,16.75-16.75A.86.86,0,0,0,1182.55,534.36Zm0,310.87-3.61-6.25,14.18,8.19v16.4l-3.61-6.27a.88.88,0,0,0-.75-.43.83.83,0,0,0-.22,0L1165.66,863l16.75-16.76A.86.86,0,0,0,1182.55,845.23Zm-39.49,23.85-35.87,9.61,9.6-35.83L1142,817.65l16.61,9.6,9.61,16.63Zm-84.81-87.41a.89.89,0,0,0-.84-.64h-7.22l14.19-8.18,14.19,8.19h-7.23a.86.86,0,0,0-.83.64l-6.13,22.88Zm12.23,90.93-6.09,6.09-6.11-6.1,6.1-22.75Zm-70.7-75.26,6.13,22.88-16.75-16.75a.86.86,0,0,0-.61-.25.88.88,0,0,0-.43.12L981.86,807,990,792.78h16.44l-6.23,3.6A.86.86,0,0,0,999.78,797.34ZM1129,734.8l-6.13-22.89,16.74,16.75a.87.87,0,0,0,.61.26.82.82,0,0,0,.43-.12l6.27-3.62-8.11,14.18h-16.44l6.23-3.59A.88.88,0,0,0,1129,734.8Zm13-20.32-25.2-25.16-9.71-35.93L1143,663l25.24,25.24-9.57,16.62ZM1040.83,597.73a.86.86,0,0,0,.53-.4.89.89,0,0,0,.08-.66l-3.37-12.29,12.36,3.32a.83.83,0,0,0,.22,0,.86.86,0,0,0,.83-.64l3.3-12.3,9,9a.86.86,0,0,0,.61.25.88.88,0,0,0,.61-.25l9-9,3.29,12.27a.84.84,0,0,0,.4.52.82.82,0,0,0,.43.12.83.83,0,0,0,.22,0l12.3-3.3-3.29,12.3a.85.85,0,0,0,.61,1l12.27,3.29-9,9a.88.88,0,0,0,0,1.22l9,9-12.29,3.3a.86.86,0,0,0-.61,1.05l3.29,12.27-12.27-3.28-.22,0a.87.87,0,0,0-.84.64L1074,646.47l-9-9a.87.87,0,0,0-1.22,0l-9,9-3.29-12.28a.85.85,0,0,0-.41-.52.79.79,0,0,0-.42-.12.85.85,0,0,0-.23,0L1038.12,637l3.32-12.37a.85.85,0,0,0-.09-.66.84.84,0,0,0-.52-.4l-12.27-3.29,9-9a.86.86,0,0,0,0-1.22l-9-9Zm-12.28-49.17,16.66,16.66-2.24,8.35-8.29-2.14Zm29.73,13.16,6.1-22.75,6.1,22.76-6.09,6.09Zm25.27,3.52,16.67-16.68-6.1,22.76-8.34,2.24Zm16.67,107.47L1083.56,656l2.23-8.34,8.32,2.22Zm-29.73-13.17-6.1,22.75-6.1-22.76,6.09-6.09ZM1045.22,656l-16.68,16.67,6.1-22.76,8.35-2.23Zm3.48,13,9.63,35.88-9.24,34.49-19.17,0-16.67-9.62,9.19-34.4Zm8.72,82.09a.87.87,0,0,0,.84-.64l6.13-22.87,6.13,22.88a.86.86,0,0,0,.83.64h7.23l-14.19,8.19-14.2-8.2Zm13-46.11,9.61-35.87,26.23,26.23,9.23,34.44-16.61,9.59h-19.21Zm33.24-64.62-2.23-8.33,8.28-2.29,16.72,16.72Zm3.51-29.74,6.08-6.09,22.78,6.1-22.75,6.1Zm2.59-19.16-8.33-2.23,2.15-8.31,22.84-6.12Zm-29.73-39.3-9.61-35.83,9.23-34.44,19.18,0,16.66,9.62-9.19,34.4Zm-8.71-82a.86.86,0,0,0-.83.64l-6.13,22.88-6.13-22.89a.88.88,0,0,0-.84-.64h-7.25l14.13-8.23,14.29,8.24Zm-13,46.11-9.61,35.87-26.23-26.23-9.23-34.44,16.62-9.59h19.21Zm-33.16,124.06-22.83,6.13L1019,629.8l8.33,2.23Zm-3.59,13.1-9.6,35.83-25.21,25.21-16.61-9.59-9.61-16.64,25.17-25.2ZM988.11,728.8a.88.88,0,0,0,.44.12.83.83,0,0,0,.6-.26l16.76-16.75-6.14,22.88a.88.88,0,0,0,.41,1l6.26,3.61-16.33.07-8.22-14.24ZM983.25,751,992,766l-8.61,15.07-17.25.09-8.78-15,8.59-15Zm13.59,30.06,8.21-14.2a1.09,1.09,0,0,0,.23-.29.67.67,0,0,0,.1-.31,1,1,0,0,0-.13-.74.83.83,0,0,0-.2-.22l-8.22-14.22h29.86l26,15-25.93,15ZM1076,766.12l26-15,30-.09-8.25,14.28a1.22,1.22,0,0,0-.24.3.75.75,0,0,0-.09.3,1,1,0,0,0,.13.75.83.83,0,0,0,.2.22l8.21,14.21h-30Zm64.65,37.21a.81.81,0,0,0-.43-.11.85.85,0,0,0-.61.25l-16.75,16.75,6.13-22.87a.86.86,0,0,0-.4-1l-6.29-3.62,16.36-.06,8.22,14.23Zm4.86-22.18-8.76-15,8.62-15.07,17.31-.08,8.72,15-8.64,15.13Zm24.54-40.84a.94.94,0,0,0-.11-.54.86.86,0,0,0-.48-.38.83.83,0,0,0-1.08,0h-16.14l15-25.89,25.86-14.93v29.83l-15,25.93Zm8.88-47.16,3.62-6.26a.85.85,0,0,0-.14-1l-16.74-16.75,22.88,6.13a.83.83,0,0,0,.22,0,.86.86,0,0,0,.75-.43l3.61-6.26V685Zm4.6-31.4-34.41-9.19-26.25-26.26,35.82-9.6,34.45,9.23v19.18ZM1122.77,595,1149,568.74l34.49-9.24,9.6,16.65v19.19l-34.39,9.24Zm20.29-36.82-35.87,9.61,9.6-35.83L1142,506.78l16.61,9.59,9.61,16.64Zm-2.41-65.75a.81.81,0,0,0-.43-.11.85.85,0,0,0-.61.25l-16.75,16.75,6.13-22.88a.87.87,0,0,0-.4-1l-6.26-3.6h16.38l8.17,14.15Zm4.87-22.18-8.77-15,8.62-15.07,17.31-.08,8.72,14.95-8.64,15.13Zm-13.59-30.07-8.21,14.2a1.37,1.37,0,0,0-.24.29.8.8,0,0,0-.09.31.94.94,0,0,0,.13.74.7.7,0,0,0,.2.22l8.21,14.22h-30l-26-14.93,26-15Zm-79.16,14.94-26,15-30,.09L1005,456a1,1,0,0,0,.24-.29.67.67,0,0,0,.1-.31,1,1,0,0,0-.13-.74.7.7,0,0,0-.2-.22l-8.22-14.22h29.92Zm-69.52-15,8.76,15-8.61,15.07-17.25.08-8.78-15,8.59-15Zm6.72,41.8h16.44l-6.23,3.59a.87.87,0,0,0-.4,1l6.13,22.89L989.16,492.6a.82.82,0,0,0-.61-.25.86.86,0,0,0-.43.11l-6.26,3.62Zm-3.2,24.87L1012,531.94l9.62,35.89-35.83-9.6L960.54,533l9.57-16.62Zm38.31,74.12,2.23,8.32-8.34,2.24-16.65-16.66Zm-3.5,29.74-6.09,6.09-22.78-6.1,22.76-6.1ZM1006,626.23l-26.29,26.3-34.44,9.23-9.61-16.65V625.92L970,616.68Zm-66.72,48.61a.86.86,0,0,0,.75.43l.22,0,22.88-6.13-16.76,16.75a.86.86,0,0,0-.13,1l3.62,6.28-14.19-8.12V668.57Zm22.28,38.59,15,25.92h-17a.85.85,0,0,0-.73.47.81.81,0,0,0-.09.53l-8,13.94-14.94-25.85v-29.9Zm-2.81,78.31a.9.9,0,0,0,.1.62.87.87,0,0,0,.74.43h.06l.27,0h0a.85.85,0,0,0,.23,0h16.4l-15,25.89L935.72,833.6l0-29.93,15-25.93Zm11.42,35.51,16.62-9.6,25.2,25.16,9.7,35.92-35.92-9.63-25.21-25.21Zm54.93,64.53,2.23,8.32-8.27,2.3-16.72-16.72Zm-2.6-55-9.23-34.44,16.63-9.59h19.2l9.24,34.41L1048.71,863Zm22.73,39.3-2.23,8.35-8.33-2.23-6.1-22.78Zm0,90.81-16.68,16.67,6.1-22.76,8.35-2.23Zm38.33-90.79,16.67-16.68-6.1,22.76-8.34,2.24Zm-3.48-13-9.63-35.93,9.23-34.44h19.18l16.66,9.61-9.19,34.4Zm23.53,28.66,22.84-6.12-16.66,16.66-8.33-2.23Zm3.59,29.7,6.09-6.09,22.78,6.1-22.76,6.1Zm19.26,35.84-22.77-6.1-2.23-8.33,8.28-2.29Zm-3.67-51.43,26.3-26.3,34.44-9.23,9.6,16.65v19.19l-34.39,9.24Zm44.44-87.19-15-25.93h16.39a1.35,1.35,0,0,0,.29,0,.85.85,0,0,0,.23,0h0a.86.86,0,0,0,.75-.44.82.82,0,0,0,.09-.61l8.08-14,15,26,0,29.93Zm0-310.88-15-25.92h16.39a1.45,1.45,0,0,0,.29,0,1,1,0,0,0,.23,0h0a.87.87,0,0,0,.75-.43.85.85,0,0,0,.09-.62l8.08-14,15,26,0,29.93Zm2.83-78.39a.94.94,0,0,0-.11-.54.92.92,0,0,0-.47-.38.87.87,0,0,0-.58-.22.82.82,0,0,0-.51.17h-16.15l14.93-25.86,25.9-15v29.83l-14.91,26Zm8.88-47.16,3.62-6.26a.85.85,0,0,0-.14-1l-16.75-16.75,22.89,6.13a.83.83,0,0,0,.22,0,.86.86,0,0,0,.75-.43l3.61-6.26v16.38Zm-10.7-4.91L1158.66,394,1142,403.61l-25.2-25.16-9.71-35.93,35.9,9.6Zm-62,7.1,9.23,34.44-16.61,9.59h-19.21l-9.25-34.4,9.61-35.87Zm-22.72-39.3,2.23-8.35,8.32,2.23,6.11,22.78Zm-38.34,0-16.68,16.68,6.1-22.76,8.35-2.24Zm3.48,13,9.63,35.88-9.24,34.49-19.18,0-16.66-9.62,9.19-34.4Zm-23.54-28.66-22.83,6.12L1019,318.93l8.33,2.23Zm-3.59,13.1L1012,378.4l-25.21,25.21L970.15,394l-9.61-16.64,25.17-25.2ZM946.35,375a.86.86,0,0,0-.13,1l3.61,6.25-14.18-8.19V357.7l3.62,6.27a.86.86,0,0,0,.75.43l.22,0,22.88-6.13Zm15.2,27.57,15,25.92h-17a.87.87,0,0,0-.72.45.9.9,0,0,0-.1.53l-8.05,14-14.94-25.86v-29.9Zm-10.89,64.31,8.07,14a.92.92,0,0,0,.1.63.87.87,0,0,0,.74.43h.06a1.18,1.18,0,0,0,.27,0h0a.91.91,0,0,0,.23,0h16.4l-14.92,25.86-25.89,15,0-29.93Zm-.83,61.24-3.61,6.26a.86.86,0,0,0,.13,1l16.75,16.75L940.22,546a.91.91,0,0,0-.23,0,.85.85,0,0,0-.74.43l-3.61,6.26V536.31Zm-4.6,31.4,34.42,9.2L1005.9,595l-35.82,9.6-34.45-9.23V576.15Zm2.2,51.12-22.87,6.13a.86.86,0,0,0-.64.83v7.24l-8.22-14.12,8.21-14.24v7.19a.87.87,0,0,0,.64.84Zm-88,341.12-6.29-3.61,16.36-.07,8.23,14.24-6.23-3.6a.87.87,0,0,0-.44-.11.82.82,0,0,0-.6.25L853.74,975.6l6.12-22.87A.87.87,0,0,0,859.46,951.75Zm-64.21,8.19-6.13-22.89a.87.87,0,0,0-.84-.64h-7.22l14.19-8.18,14.2,8.19h-7.24a.86.86,0,0,0-.83.64Zm0,45.28,6.1,22.76-6.1,6.1-6.12-6Zm-64.6-52.5,6.13,22.88L720,958.85a.85.85,0,0,0-.61-.25.81.81,0,0,0-.43.11l-6.27,3.62,8.11-14.18h16.44l-6.23,3.6A.87.87,0,0,0,730.65,952.72ZM677.09,842.28l3.63,6.28-14.2-8.12V824l3.61,6.26a.88.88,0,0,0,.75.43l.22,0L694,824.48l-16.75,16.76A.86.86,0,0,0,677.09,842.28Zm0-310.87,3.61,6.25-14.18-8.19V513.08l3.61,6.26a.88.88,0,0,0,.75.43.56.56,0,0,0,.22,0L694,513.61l-16.75,16.76A.86.86,0,0,0,677.09,531.41Zm39.49-23.85L752.44,498l-9.6,35.82L717.63,559,701,549.39l-9.61-16.63Zm35.87-52.41-6.09,6.09-22.78-6.11L746.34,449Zm-19.26-35.84,22.77,6.1,2.23,8.33L749.91,436Zm16.58,55,8.42,2.26L756,484.85,733.17,491Zm21.94-32a.84.84,0,0,0,.52-.4.89.89,0,0,0,.08-.66l-3.37-12.29,12.36,3.31a.91.91,0,0,0,.23,0,.88.88,0,0,0,.43-.12.84.84,0,0,0,.4-.52l3.23-12.36,9.06,9.06a.83.83,0,0,0,.61.26h0a.87.87,0,0,0,.61-.26l9-9.06,3.31,12.36a.85.85,0,0,0,.41.52.78.78,0,0,0,.42.11.85.85,0,0,0,.23,0l12.31-3.37-3.31,12.37a.87.87,0,0,0,.61,1.06l12.27,3.29-9,9a.83.83,0,0,0-.26.61.87.87,0,0,0,.26.61l9.08,9L818.81,468a.86.86,0,0,0-.61,1.06l3.28,12.27-12.27-3.29a.83.83,0,0,0-.22,0,.82.82,0,0,0-.43.12.85.85,0,0,0-.41.53L804.92,491,795.86,482a.87.87,0,0,0-1.22,0l-9,9-3.29-12.27a.85.85,0,0,0-.83-.64.91.91,0,0,0-.23,0L769,481.37l3.29-12.29a.83.83,0,0,0-.09-.65.84.84,0,0,0-.52-.4l-12.27-3.29,9-9a.86.86,0,0,0,.25-.61.83.83,0,0,0-.26-.61l-9.08-9Zm-12.29-49.17,16.66,16.65-2.23,8.35-8.32-2.23Zm29.73,13.15,6.1-22.74,6.1,22.76-6.09,6.09Zm25.27,3.52,16.67-16.67L825,415.83l-8.35,2.23ZM801.39,595a.86.86,0,0,0,.84.64h7.25l-14.14,8.24-14.27-8.24h7.23a.86.86,0,0,0,.83-.64l6.13-22.88ZM789.16,504l6.09-6.09,6.11,6.11-6.1,22.75Zm70.7,75.27-6.13-22.88,16.74,16.75a.9.9,0,0,0,.61.25.88.88,0,0,0,.44-.12l6.26-3.61-8.11,14.17H853.23l6.23-3.6A.86.86,0,0,0,859.86,579.3Zm-.4,61.58-6.26-3.6h16.38l8.18,14.15-6.23-3.6a.88.88,0,0,0-.44-.12.83.83,0,0,0-.6.26l-16.75,16.75,6.12-22.88A.86.86,0,0,0,859.46,640.88Zm16.93-15.23-8.76-15,8.61-15.07,17.25-.09,8.77,15-8.67,15ZM862.8,595.59l-8.21,14.19a1.33,1.33,0,0,0-.23.3.67.67,0,0,0-.1.31.94.94,0,0,0,.13.74.83.83,0,0,0,.2.22l8.21,14.22-30,0-26-14.93,26-15Zm-44,183.32a.85.85,0,0,0-.6,1.05l3.28,12.27-12.27-3.29a.83.83,0,0,0-.22,0,.82.82,0,0,0-.43.12.9.9,0,0,0-.41.53l-3.23,12.35-9.06-9.06a.87.87,0,0,0-1.22,0l-9,9-3.29-12.28a.86.86,0,0,0-.83-.64.91.91,0,0,0-.23,0L769,792.25,772.31,780a.86.86,0,0,0-.61-1.06l-12.27-3.29,9-9a.88.88,0,0,0,.25-.61.86.86,0,0,0-.25-.61l-9-9,12.3-3.3a.86.86,0,0,0,.61-1.05L769,739.78l12.27,3.29a.91.91,0,0,0,.23,0A1,1,0,0,0,782,743a.93.93,0,0,0,.4-.53l3.29-12.29,9,9a.86.86,0,0,0,.61.25h0a.83.83,0,0,0,.61-.26l9-9.06,3.31,12.36a.85.85,0,0,0,.41.52.78.78,0,0,0,.42.11.85.85,0,0,0,.23,0l12.31-3.37-3.31,12.37a.87.87,0,0,0,.61,1.06l12.27,3.29-9,9a.83.83,0,0,0-.26.61.87.87,0,0,0,.26.61l9.08,9Zm12.29,49.17-16.66-16.66,2.23-8.35L825,805.3Zm-29.71-13.25-6.12,22.84-6.1-22.76,6.1-6.1Zm-25.29-3.43-16.67,16.68,6.09-22.76,8.35-2.24Zm19.16-162.33-6.13-22.89a.87.87,0,0,0-.84-.64H781l14.14-8.24,14.28,8.25h-7.24a.87.87,0,0,0-.83.64Zm0,45.28,6.1,22.76-6.09,6.09-6.11-6.11Zm-6.06-22.69-9.61,35.87L753.36,681.3l-9.23-34.44,16.61-9.59H780ZM776.08,720.6,773.85,729l-8.32-2.23-6.11-22.78Zm38.34,0,16.67-16.68L825,726.7l-8.35,2.24Zm-3.5-13.08-9.6-35.83,9.22-34.44h19.23l16.62,9.6-9.19,34.4Zm-27.28-97-26,15H727.71l8.21-14.2a1.09,1.09,0,0,0,.23-.29.67.67,0,0,0,.1-.31.94.94,0,0,0-.13-.74.87.87,0,0,0-.2-.23l-8.22-14.21h29.95Zm-46.36,26.76-6.23,3.59a.88.88,0,0,0-.4,1l6.13,22.89L720,648a.85.85,0,0,0-.61-.25.81.81,0,0,0-.43.11l-6.24,3.6,8.18-14.16Zm-19.64,24.88,25.2,25.16,9.71,35.92-35.93-9.63L691.41,688.4,701,671.78ZM756,736.28l2.23,8.32-8.35,2.24-16.65-16.66ZM752.45,766l-6.09,6.09L723.58,766l22.76-6.1Zm-2.59,19.16,8.33,2.23L756,795.72l-22.84,6.12Zm29.74,39.29,9.61,35.79L780,894.75H760.74l-16.62-9.59,9.2-34.4Zm8.7,82a.86.86,0,0,0,.83-.64L795.26,883l6.13,22.89a.86.86,0,0,0,.84.64h7.25l-14.14,8.23-14.27-8.24Zm13-46.11,9.61-35.87,26.22,26.23,9.23,34.44-16.61,9.59H810.56Zm33.24-64.62-2.24-8.33,8.28-2.3,16.72,16.73Zm3.5-29.74,6.09-6.09,22.78,6.1-22.76,6.1Zm2.59-19.16-8.32-2.23,2.24-8.34,22.75-6.1Zm-2.58-23.64,9.6-35.83,25.21-25.21,16.61,9.59,9.61,16.63-25.17,25.21Zm75.21-32.42a.85.85,0,0,0,.14-1l-3.63-6.28,14.2,8.12v16.49l-3.62-6.27a.86.86,0,0,0-.75-.43.83.83,0,0,0-.22,0l-22.88,6.13ZM898.1,663.21l-15-25.92h16.06a.91.91,0,0,0,.59.23h0a.85.85,0,0,0,.65-.33.84.84,0,0,0,.37-.35.91.91,0,0,0,.11-.53l8.05-14,14.94,25.85v29.91Zm2.81-78.31a.91.91,0,0,0-.1-.62.87.87,0,0,0-.75-.43h0a1.18,1.18,0,0,0-.27,0,.91.91,0,0,0-.23,0h-16.4l15-25.89L923.92,543l0,29.93L909,599Zm-11.38-35.53L872.87,559l-25.2-25.17L838,497.91l35.93,9.63,25.22,25.21Zm-55-64.51-2.24-8.32,8.28-2.3L857.32,491Zm2.59,55,9.23,34.44-16.61,9.59H810.56l-9.24-34.4,9.61-35.86Zm-22.72-39.3,2.23-8.35,8.33,2.23,6.1,22.78Zm-38.34,0L759.42,517.2l6.09-22.75,8.35-2.24Zm3.51,13.06,9.61,35.8L780,583.88H760.78l-16.66-9.61,9.2-34.4ZM719,573.31a.92.92,0,0,0,.43.11.85.85,0,0,0,.61-.25l16.75-16.75-6.13,22.87a.86.86,0,0,0,.4,1l6.24,3.6H720.93l-8.17-14.15Zm-4.87,22.18,8.77,15-8.62,15.07-17.31.08-8.72-14.95,8.64-15.13ZM689.9,636.86a.85.85,0,0,0,.75.43H707.4l-14.92,25.86-25.9,15V648.28l14.95-25.93Zm-9.19,46.63-3.62,6.26a.85.85,0,0,0,.14,1L694,707.54l-22.89-6.13a.91.91,0,0,0-.23,0,.85.85,0,0,0-.74.43l-3.61,6.26V691.7Zm-14.2,48,9.6-16.64,34.41,9.19,26.25,26.26L701,759.94l-34.45-9.23Zm70.35,50.08-26.3,26.3-34.44,9.23-9.61-16.6V781.3l34.39-9.24Zm-20.28,36.82,35.86-9.61-9.6,35.83-25.21,25.21L701,860.26l-9.61-16.63ZM719,884.18a.81.81,0,0,0,.43.11A.85.85,0,0,0,720,884l16.75-16.75-6.13,22.88a.87.87,0,0,0,.4,1l6.26,3.61-16.33.06-8.22-14.23Zm-4.82,22.26,8.72,14.93-8.62,15.07-17.31.08-8.72-14.95,8.64-15.13Zm13.54,30,8.21-14.2a1.09,1.09,0,0,0,.23-.29.67.67,0,0,0,.1-.31.94.94,0,0,0-.13-.74.87.87,0,0,0-.2-.23l-8.31-14.22h30l26.07,15-26,15Zm79.16-14.93,26-15H862.8l-8.21,14.19a1.76,1.76,0,0,0-.24.3.8.8,0,0,0-.09.31.93.93,0,0,0,.13.74.76.76,0,0,0,.21.23l8.2,14.21h-30Zm69.52,15-8.76-15,8.61-15.07,17.25-.08,8.77,15-8.67,15Zm-6.72-41.79H853.23l6.23-3.6a.85.85,0,0,0,.4-1l-6.13-22.89L870.47,884a.85.85,0,0,0,.61.25,1,1,0,0,0,.44-.11l6.26-3.62Zm3.2-24.88-25.2-25.16L838,808.78l35.93,9.63,25.22,25.21-9.58,16.62Zm-19.13-88.18,35.82-9.6L924,781.31v19.18l-9.6,16.64L880,807.93Zm-.1-31.28,26.27-26.28,34.48-9.24,9.61,16.6v19.24L889.61,760ZM909.8,537.66l3.62-6.26a.86.86,0,0,0-.13-1L896.54,513.6l22.88,6.14a.91.91,0,0,0,.23,0,.85.85,0,0,0,.74-.43l3.61-6.26v16.37Zm14.2-48-9.6,16.64L880,497.06l-26.25-26.25,35.82-9.6L924,470.43Zm-79.83-28.38-6.11-6.11,6.09-6.09,22.78,6.1ZM840.65,436l-8.32-2.23,2.24-8.34,22.75-6.1Zm-3.45-65.58-26.28,26.28-9.6-35.83,9.22-34.44h19.23l16.62,9.6Zm-35-55.72a.86.86,0,0,0-.83.64l-6.13,22.88-6.13-22.88a.87.87,0,0,0-.84-.64H781l14.14-8.24,14.28,8.25Zm-13,46.12-9.61,35.86-26.22-26.22L744.13,336l16.61-9.59H780Zm-52.42,78.68L701,449.07l-34.45-9.23V420.65l9.6-16.64,34.41,9.2Zm.09,31.27L710.56,497l-34.44,9.23-9.61-16.61V470.43l34.39-9.24Zm-44.44,87.19,15,25.92H691a.86.86,0,0,0-.28,0,.93.93,0,0,0-.23,0h0a.85.85,0,0,0-.75.43.84.84,0,0,0-.09.62l-8.08,14L666.58,573l-.08-30Zm-25.83,45.73v-7.24l8.22,14.12-8.22,14.24v-7.2a.86.86,0,0,0-.64-.83l-22.88-6.13L666,604.49A.86.86,0,0,0,666.59,603.66ZM553,922.09l9,9-12.29,3.29a.87.87,0,0,0-.61,1.06l3.29,12.27-12.27-3.29a.91.91,0,0,0-.23,0,.86.86,0,0,0-.83.64l-3.29,12.3-9-9a.87.87,0,0,0-1.22,0l-9,9L513.24,945a.85.85,0,0,0-.41-.52.82.82,0,0,0-.43-.12.83.83,0,0,0-.22,0l-12.32,3.38,3.32-12.37a.86.86,0,0,0-.61-1.06l-12.27-3.29,9-9a.83.83,0,0,0,.26-.61.92.92,0,0,0-.26-.61l-9.08-9,12.37-3.32a.87.87,0,0,0,.61-1.06l-3.29-12.27,12.28,3.29a.83.83,0,0,0,.22,0,.85.85,0,0,0,.83-.64l3.3-12.29,9,9a.86.86,0,0,0,.61.25.88.88,0,0,0,.61-.25l9-9L539,897.93a.85.85,0,0,0,.83.64.83.83,0,0,0,.22,0l12.3-3.29-3.29,12.29a.85.85,0,0,0,.61,1.06L562,911.82l-9,9A.88.88,0,0,0,553,922.09Zm9,61.47L545.29,966.9l2.24-8.35,8.32,2.23ZM532.22,970.4l-6.09,22.75L520,970.39l6.09-6.1ZM507,966.88l-16.68,16.67,6.1-22.75,8.35-2.24Zm-45-542,6.27,3.62-16.33.06-8.23-14.23,6.23,3.59a.88.88,0,0,0,.43.12.86.86,0,0,0,.61-.25L467.64,401l-6.13,22.87A.87.87,0,0,0,461.91,424.87Zm70.35,14.71a.87.87,0,0,0,.83.64h7.22l-14.18,8.19-14.2-8.19h7.23a.86.86,0,0,0,.83-.64l6.14-22.88ZM520,348.64l6.09-6.09,6.1,6.11-6.09,22.75Zm70.7,75.27L584.59,401l16.75,16.75a.9.9,0,0,0,.61.25.82.82,0,0,0,.43-.12l6.26-3.61-8.11,14.17H584.09l6.23-3.6A.86.86,0,0,0,590.73,423.91Zm53.56,110.43-3.63-6.28,14.2,8.13v16.49l-3.61-6.27a.88.88,0,0,0-.75-.43.83.83,0,0,0-.22,0l-22.88,6.13,16.75-16.76A.86.86,0,0,0,644.29,534.34Zm-54,262L584,792.75l16.36-.07,8.22,14.24-6.23-3.6a.82.82,0,0,0-.43-.12.87.87,0,0,0-.61.26L584.6,820.21l6.13-22.88A.86.86,0,0,0,590.33,796.36Zm-64.21,8.19L520,781.66a.86.86,0,0,0-.83-.64H511.9L526,772.78,540.31,781h-7.23a.87.87,0,0,0-.83.64Zm0,45.27,6.1,22.77-6.1,6.1-6.12-6Zm-64.6-52.5,6.13,22.88L450.9,803.46a.82.82,0,0,0-.61-.25.84.84,0,0,0-.43.11l-6.26,3.62,8.11-14.18h16.44l-6.23,3.59A.87.87,0,0,0,461.52,797.32Zm70.74-46.87a.87.87,0,0,0,.83.64h7.23l-14.19,8.19-14.2-8.19h7.23a.86.86,0,0,0,.83-.64l6.14-22.88ZM520,659.51l6.09-6.09,6.1,6.11-6.09,22.75ZM532.18,705l9.61-35.86L568,695.33l9.23,34.44-16.62,9.59H541.42ZM545.29,656l2.24-8.35,8.32,2.23,6.1,22.78Zm20.13-15.69L563.19,632l8.28-2.3,16.72,16.72Zm3.51-29.73,6.09-6.09,22.77,6.1L575,616.72Zm2.59-19.16-8.33-2.24,2.15-8.31,22.84-6.12Zm-29.71-39.21-9.63-35.93,9.23-34.43h19.22l16.62,9.59-9.19,34.41ZM562,548.55l-6.1,22.76-8.34,2.23-2.23-8.32Zm-29.74,13.17-6.1,6.09-6.12-6L526.12,539Zm.86-91.57a.86.86,0,0,0-.83.64l-6.13,22.88L520,470.78a.86.86,0,0,0-.83-.63H511.9L526,461.91l14.28,8.24Zm-13,46.12-9.61,35.86L484.22,525.9,475,491.47l16.62-9.59h19.21ZM507,565.2l-2.24,8.35-8.32-2.23-6.1-22.78Zm-4.38,32.52a.93.93,0,0,0,.53-.4.89.89,0,0,0,.08-.66l-3.29-12.27,12.28,3.29a.83.83,0,0,0,.22,0,.92.92,0,0,0,.43-.11.89.89,0,0,0,.4-.53l3.3-12.3,9,9a.83.83,0,0,0,.61.26.85.85,0,0,0,.61-.26l9-9L539,587.06a.86.86,0,0,0,.4.53.9.9,0,0,0,.66.08l12.31-3.38-3.31,12.38a.85.85,0,0,0,.61,1.06L562,601l-9,9a.88.88,0,0,0,0,1.22l9,9-12.29,3.29a.88.88,0,0,0-.52.4.85.85,0,0,0-.09.66l3.29,12.27-12.27-3.29a.91.91,0,0,0-.23,0,.82.82,0,0,0-.43.12.84.84,0,0,0-.4.52l-3.29,12.3-9-9a.87.87,0,0,0-1.22,0l-9,9-3.28-12.27a.9.9,0,0,0-.41-.53.92.92,0,0,0-.43-.11.83.83,0,0,0-.22,0l-12.3,3.29,3.3-12.29a.86.86,0,0,0-.61-1l-12.27-3.29,9-9a.83.83,0,0,0,.26-.61.92.92,0,0,0-.26-.61l-9.08-9ZM507,656l-16.68,16.67,6.1-22.75,8.35-2.24Zm3.51,13.06,9.6,35.8-9.24,34.49H491.61L475,729.76l9.19-34.4Zm-23.66-28.71-22.75,6.09,16.67-16.66,8.32,2.23Zm-3.5,13.07-9.6,35.82L448.5,714.47l-16.62-9.6-9.61-16.63L447.45,663Zm-33.46,75.36a1,1,0,0,0,.43.11.82.82,0,0,0,.61-.25l16.75-16.75-6.13,22.87a.87.87,0,0,0,.4,1l6.27,3.62-16.33.06-8.23-14.23ZM445,751l8.76,15-8.61,15.07-17.29.08-8.75-15,8.61-15.07Zm13.54,30.15,8.25-14.28a.89.89,0,0,0,.24-.3.67.67,0,0,0,.1-.31,1,1,0,0,0-.13-.74.73.73,0,0,0-.21-.22l-8.21-14.21h29.91l26,14.93-26,15Zm79.2-15,26-15,29.93,0-8.2,14.2a1.17,1.17,0,0,0-.24.3.85.85,0,0,0-.09.32.91.91,0,0,0,.13.73.7.7,0,0,0,.2.22l8.21,14.22-30,0Zm69.52,15-8.76-15,8.62-15.07,17.31-.09,8.72,14.95-8.64,15.14Zm-6.72-41.79H584.09l6.23-3.6a.86.86,0,0,0,.41-1l-6.14-22.88,16.75,16.75a.9.9,0,0,0,.61.25.82.82,0,0,0,.43-.12l6.26-3.61Zm3.21-24.87-25.2-25.16-9.62-35.91,35.8,9.58L630,688.23l-9.58,16.62ZM584.6,626.29l35.83-9.6,34.44,9.22V645.1l-9.6,16.64-34.41-9.2ZM584.52,595l26.3-26.3,34.44-9.22,9.6,16.65v19.19l-34.39,9.23Zm20.28-36.82-35.87,9.61,9.6-35.82,25.21-25.22,16.62,9.6L630,533Zm-2.41-65.74a.82.82,0,0,0-.43-.12.9.9,0,0,0-.61.25L584.6,509.33l6.13-22.87a.86.86,0,0,0-.4-1L584,481.87l16.36-.06L608.62,496Zm4.86-22.19-8.76-15,8.62-15.07,17.31-.09,8.72,14.95-8.64,15.14Zm-13.59-30.07-8.2,14.2a1.17,1.17,0,0,0-.24.3.8.8,0,0,0-.09.31.91.91,0,0,0,.12.73.66.66,0,0,0,.21.23l8.21,14.21h-30l-26-14.93,26-15Zm-79.22,15-25.93,15-30,.09L466.78,456a1,1,0,0,0,.24-.3.67.67,0,0,0,.1-.31,1,1,0,0,0-.13-.74.73.73,0,0,0-.21-.22l-8.21-14.21h29.9ZM445,440.1l8.76,15-8.61,15.07-17.29.09-8.75-15,8.61-15.08Zm6.72,41.79h16.44l-6.23,3.6a.86.86,0,0,0-.4,1l6.13,22.88L450.9,492.59a.83.83,0,0,0-.61-.26.85.85,0,0,0-.43.12l-6.26,3.62Zm-3.2,24.88,25.19,25.16,9.71,35.91-35.93-9.62L422.27,533l9.62-16.65Zm38.31,74.12,2.23,8.33-8.27,2.29-16.72-16.72Zm-3.5,29.73-6.09,6.1-22.78-6.11,22.76-6.1Zm-15.59,15.6-26.26,26.29L407,661.75l-9.6-16.61V625.9l34.39-9.23ZM401,674.82a.85.85,0,0,0,.74.43.91.91,0,0,0,.23,0l22.88-6.13-16.76,16.76a.86.86,0,0,0-.13,1l3.61,6.25L397.39,685V668.56Zm22.28,38.59,15,25.92H422a1.14,1.14,0,0,0-.41-.07h0a.78.78,0,0,0-.3.07.83.83,0,0,0-.71.43.89.89,0,0,0-.11.57l-8.07,14-14.94-25.86v-30Zm-10.89,64.36,8.07,14a.86.86,0,0,0,.8,1,1.21,1.21,0,0,0,.38.06h0a.71.71,0,0,0,.28-.06h16.35l-14.92,25.86-25.9,15,0-29.89Zm19.46,49.49,16.66-9.62L473.7,842.8l9.71,35.91-35.93-9.62-25.21-25.21Zm55,64.5,2.23,8.33-8.27,2.29-16.72-16.72Zm-2.6-55L475,802.34l16.62-9.59h19.21l9.24,34.4L510.45,863ZM507,876.08l-2.24,8.35-8.29-2.15-6.13-22.86Zm38.34,0L562,859.42l-6.1,22.76-8.34,2.23Zm-3.48-13-9.63-35.92,9.23-34.44h19.22l16.62,9.6-9.19,34.4Zm23.62,28.64,22.75-6.1-16.66,16.67-8.32-2.23Zm3.5-13.07,9.6-35.83,25.21-25.21,16.62,9.59L630,843.86,604.8,869.07Zm75.22-32.43a.86.86,0,0,0,.14-1l-3.63-6.27,14.2,8.12v16.49l-3.61-6.27a.88.88,0,0,0-.75-.43.83.83,0,0,0-.22,0L627.4,863ZM629,818.69l-15-25.92h16.39a1.33,1.33,0,0,0,.28,0h0a.83.83,0,0,0,.22,0h.06a.86.86,0,0,0,.74-.43.81.81,0,0,0,.1-.62l8.07-14,14.94,25.85,0,30Zm10.89-64.41-8.06-14a.94.94,0,0,0-.11-.54,1.1,1.1,0,0,0-1.57-.43H614l14.95-25.89,25.86-14.94,0,29.84Zm.82-61.14,3.62-6.27a.87.87,0,0,0-.14-1L627.4,669.08l22.89,6.14a.83.83,0,0,0,.22,0,.87.87,0,0,0,.75-.44l3.61-6.25v16.37ZM629,507.82,614,481.9h16.4a.8.8,0,0,0,.27,0h0a.66.66,0,0,0,.23,0h.05a.86.86,0,0,0,.75-.43.84.84,0,0,0,.09-.62l8.07-14,14.94,25.85.09,30.05Zm10.89-64.41-8.06-14a.89.89,0,0,0-.11-.53.92.92,0,0,0-.48-.39.87.87,0,0,0-.57-.21h0a.82.82,0,0,0-.51.17H614l14.95-25.88,25.86-14.94,0,29.83Zm.82-61.15,3.62-6.26a.86.86,0,0,0-.14-1L627.4,358.21l22.89,6.13a.83.83,0,0,0,.22,0,.88.88,0,0,0,.75-.43l3.61-6.26v16.38Zm-10.7-4.9L620.39,394l-16.65,9.62-25.2-25.16-9.71-35.91,35.93,9.62Zm-64.55-47.89-2.23-8.33,8.27-2.29,16.73,16.72Zm3.51-29.73,6.09-6.1,22.77,6.11L575,305.85Zm2.59-19.17-8.33-2.23,2.15-8.31,22.84-6.12ZM568,384.45l9.23,34.44-16.62,9.59H541.42l-9.24-34.4,9.61-35.86Zm-22.73-39.29,2.24-8.35,8.32,2.23,6.1,22.78Zm-38.33,0-16.68,16.67,6.1-22.76,8.35-2.23Zm3.51,13.06,9.6,35.8-9.24,34.49H491.65L475,418.88l9.19-34.39Zm-23.66-28.72L464,335.59l16.59-16.7,8.42,2.25Zm-3.5,13.08-9.6,35.82L448.5,403.6,431.88,394l-9.61-16.63,25.17-25.2ZM408.09,375a.86.86,0,0,0-.13,1l3.61,6.25-14.18-8.19V357.69L401,364a.85.85,0,0,0,.74.43.91.91,0,0,0,.23,0l22.88-6.13Zm15.19,27.56,15,25.92H422a1.05,1.05,0,0,0-.4-.07h0a.78.78,0,0,0-.3.07.84.84,0,0,0-.71.43.87.87,0,0,0-.11.57l-8.07,14-14.94-25.85V387.64ZM412.39,466.9l8.07,14a.83.83,0,0,0,.11.57.85.85,0,0,0,.69.43,1.21,1.21,0,0,0,.38.06.71.71,0,0,0,.28-.06h16.35l-14.92,25.86-25.9,15,0-29.89Zm-.82,61.2L408,534.36a.86.86,0,0,0,.13,1l16.75,16.75L402,546a.78.78,0,0,0-.22,0,.88.88,0,0,0-.75.43l-3.6,6.25V536.29ZM407,559.49l34.41,9.2L467.64,595l-35.83,9.59-34.44-9.22V576.13Zm2.2,51.12-22.88,6.13a.86.86,0,0,0-.63.83v7.21l-8.18-14.17,8.17-14.15v7.19a.86.86,0,0,0,.64.83Zm-88,341.17-6.29-3.61,16.36-.07,8.22,14.24-6.23-3.6a.82.82,0,0,0-.43-.12.87.87,0,0,0-.61.26l-16.75,16.75,6.13-22.88A.86.86,0,0,0,321.19,951.78Zm-70.35-14.7a.86.86,0,0,0-.83-.64h-7.25l14.14-8.24,14.28,8.25h-7.24a.86.86,0,0,0-.83.63L257,960ZM263.08,1028l-6.1,6.1-6.12-6,6.12-22.84Zm-70.7-75.27,6.13,22.88-16.75-16.74a.82.82,0,0,0-.61-.25.86.86,0,0,0-.43.11l-6.26,3.62,8.11-14.18H199l-6.23,3.59A.87.87,0,0,0,192.38,952.74ZM138.82,842.31l3.63,6.28-14.2-8.12V824l3.61,6.26a.85.85,0,0,0,.74.43.91.91,0,0,0,.23,0l22.88-6.13L139,841.27A.86.86,0,0,0,138.82,842.31Zm39.49-23.85,35.86-9.61-9.6,35.82-25.21,25.22-16.61-9.6-9.61-16.63Zm-39.49-287,3.61,6.25-14.18-8.19V513.11l3.61,6.26a.85.85,0,0,0,.74.43.91.91,0,0,0,.23,0l22.88-6.13L139,530.4A.86.86,0,0,0,138.82,531.44Zm39.49-23.85L214.17,498l-9.6,35.82L179.36,559l-16.61-9.6-9.61-16.63Zm55.12-65.32a.93.93,0,0,0,.53-.4.89.89,0,0,0,.08-.66l-3.29-12.27L243,432.23a.83.83,0,0,0,.22,0,.82.82,0,0,0,.43-.12.85.85,0,0,0,.41-.52l3.23-12.36,9.06,9.06a.85.85,0,0,0,1.22,0l9-9,3.29,12.27a.89.89,0,0,0,.4.53.92.92,0,0,0,.43.11.78.78,0,0,0,.22,0l12.3-3.29-3.29,12.29a.89.89,0,0,0,.08.66.93.93,0,0,0,.53.4l12.33,3.22-9.05,9.05a.88.88,0,0,0,0,1.22l9,9-12.29,3.29a.88.88,0,0,0-.52.4.85.85,0,0,0-.09.66l3.29,12.27-12.27-3.29a.91.91,0,0,0-.23,0,.82.82,0,0,0-.43.12.84.84,0,0,0-.4.52l-3.23,12.36L257.59,482a.87.87,0,0,0-1.22,0l-9,9-3.29-12.27a.86.86,0,0,0-.84-.64l-.22,0-12.3,3.29,3.3-12.29a.86.86,0,0,0-.61-1.05l-12.27-3.29,9-9a.83.83,0,0,0,.26-.61.85.85,0,0,0-.26-.61l-9-9Zm-12.28-49.18,16.66,16.66-2.24,8.35-8.32-2.23Zm29.71,13.25L257,383.51l6.1,22.76-6.1,6.09Zm25.29,3.43,16.67-16.67-6.1,22.76-8.34,2.23ZM241.33,824.5l9.6,35.79-9.24,34.49H222.47l-16.62-9.59,9.19-34.4Zm-20.19,3.6,6.1-22.75,8.35-2.24,2.23,8.32Zm29.75-13.17,6.09-6.09,6.13,6L257,837.7ZM250,906.5a.87.87,0,0,0,.84-.64L257,883l6.13,22.89a.86.86,0,0,0,.83.64h7.23L257,914.69l-14.2-8.19Zm13-46.11,9.61-35.87,26.23,26.23,9.23,34.44-16.62,9.59H272.28Zm13.12-48.94,2.23-8.35,8.32,2.23,6.11,22.78Zm7.66-44.81,9,9-12.29,3.29a.85.85,0,0,0-.52.41.82.82,0,0,0-.09.65l3.29,12.27L270.94,789a.91.91,0,0,0-.23,0,.82.82,0,0,0-.43.12.89.89,0,0,0-.4.53l-3.23,12.35-9.06-9.06a.87.87,0,0,0-1.22,0l-9,9-3.29-12.27a.88.88,0,0,0-.84-.64l-.22,0-12.3,3.3L234,780a.86.86,0,0,0-.61-1.05l-12.27-3.29,9-9a.83.83,0,0,0,0-1.21l-9-9,12.29-3.29a.85.85,0,0,0,.61-1l-3.29-12.28L243,743.1a.83.83,0,0,0,.22,0,.82.82,0,0,0,.43-.12.85.85,0,0,0,.41-.52l3.23-12.36,9.06,9.07a.87.87,0,0,0,1.22,0l9-9,3.29,12.27a.85.85,0,0,0,.83.64.83.83,0,0,0,.22,0l12.3-3.29-3.29,12.29a.85.85,0,0,0,.61,1.06l12.33,3.22-9.05,9A.88.88,0,0,0,283.82,766.64Zm-86-156.6a.83.83,0,0,0-.2-.22l-8.22-14.21h29.86l26,15-25.94,15-30,.09,8.25-14.28a.89.89,0,0,0,.24-.3.67.67,0,0,0,.1-.31A1,1,0,0,0,197.85,610Zm65.27-15a.87.87,0,0,0,.83.64h7.22L257,603.82l-14.2-8.19H250a.87.87,0,0,0,.84-.64L257,572.11Zm-12.23-90.94L257,498l6.1,6.11L257,526.83Zm70.7,75.27-6.13-22.88L332.2,573.2a.9.9,0,0,0,.61.25.82.82,0,0,0,.43-.12l6.26-3.61-8.1,14.17H315l6.23-3.6A.87.87,0,0,0,321.59,579.33Zm-.4,61.58-6.29-3.62,16.36-.06,8.22,14.24-6.23-3.6a.82.82,0,0,0-.43-.12.87.87,0,0,0-.61.26l-16.75,16.75,6.13-22.88A.86.86,0,0,0,321.19,640.91Zm16.93-15.23-8.77-15L338,595.61l17.28-.09,8.75,15-8.6,15.08Zm-13.6-30.07-8.2,14.2a1.44,1.44,0,0,0-.24.3.8.8,0,0,0-.09.31.94.94,0,0,0,.13.74.69.69,0,0,0,.2.22l8.21,14.21h-30l-26-14.93,26-15Zm-73.68,30.6a.86.86,0,0,0-.83-.64h-7.25l14.14-8.24,14.27,8.25h-7.23a.86.86,0,0,0-.83.64L257,649.09Zm12.24,90.93-6.1,6.1-6.12-6L257,694.38ZM222.47,637.3h19.21l9.24,34.4-9.61,35.86-26.23-26.23-9.22-34.43Zm15.34,83.33L235.57,729l-8.32-2.23L221.15,704Zm38.27.08L292.82,704l-6.1,22.76L278.37,729Zm-3.41-13.05L263,671.73l9.23-34.43h19.22l16.62,9.6-9.19,34.4Zm23.62,28.64L319,730.2l-16.66,16.67-8.32-2.23Zm3.51-13.08,9.59-35.82,25.22-25.21,16.61,9.59,9.61,16.63-25.17,25.2ZM375,690.8a.86.86,0,0,0,.14-1l-3.62-6.25,14.19,8.18V708.1l-3.61-6.27a.88.88,0,0,0-.75-.43.83.83,0,0,0-.22,0l-22.88,6.13Zm-15.19-27.56-15-25.92h16.29a1.4,1.4,0,0,0,.41.06h0a.66.66,0,0,0,.3-.07.85.85,0,0,0,.81-1l8.07-14,14.94,25.9v29.9Zm10.9-64.36-8.08-14a.9.9,0,0,0-.1-.58.89.89,0,0,0-.7-.43,1.19,1.19,0,0,0-.37-.06h0a.74.74,0,0,0-.28.06H344.84l15-25.89,25.86-14.94,0,29.89Zm.81-61.2,3.62-6.26a.87.87,0,0,0-.14-1l-16.75-16.75,22.89,6.14a.82.82,0,0,0,.22,0,.86.86,0,0,0,.75-.43l3.61-6.25v16.38Zm-10.7-4.9-9.57,16.62L334.6,559l-25.2-25.17-9.71-35.91,35.93,9.62Zm-64.55-47.89-2.23-8.33,8.28-2.29L319.05,491Zm2.6,55,9.23,34.44-16.62,9.59H272.28L263,549.51l9.61-35.86Zm-22.72-39.29,2.23-8.35,8.32,2.23,6.11,22.78Zm-38.34,0-16.68,16.67,6.1-22.75,8.35-2.24Zm3.5,13.07,9.6,35.84-9.23,34.44H222.51l-16.66-9.61,9.19-34.4Zm-27.14-58.46-6.09,6.1-22.78-6.11,22.76-6.1Zm-19.26-35.83,22.76,6.1,2.23,8.32L211.57,436Zm16.57,55,8.42,2.26-2.24,8.34L194.9,491Zm-30.78,99a1,1,0,0,0,.43.11.86.86,0,0,0,.61-.25l16.75-16.75-6.13,22.87a.86.86,0,0,0,.41,1l6.26,3.62-16.33.06-8.23-14.23Zm-4.86,22.18,8.76,15L176,625.6l-17.32.08L150,610.73l8.64-15.14Zm6.82,41.79H199l-6.23,3.59a.86.86,0,0,0-.4,1l6.13,22.88L181.76,648a.83.83,0,0,0-.61-.26.88.88,0,0,0-.43.12l-6.23,3.6Zm-3.3,24.88,25.19,25.16,9.71,35.92-35.92-9.63-25.22-25.21,9.62-16.65Zm38.31,74.12,2.23,8.32-8.34,2.23-16.65-16.65Zm-3.5,29.74-6.09,6.09L185.32,766l22.75-6.09Zm-2.59,19.16,8.33,2.23-2.16,8.31-22.84,6.12Zm-30.88,99a.86.86,0,0,0,.43.11.82.82,0,0,0,.61-.25l16.75-16.75-6.13,22.87a.86.86,0,0,0,.41,1l6.26,3.62-16.33.06-8.23-14.23Zm-4.86,22.18,8.76,15L176,936.47l-17.32.08L150,921.6l8.64-15.13Zm13.54,30.15,8.25-14.27a1.13,1.13,0,0,0,.24-.3.75.75,0,0,0,.1-.32,1,1,0,0,0-.13-.74.83.83,0,0,0-.2-.22l-8.22-14.21h29.91l26,14.93-26,15Zm79.2-15,26-15h29.93l-8.2,14.19a1.76,1.76,0,0,0-.24.3.85.85,0,0,0-.09.32.92.92,0,0,0,.13.73.69.69,0,0,0,.2.22l8.21,14.22h-30Zm69.53,15-8.77-15L338,906.48l17.28-.09,8.75,15-8.6,15.08Zm-6.73-41.79H315l6.24-3.6a.87.87,0,0,0,.4-1l-6.13-22.88,16.74,16.75a.9.9,0,0,0,.61.25.82.82,0,0,0,.43-.12l6.26-3.61Zm3.21-24.87-25.2-25.16-9.71-35.93,35.9,9.6,25.24,25.25-9.57,16.62Zm-38.32-74.13-2.23-8.32,8.34-2.23,16.66,16.66ZM299.79,766l6.09-6.09,22.77,6.1-22.75,6.1Zm15.59-15.6,26.3-26.29,34.44-9.23,9.61,16.65v19.19L351.34,760Zm70.35-260.78-9.6,16.64-34.41-9.2-26.26-26.25,35.83-9.6,34.44,9.22ZM305.9,461.27l-6.11-6.11,6.08-6.1,22.78,6.11ZM302.38,436l-8.32-2.23,2.23-8.34L319,419.33Zm-3.46-65.57-26.25,26.37L263,360.86l9.23-34.44h19.18L308.11,336Zm-35-55.72a.86.86,0,0,0-.83.64L257,338.22l-6.14-22.89a.87.87,0,0,0-.83-.64h-7.25l14.13-8.24,14.28,8.24Zm-13,46.12-9.61,35.86-26.23-26.23L205.86,336l16.61-9.59h19.21ZM198.5,439.5l-35.83,9.59-34.44-9.22V420.68L137.83,404l34.41,9.2Zm.09,31.27-26.31,26.3-34.43,9.23-9.61-16.61V470.45l34.39-9.23ZM154.15,558l15,25.92H152.73a.9.9,0,0,0-.28,0,.59.59,0,0,0-.23,0h-.06a.85.85,0,0,0-.74.43.9.9,0,0,0-.1.62l-8.07,14-14.94-25.85L128.22,543Zm-10.9,64.42,8.07,14a.87.87,0,0,0,.58.92.86.86,0,0,0,.57.21h0a.87.87,0,0,0,.52-.17h16.14l-15,25.88-25.86,14.94,0-29.83Zm-.82,61.14-3.61,6.26a.86.86,0,0,0,.13,1l16.75,16.75-22.89-6.13a.78.78,0,0,0-.22,0,.85.85,0,0,0-.74.43l-3.61,6.26V691.72Zm-14.19,48,9.59-16.63,34.41,9.19,26.26,26.26L162.67,760l-34.44-9.23Zm70.28,50.16-26.24,26.23-34.43,9.23-9.61-16.6V781.33l34.39-9.24Zm-44.37,87.12,15,25.92H152.73a.9.9,0,0,0-.28,0,.85.85,0,0,0-.23,0h-.06a.85.85,0,0,0-.74.43.9.9,0,0,0-.1.62l-8.07,14-14.94-25.86-.09-30.05Zm-10.9,64.42,8.07,14a1.36,1.36,0,0,0,1.15,1.14h0a.88.88,0,0,0,.52-.18h16.14l-15,25.89L128.31,989l0-29.83Zm19.46,49.43,16.66-9.62,25.19,25.16,9.71,35.92-35.92-9.63L153.13,999.3Zm55,64.5,2.23,8.33-8.27,2.29-16.72-16.72Zm-3.5,29.74-6.09,6.09-22.78-6.1,22.76-6.1Zm-2.59,19.16,8.33,2.23-2.15,8.31-22.84,6.12Zm3.49-103.88-9.22-34.44,16.61-9.59h19.21l9.24,34.4-9.61,35.87Zm22.73,39.3-2.24,8.35-8.29-2.15-6.13-22.86Zm38.27.08,16.74-16.74-6.1,22.76-8.35,2.24Zm-3.41-13L263,982.61l9.23-34.44h19.22l16.62,9.6-9.19,34.4Zm27.12,58.37,6.09-6.09,22.78,6.1L305.9,1083Zm19.26,35.84-22.77-6.11-2.23-8.31,8.34-2.24Zm-16.67-55-8.32-2.23,2.23-8.34,22.75-6.1Zm-2.58-23.64,9.59-35.83,25.22-25.21,16.61,9.59,9.61,16.63-25.17,25.21ZM375,1001.68a.87.87,0,0,0,.14-1l-3.63-6.28,14.2,8.12V1019l-3.61-6.27a.88.88,0,0,0-.75-.43.83.83,0,0,0-.22,0l-22.88,6.13Zm-15.19-27.57-15-25.92h16.29a1.4,1.4,0,0,0,.41.06.72.72,0,0,0,.29-.06.86.86,0,0,0,.72-.43.9.9,0,0,0,.1-.58l8.07-14,14.94,25.9V989Zm10.9-64.35-8.08-14a.86.86,0,0,0-.1-.57.84.84,0,0,0-.7-.43,1.19,1.19,0,0,0-.37-.06h0a.92.92,0,0,0-.28,0H344.84l15-25.89,25.86-14.94,0,29.9Zm.81-61.2,3.62-6.27a.87.87,0,0,0-.14-1l-16.75-16.74,22.89,6.13.22,0a.86.86,0,0,0,.75-.43l3.61-6.25v16.37Zm14.2-48-9.6,16.64L341.72,808l-26.26-26.26,35.83-9.6,34.44,9.23ZM373.93,766l22.88-6.13a.86.86,0,0,0,.64-.83v-7.23L405.67,766l-8.22,14.24V773a.87.87,0,0,0-.64-.83ZM411.57,839,408,845.23a.88.88,0,0,0,.14,1L424.84,863,402,856.89a.78.78,0,0,0-.22,0,.88.88,0,0,0-.75.43l-3.6,6.26V847.17Zm-14.2,48,9.6-16.65,34.41,9.2,26.26,26.26-35.83,9.6-34.44-9.23Zm79.84,28.38,6.11,6.11-6.09,6.09-22.78-6.11Zm3.52,25.27,8.33,2.23-2.15,8.31-22.84,6.12Zm3.45,65.57L510.47,980l9.6,35.79-9.24,34.49H491.61L475,1040.63Zm35,55.72a.86.86,0,0,0,.83-.64l6.14-22.88,6.13,22.89a.86.86,0,0,0,.83.64h7.22l-14.18,8.18-14.2-8.19Zm13-46.11L541.79,980,568,1006.19l9.23,34.45-16.62,9.59H541.42Zm33.24-64.63-2.23-8.32,8.34-2.23,16.66,16.66Zm3.51-29.73,6.09-6.09,22.78,6.1L575,927.59Zm15.59-15.59,26.3-26.31,34.44-9.22,9.6,16.65V906.2l-34.39,9.24ZM654.79,773v7.2L646.62,766l8.16-14.15V759a.88.88,0,0,0,.64.84L678.3,766l-22.87,6.13A.87.87,0,0,0,654.79,773Zm37.63,95.84,15,25.92H691a.86.86,0,0,0-.28,0,.85.85,0,0,0-.23,0h0a.87.87,0,0,0-.75.43.85.85,0,0,0-.09.62l-8.08,14-14.94-25.86-.08-30Zm-10.9,64.41,8.07,14a.94.94,0,0,0,.11.54.86.86,0,0,0,.48.38.82.82,0,0,0,.56.22h0a.78.78,0,0,0,.52-.18H707.4l-15,25.89L666.58,989V959.15ZM701,982.65,717.64,973l25.2,25.16,9.71,35.92-35.93-9.63-25.21-25.21Zm55,64.5,2.23,8.32-8.34,2.24-16.66-16.66Zm-3.51,29.74-6.09,6.09-22.77-6.1,22.75-6.1Zm-2.59,19.16,8.33,2.23L756,1106.6l-22.84,6.12Zm3.5-103.88-9.23-34.44,16.61-9.59H780l9.24,34.4-9.61,35.87Zm22.72,39.3-2.23,8.35-8.32-2.23-6.11-22.78Zm38.34,0,16.67-16.68L825,1037.57l-8.35,2.24Zm-3.48-13-9.62-35.93,9.22-34.44h19.23l16.62,9.59-9.19,34.4Zm27.13,15.56,9.6-35.83L872.88,973l16.61,9.59,9.61,16.64-25.17,25.2Zm75.21-32.42a.85.85,0,0,0,.14-1l-3.62-6.26,14.19,8.18v16.41l-3.62-6.27a.86.86,0,0,0-.75-.43.83.83,0,0,0-.22,0l-22.88,6.13ZM898.1,974.08l-15-25.92H899.2a.91.91,0,0,0,.57.21h0a.9.9,0,0,0,.63-.3.82.82,0,0,0,.39-.37.86.86,0,0,0,.11-.52l8.05-14,14.94,25.86V989ZM909,909.77l-8.07-14a.9.9,0,0,0-.1-.62.85.85,0,0,0-.75-.43h0a.9.9,0,0,0-.28,0,.59.59,0,0,0-.23,0h-16.4l15-25.89,25.85-14.93,0,29.93Zm.82-61.24,3.62-6.26a.86.86,0,0,0-.13-1l-16.75-16.75,22.88,6.13a.91.91,0,0,0,.23,0,.85.85,0,0,0,.74-.43L924,824v16.37ZM912.21,766l22.87-6.13a.86.86,0,0,0,.64-.83v-7.24l8.22,14.12-8.21,14.24V773a.87.87,0,0,0-.64-.83Zm37.62,73-3.61,6.26a.88.88,0,0,0,.13,1L963.1,863l-22.88-6.14a.91.91,0,0,0-.23,0,.85.85,0,0,0-.74.43l-3.61,6.26V847.19Zm-14.2,48,9.6-16.64,34.42,9.2,26.25,26.25-35.82,9.6-34.45-9.23Zm79.84,28.38,6.11,6.11-6.09,6.09-22.77-6.1Zm3.52,25.27,8.33,2.23-2.16,8.32-22.83,6.12Zm3.45,65.57,26.26-26.37,9.63,35.89-9.24,34.49h-19.22l-16.62-9.59Zm35,55.73a.88.88,0,0,0,.84-.64l6.13-22.88,6.13,22.88a.86.86,0,0,0,.83.64h7.22l-14.18,8.19-14.2-8.2Zm13-46.12,9.55-35.93,26.29,26.29,9.23,34.45-16.62,9.58h-19.2Zm36.75-51.55,35.8,9.57,25.24,25.24-9.57,16.62-16.66,9.62-25.2-25.15Zm21.8,81.37-6.13-22.88,16.74,16.74a.87.87,0,0,0,.61.26.82.82,0,0,0,.43-.12l6.27-3.62-8.12,14.18h-16.44l6.24-3.6A.88.88,0,0,0,1129,1045.67Zm41.06,5.51a.89.89,0,0,0-.11-.53,1.94,1.94,0,0,0-1-.6.82.82,0,0,0-.51.17h-16.15l14.92-25.86,25.91-15v29.83l-14.91,26Zm8.88-47.16,3.62-6.26a.85.85,0,0,0-.14-1L1165.66,980l22.89,6.13a.83.83,0,0,0,.22,0,.86.86,0,0,0,.75-.43l3.61-6.26v16.39Zm4.6-31.39-34.41-9.2-26.25-26.26,35.82-9.6,34.45,9.23V956Zm-2.19-51.13,22.87-6.12a.86.86,0,0,0,.64-.83v-7.24l8.22,14.11-8.22,14.24v-7.19a.88.88,0,0,0-.64-.84ZM1219,994.38l-3.62,6.26a.86.86,0,0,0,.14,1l16.75,16.75-22.89-6.13a.83.83,0,0,0-.22,0,.86.86,0,0,0-.75.43l-3.61,6.26v-16.38Zm10.7,4.9,9.62-16.64,16.61-9.59,25.2,25.16,9.61,35.89-35.79-9.57Zm39.24-46.55,6.13,22.88-16.74-16.75a.9.9,0,0,0-.61-.25.82.82,0,0,0-.43.12l-6.24,3.6,8.18-14.16h16.34l-6.23,3.6A.87.87,0,0,0,1268.91,952.73Zm-16.38-16.27-17.31.08-8.72-14.95,8.64-15.14h17.29l8.72,14.93Zm6.66-41.72L1251,880.6l6.23,3.59a.82.82,0,0,0,.43.12.9.9,0,0,0,.61-.25L1275,867.31l-6.13,22.87a.86.86,0,0,0,.4,1l6.24,3.6Zm-3.3-24.86-16.61-9.6-9.61-16.63,25.22-25.22,35.82-9.59-9.6,35.82Zm15.57-68,16.66-16.66,8.32,2.22-2.23,8.34Zm13.17-29.74-22.78-6.1,22.75-6.1,6.11,6.11ZM1239.21,760l-34.45-9.23V731.54l9.6-16.64,34.41,9.2L1275,750.35Zm-9.54-71.54,9.58-16.61,16.65-9.63,25.2,25.16,9.71,35.92-35.93-9.63Zm39.24-46.55,6.13,22.88L1258.3,648a.9.9,0,0,0-.61-.25.82.82,0,0,0-.43.12l-6.24,3.6,8.18-14.16h16.34l-6.23,3.6A.87.87,0,0,0,1268.91,641.86Zm-16.38-16.28-17.31.09-8.72-14.95,8.64-15.14,17.24-.07,8.77,15Zm6.66-41.71L1251,569.72l6.23,3.6a.82.82,0,0,0,.43.12.87.87,0,0,0,.61-.26L1275,556.43l-6.13,22.88a.86.86,0,0,0,.4,1l6.24,3.6Zm-3.3-24.87-16.61-9.59-9.61-16.63,25.17-25.21,35.87-9.61-9.6,35.83Zm-7.07-61.95-34.44,9.23-9.61-16.6V470.44l34.39-9.24,36,9.55Zm-44.06-57.2V420.67l9.6-16.64,34.41,9.2L1275,439.48l-35.82,9.6Zm57.09,15.3,22.75-6.1,6.11,6.11-6.09,6.09Zm26.32-19.1-16.72-16.72,22.77,6.1,2.23,8.32Zm-33.29-33.3-25.21-25.21,9.58-16.62,16.65-9.62,25.2,25.16,9.71,35.92Zm14-71.76,6.13,22.88-16.74-16.75a.85.85,0,0,0-.61-.25.92.92,0,0,0-.43.11l-6.24,3.61,8.18-14.16h16.34l-6.23,3.6A.87.87,0,0,0,1268.91,331Zm-40.75-5a.87.87,0,0,0,.75.43h16.76l-14.92,25.87-25.9,15,0-29.84,15-25.93ZM1219,372.63l-3.62,6.26a.86.86,0,0,0,.14,1l16.75,16.76-22.89-6.14a.83.83,0,0,0-.22,0,.86.86,0,0,0-.75.43l-3.61,6.26V380.84Zm-2.41,82.52-22.87,6.13a.86.86,0,0,0-.64.83v7.22l-8.18-14.18,8.17-14.16v7.2a.86.86,0,0,0,.64.83Zm-23.43-120.91-9.6,16.64-34.41-9.2-26.25-26.25,35.82-9.6,34.45,9.23Zm-70.29-50.15L1149,257.87l34.49-9.24,9.6,16.65v19.19l-34.39,9.24ZM1106.32,215l-26.25,26.36-9.63-35.92,9.23-34.44h19.23l16.61,9.59Zm-35-55.72a.86.86,0,0,0-.83.63l-6.13,22.89-6.13-22.89a.88.88,0,0,0-.84-.64h-7.25l14.13-8.24,14.29,8.25Zm-13,46.11-9.61,35.87-26.23-26.23-9.23-34.44,16.62-9.59h19.21ZM1025.08,270l2.23,8.32-8.34,2.24-16.65-16.66Zm-3.5,29.74-6.09,6.09-22.78-6.1,22.76-6.1ZM1006,315.36l-26.26,26.29-34.48,9.24-9.61-16.65V315.05L970,305.81ZM935.72,448.18V441l8.17,14.16-8.16,14.16v-7.2a.87.87,0,0,0-.64-.83l-22.88-6.13L935.08,449A.86.86,0,0,0,935.72,448.18Zm-46.11.91-36-9.56,26.27-26.28L914.39,404l9.61,16.6v19.24Zm30.77-58.16a.86.86,0,0,0-.75-.43.83.83,0,0,0-.22,0l-22.88,6.13,16.75-16.76a.85.85,0,0,0,.14-1l-3.62-6.25L924,380.78V397.2Zm-22.29-38.59-15-25.92h16.43l.08,0a.8.8,0,0,0,.42.11.85.85,0,0,0,.6-.24.87.87,0,0,0,.24-.83l8.09-14,14.94,25.85v29.91ZM900.91,274a.9.9,0,0,0-.1-.62.87.87,0,0,0-.75-.43h0a1.18,1.18,0,0,0-.27,0h0a.91.91,0,0,0-.23,0h-16.4l15-25.89,25.85-14.93,0,29.93-14.91,26Zm-11.38-35.54-16.66,9.63L847.67,223,838,187l35.93,9.62,25.22,25.22ZM862.8,284.71l-8.21,14.21a1.09,1.09,0,0,0-.23.29.67.67,0,0,0-.1.31.91.91,0,0,0,.13.73.74.74,0,0,0,.2.23l8.21,14.21h-30l-26-14.93,26-15Zm-79.16,14.94-26,15-30,.09,8.25-14.28a1.14,1.14,0,0,0,.23-.3.63.63,0,0,0,.1-.3.94.94,0,0,0-.13-.74.87.87,0,0,0-.2-.23l-8.22-14.21h29.94ZM719,262.43a.82.82,0,0,0,.43.12.9.9,0,0,0,.61-.25l16.75-16.75-6.13,22.87a.86.86,0,0,0,.4,1l6.26,3.62-16.33.06-8.22-14.23Zm-4.87,22.19,8.77,15-8.62,15.07-17.31.09-8.72-14.95,8.64-15.13Zm-24.53,40.84a.84.84,0,0,0,.11.53.89.89,0,0,0,.47.39.91.91,0,0,0,.57.21h0a.83.83,0,0,0,.52-.17H707.4l-15,25.88-25.86,14.94V337.41l15-25.93Zm-8.88,47.16-3.62,6.26a.85.85,0,0,0,.14,1L694,396.67l-22.89-6.13a.91.91,0,0,0-.23,0,.85.85,0,0,0-.74.43l-3.61,6.26V380.82Zm-2.41,82.51-22.87,6.13a.87.87,0,0,0-.64.84v7.2l-8.17-14.17L654.78,441v7.19a.86.86,0,0,0,.64.83Zm-23.43-120.9-9.6,16.64-34.41-9.2L584.6,315.41l35.83-9.59L654.87,315Zm-70.35-50.09,26.3-26.3,34.44-9.23,9.6,16.66v19.18l-34.39,9.24ZM568.06,215l-26.28,26.28-9.6-35.84L541.41,171h19.18l16.66,9.61Zm-35-55.72a.86.86,0,0,0-.83.64l-6.13,22.88L520,159.91a.87.87,0,0,0-.83-.64h-7.22l14.19-8.19,14.19,8.19Zm-13,46.12-9.61,35.86L484.22,215,475,180.59,491.61,171h19.21ZM486.82,270l2.23,8.33-8.27,2.29-16.72-16.72Zm-3.5,29.73-6.09,6.09-22.78-6.1,22.76-6.1Zm-15.6,15.6-26.3,26.3L407,350.87l-9.6-16.6V315l34.39-9.23ZM397.45,448.21V441l8.22,14.11-8.22,14.25v-7.2a.87.87,0,0,0-.64-.83l-22.89-6.13L396.81,449A.86.86,0,0,0,397.45,448.21Zm-46.11.9-35.9-9.62,26.19-26.21L376.12,404l9.61,16.64v19.2ZM382.11,391a.88.88,0,0,0-.75-.43.83.83,0,0,0-.22,0l-22.88,6.13L375,379.93a.86.86,0,0,0,.14-1l-3.62-6.25,14.19,8.18v16.4Zm-22.29-38.59-15-25.92h16.29a1.14,1.14,0,0,0,.41.07h0a.82.82,0,0,0,.3-.07.85.85,0,0,0,.81-1l8.07-14,14.94,25.9v29.9ZM370.72,288l-8.08-14a.86.86,0,0,0-.8-1,1.21,1.21,0,0,0-.38-.06.74.74,0,0,0-.28.06H344.84l15-25.89,25.86-14.93,0,29.89Zm.81-61.2,3.62-6.26a.86.86,0,0,0-.14-1l-16.75-16.75,22.89,6.13a.83.83,0,0,0,.22,0,.86.86,0,0,0,.75-.43l3.61-6.25v16.38Zm-47,57.93-8.2,14.2a1.44,1.44,0,0,0-.24.3.8.8,0,0,0-.09.31.94.94,0,0,0,.13.74.83.83,0,0,0,.2.22l8.21,14.21h-30L268.6,299.78l26-15Zm-79.15,14.94-26,15-30,.09,8.25-14.28a1,1,0,0,0,.24-.3.67.67,0,0,0,.1-.31,1,1,0,0,0-.13-.74.83.83,0,0,0-.2-.22l-8.22-14.21h29.92Zm-64.66-37.22a.88.88,0,0,0,.43.12.86.86,0,0,0,.61-.25l16.75-16.75-6.13,22.87a.86.86,0,0,0,.41,1L199,273H182.66l-8.18-14.15Zm-4.86,22.19,8.76,15L176,314.72l-17.32.09L150,299.86l8.64-15.14ZM151.63,326a.84.84,0,0,0,.74.43h16.76l-14.92,25.87-25.9,15,0-29.84,15-25.93Zm-9.2,46.63-3.61,6.26a.86.86,0,0,0,.13,1L155.7,396.7l-22.89-6.14a.78.78,0,0,0-.22,0,.85.85,0,0,0-.74.43l-3.61,6.25V380.85ZM127.68,604.52a.87.87,0,0,0,.63-.83v-7.24l8.22,14.11-8.21,14.24v-7.19a.86.86,0,0,0-.64-.83l-22.88-6.13Zm0,310.87a.86.86,0,0,0,.63-.83v-7.24l8.22,14.12-8.21,14.24v-7.2a.86.86,0,0,0-.64-.83l-22.88-6.13Zm14.75,79-3.61,6.26a.86.86,0,0,0,.13,1l16.75,16.75-22.89-6.13a.78.78,0,0,0-.22,0,.85.85,0,0,0-.74.43l-3.61,6.26v-16.38Zm-14.19,48,9.59-16.64,34.41,9.19,26.26,26.26-35.83,9.6-34.44-9.23Zm70.29,50.15-26.2,26.22L137.85,1128l-9.61-16.61V1092.2l34.39-9.24ZM215,1161.65l26.29-26.28,9.6,35.79-9.24,34.49H222.47l-16.62-9.59Zm35,55.72a.87.87,0,0,0,.84-.64l6.13-22.88,6.13,22.89a.86.86,0,0,0,.83.64h7.23L257,1225.56l-14.2-8.19Zm13-46.11,9.61-35.87,26.23,26.23,9.23,34.44-16.62,9.59H272.28Zm52.42-78.68,35.83-9.6,34.44,9.23v19.18l-9.6,16.64-34.41-9.2Zm-.08-31.27,26.3-26.3,34.44-9.23,9.61,16.65v19.19l-34.39,9.24Zm70.28-132.86v7.2l-8.18-14.17,8.17-14.15v7.19a.86.86,0,0,0,.64.83l22.88,6.13-22.88,6.13A.88.88,0,0,0,385.66,928.45Zm46.1-.91,35.91,9.62-26.2,26.22L407,972.62,397.38,956V936.78ZM401,985.69a.85.85,0,0,0,.74.43l.23,0L424.85,980l-16.76,16.76a.86.86,0,0,0-.13,1l3.61,6.25-14.18-8.19V979.43Zm22.28,38.6,15,25.92H422a1.14,1.14,0,0,0-.41-.07.78.78,0,0,0-.3.07.85.85,0,0,0-.71.43.89.89,0,0,0-.11.57l-8.07,14-14.94-25.86v-29.95Zm-10.89,64.35,8.07,14a.85.85,0,0,0,.11.58.89.89,0,0,0,.7.43,1.5,1.5,0,0,0,.37,0h0a.71.71,0,0,0,.28-.06h16.35l-14.92,25.86-25.9,15,0-29.9Zm46.14,3.35,8.25-14.28a1,1,0,0,0,.24-.29.75.75,0,0,0,.1-.32,1,1,0,0,0-.13-.74.73.73,0,0,0-.21-.22l-8.21-14.21h29.91l26,14.93-26,15Zm79.21-15,26-15h29.93l-8.2,14.19a1.76,1.76,0,0,0-.24.3.85.85,0,0,0-.09.32,1,1,0,0,0,.12.73.73.73,0,0,0,.21.22l8.21,14.22H563.81Zm66,51.54,16.62,9.59,9.61,16.63-25.17,25.21-35.87,9.61,9.6-35.83Zm40.41,28.62a.87.87,0,0,0,.14-1l-3.63-6.28,14.2,8.12v16.49l-3.61-6.27a.88.88,0,0,0-.75-.43.83.83,0,0,0-.22,0l-22.88,6.13ZM629,1129.56l-15.07-25.92h16.48a1.33,1.33,0,0,0,.28,0h0a.91.91,0,0,0,.23,0h.05a.87.87,0,0,0,.75-.44.82.82,0,0,0,.09-.61l8.07-14,14.94,25.85,0,30Zm10.89-64.41-8.06-14a.87.87,0,0,0-.58-.92.87.87,0,0,0-.58-.22.82.82,0,0,0-.52.18H614l14.95-25.89,25.86-14.94,0,29.84Zm.82-61.14,3.62-6.26a.86.86,0,0,0-.14-1L627.4,980l22.89,6.14a.83.83,0,0,0,.22,0,.87.87,0,0,0,.75-.44l3.61-6.25v16.38Zm14.2-48-9.6,16.64-34.41-9.2L584.6,937.16l35.83-9.6,34.44,9.23Zm-11.8-34.48L666,915.36a.86.86,0,0,0,.64-.83v-7.2l8.17,14.16-8.17,14.16v-7.2a.86.86,0,0,0-.64-.83Zm37.64,72.87-3.62,6.26a.85.85,0,0,0,.14,1L694,1018.41l-22.89-6.13a.91.91,0,0,0-.23,0,.85.85,0,0,0-.74.43l-3.61,6.26v-16.37Zm-14.2,48,9.6-16.64,34.41,9.19,26.25,26.26-35.82,9.6-34.45-9.23Zm70.28,50.15-26.23,26.23L676.12,1128l-9.61-16.6v-19.24l34.39-9.24Zm16.53,69.07,26.26-26.37,9.63,35.88L780,1205.62H760.74L744.12,1196Zm35,55.72a.86.86,0,0,0,.83-.64l6.13-22.88,6.13,22.89a.86.86,0,0,0,.84.64h7.22l-14.19,8.18-14.19-8.19Zm13-46.11,9.61-35.87,26.22,26.23,9.23,34.44-16.61,9.59H810.56Zm52.42-78.68,35.82-9.6,34.45,9.23v19.18L914.4,1128,880,1118.81Zm-.09-31.27L880,1035l34.44-9.23,9.61,16.6v19.24l-34.39,9.24Zm70.27-132.82v7.2l-8.18-14.16,8.17-14.16v7.19a.86.86,0,0,0,.64.84l22.88,6.13-22.87,6.13A.86.86,0,0,0,923.92,928.46Zm46.11-.91,35.9,9.63-26.2,26.21-34.48,9.24L935.64,956V936.79Zm-30.77,58.16a.86.86,0,0,0,.75.43l.22,0L963.11,980l-16.76,16.75a.86.86,0,0,0-.13,1l3.63,6.29-14.2-8.13V979.44Zm22.28,38.59,15,25.92h-17a.85.85,0,0,0-.73.47.81.81,0,0,0-.09.53l-8,13.94-14.94-25.85V1009.4Zm-2.81,78.31a.9.9,0,0,0,.1.62.85.85,0,0,0,.74.43h.06a1.18,1.18,0,0,0,.27,0h0a.91.91,0,0,0,.23,0h16.4l-14.92,25.87-25.89,15,0-29.93,15-25.93Zm38.06-10.6,8.25-14.28a1,1,0,0,0,.24-.3.67.67,0,0,0,.1-.31,1,1,0,0,0-.13-.74.73.73,0,0,0-.21-.22l-8.3-14.23h30l26.07,15-26,15Zm79.21-15,26-15h29.93l-8.2,14.2a1.44,1.44,0,0,0-.24.3.75.75,0,0,0-.09.3,1,1,0,0,0,.13.75.83.83,0,0,0,.2.22l8.21,14.21h-29.86Zm66,51.53,16.61,9.6,9.61,16.63-25.17,25.2-35.86,9.61,9.6-35.83Zm51-44.67v7.22l-8.18-14.18,8.17-14.15v7.19a.86.86,0,0,0,.64.83l22.87,6.13-22.87,6.13A.87.87,0,0,0,1193.05,1083.85Zm37.63,95.85,15.07,25.91h-16.48a.92.92,0,0,0-.29,0,.59.59,0,0,0-.23,0h0a.86.86,0,0,0-.75.43.84.84,0,0,0-.09.62l-8.08,14-14.94-25.85-.08-30Zm-10.89,64.4,8.06,14a.91.91,0,0,0,.11.53.87.87,0,0,0,.47.38.87.87,0,0,0,.57.22h0a.87.87,0,0,0,.52-.17l16.18-.08-15,26-25.85,14.94,0-29.84Zm15.43,3.31-8.72-15,8.64-15.14,17.24-.07,8.77,15-8.61,15.06Zm30.71,0,8.25-14.28a1.44,1.44,0,0,0,.24-.3.8.8,0,0,0,.09-.31.91.91,0,0,0-.13-.73.62.62,0,0,0-.2-.23l-8.21-14.21h29.86l26,15-25.93,15Zm22.18-189.68-16.67-16.67,22.75,6,2.26,8.42Zm7.8-121.28-30,.09,8.25-14.28a1.22,1.22,0,0,0,.24-.3.8.8,0,0,0,.09-.31.94.94,0,0,0-.13-.74.7.7,0,0,0-.2-.22l-8.31-14.23h30l26.07,15Zm-7.74-189.52-16.72-16.72,22.77,6.1,2.23,8.32Zm7.74-121.36-30,.1,8.25-14.28a1.44,1.44,0,0,0,.24-.3.8.8,0,0,0,.09-.31.93.93,0,0,0-.13-.74.7.7,0,0,0-.2-.22L1266,595.59l29.94,0,26,14.93Zm-1.61-140.69L1271.46,491l16.66-16.67,8.33,2.23Zm1.61-170.18-30,.09,8.25-14.27a1.76,1.76,0,0,0,.24-.3.8.8,0,0,0,.09-.31.94.94,0,0,0-.13-.74.59.59,0,0,0-.2-.22L1266,284.72h29.93l26,14.94Zm-7.74-189.52-16.72-16.72,22.77,6.1,2.23,8.33ZM1275,128.61l-35.82,9.6L1204.76,129V109.8l9.6-16.64,34.41,9.2Zm.09,31.27-26.3,26.3-34.44,9.23-9.61-16.6V159.57l34.44-9.23Zm-44.44,87.2,15,25.92h-16.4a1.27,1.27,0,0,0-.28,0h0l-.23,0h0a.89.89,0,0,0-.75.43.84.84,0,0,0-.09.62l-8.08,14-14.94-25.86-.08-30.05Zm-25.83,45.72v-7.23l8.22,14.11-8.22,14.24v-7.19a.88.88,0,0,0-.64-.84l-22.88-6.13,22.88-6.13A.86.86,0,0,0,1204.85,292.8ZM1167.22,197l-15-25.92h16.4a1.26,1.26,0,0,0,.28,0,1,1,0,0,0,.23,0h0a.87.87,0,0,0,.75-.43.85.85,0,0,0,.09-.62l8.08-14,15,26,0,29.93Zm2.83-78.39a.94.94,0,0,0-.11-.54.92.92,0,0,0-.47-.38.87.87,0,0,0-.58-.22.82.82,0,0,0-.51.17h-16.15l14.93-25.86,25.9-15v29.83l-14.91,26Zm-7.37,10.67,8.72,14.95-8.64,15.14-17.24.08-8.76-15,8.61-15.07Zm-30.75.1-8.21,14.2a1.37,1.37,0,0,0-.24.29.8.8,0,0,0-.09.31.94.94,0,0,0,.13.74.83.83,0,0,0,.2.22l8.21,14.22h-30l-26-14.94,26-15Zm-67.54,8.2-14.2-8.19h7.23a.87.87,0,0,0,.84-.64l6.13-22.88,6.13,22.89a.86.86,0,0,0,.83.64h7.23Zm-11.62,6.73-26,15-30,.09,8.25-14.28a1,1,0,0,0,.24-.29.67.67,0,0,0,.1-.31,1,1,0,0,0-.13-.74.66.66,0,0,0-.21-.23l-8.21-14.21h29.87Zm-69.52-15,8.76,15-8.61,15.07-17.25.08-8.78-15.05,8.68-15ZM959.84,117.6h-.32a.85.85,0,0,0-.73.47.81.81,0,0,0-.09.53l-8,13.93-14.94-25.85V76.79l25.84,14.9,15,25.91ZM950.66,156l8.07,14a.9.9,0,0,0,.1.62.85.85,0,0,0,.74.43h.06a.8.8,0,0,0,.27,0h0a.62.62,0,0,0,.23,0h16.4L961.61,196.9l-25.89,15,0-29.93Zm-.83,61.24-3.61,6.26a.86.86,0,0,0,.13,1l16.75,16.75-22.88-6.13a.91.91,0,0,0-.23,0,.85.85,0,0,0-.74.43l-3.61,6.25V225.44Zm-4.6,31.4,34.42,9.19,26.25,26.26-35.82,9.6-34.45-9.23V265.28Zm2.2,51.12-22.87,6.13a.86.86,0,0,0-.64.83V314l-8.22-14.11,8.21-14.24v7.19a.86.86,0,0,0,.64.83Zm-37.63-73,3.62-6.27a.86.86,0,0,0-.13-1l-16.76-16.75,22.89,6.14a.9.9,0,0,0,.23,0,.83.83,0,0,0,.74-.43L924,202.2v16.38Zm14.2-48-9.6,16.64L880,186.19l-26.25-26.25,35.82-9.6L924,159.56Zm-79.83-28.38-6.11-6.11,6.09-6.09,22.78,6.1Zm-3.52-25.27-8.32-2.23,2.24-8.35,22.75-6.09Zm0,38.27,16.74,16.74-22.76-6-2.26-8.43ZM837.15,229l9.23,34.45L829.77,273H810.56l-9.24-34.4,9.61-35.86Zm-22.72-39.29,2.23-8.35,8.33,2.23,6.1,22.78Zm-38.34,0-16.67,16.67,6.09-22.75,8.35-2.24Zm3.51,13.06,9.61,35.8L780,273H760.79l-16.67-9.61,9.2-34.4ZM756,174l-22.86,6.13,16.59-16.7,8.42,2.26Zm-9.68-23.61-22.78-6.11,22.76-6.1,6.11,6.11Zm3.55-25.21-16.72-16.72,22.77,6.1,2.23,8.33Zm-13.14,3.44L701,138.19,666.5,129V109.78l9.6-16.64,34.41,9.2Zm.09,31.27-26.3,26.3-34.44,9.23-9.61-16.61V159.55l34.39-9.23Zm-44.44,87.19,15,25.92H691a.86.86,0,0,0-.28,0,.62.62,0,0,0-.23,0h0a.85.85,0,0,0-.75.43.84.84,0,0,0-.09.62l-8.08,14-14.94-25.85-.08-30.05Zm-25.83,45.73v-7.24l8.22,14.12-8.22,14.24v-7.2a.86.86,0,0,0-.64-.83l-22.88-6.13L666,293.62A.86.86,0,0,0,666.59,292.79ZM629,197,614,171h16.4a.8.8,0,0,0,.27,0h0a.66.66,0,0,0,.23,0h.05a.86.86,0,0,0,.75-.43.84.84,0,0,0,.09-.62l8.07-14,14.94,25.85.09,30Zm10.89-64.42-8.06-14a.89.89,0,0,0-.11-.53.88.88,0,0,0-.48-.39.87.87,0,0,0-.57-.21.82.82,0,0,0-.51.17H614l14.95-25.88,25.86-14.94,0,29.83Zm-15.43-3.3,8.72,15-8.64,15.13-17.25.08-8.76-15,8.62-15.07Zm-30.76.09-8.2,14.2a1.44,1.44,0,0,0-.24.3.8.8,0,0,0-.09.31.94.94,0,0,0,.13.74.83.83,0,0,0,.2.22l8.21,14.21H563.81l-26.07-14.95,26-15Zm-67.53,8.21-14.2-8.2h7.23a.86.86,0,0,0,.83-.64l6.14-22.88,6.13,22.88a.86.86,0,0,0,.83.64h7.22Zm-11.62,6.73-26,15-30,.09,8.25-14.28a1,1,0,0,0,.24-.3.67.67,0,0,0,.1-.31,1,1,0,0,0-.13-.74.73.73,0,0,0-.21-.22l-8.21-14.22h29.86Zm-69.52-15,8.76,15-8.61,15.07-17.29.09-8.75-15,8.61-15.08Zm-23-11.65a1.34,1.34,0,0,0-.4-.06.63.63,0,0,0-.3.07.83.83,0,0,0-.71.43.87.87,0,0,0-.11.57l-8.07,14-14.94-25.85V76.77l25.84,14.9,15,25.92ZM412.39,156l8.07,14a.85.85,0,0,0,.11.58.87.87,0,0,0,.69.43,1.21,1.21,0,0,0,.38.06h0a.94.94,0,0,0,.28-.06h16.35l-14.92,25.87-25.9,15,0-29.89Zm-.82,61.21L408,223.49a.86.86,0,0,0,.13,1l16.75,16.75L402,235.14a.78.78,0,0,0-.22,0,.87.87,0,0,0-.75.44l-3.6,6.25V225.42ZM407,248.62l34.41,9.2,26.26,26.25-35.83,9.6-34.44-9.22V265.26Zm2.2,51.12-22.88,6.13a.86.86,0,0,0-.63.83v7.24l-8.22-14.12,8.21-14.24v7.2a.86.86,0,0,0,.64.83Zm-23.44-121-9.6,16.64-34.41-9.2L315.47,160l35.82-9.6,34.44,9.23ZM305.9,150.39l-6.11-6.1,6.08-6.1,22.78,6.11Zm-3.52-25.27-8.33-2.23,2.15-8.31L319,108.46ZM298.88,229l9.23,34.44L291.49,273H272.28L263,238.64l9.61-35.86Zm-22.72-39.29,2.23-8.35,8.32,2.22,6.11,22.78Zm-38.34,0-16.67,16.67,6.09-22.76,8.35-2.23Zm3.5,13.07,9.6,35.83L241.69,273H222.51l-16.66-9.62L215,229Zm-29.68-77.57-16.72-16.72,22.76,6.1,2.23,8.32Zm-13.14,3.43-35.83,9.6L128.23,129V109.81l9.59-16.64,34.42,9.2Zm.09,31.28-26.31,26.3-34.43,9.22-9.61-16.6V159.58l34.43-9.22Zm-44.44,87.19,15,25.92H152.73a.9.9,0,0,0-.28,0,.59.59,0,0,0-.23,0h-.06a.85.85,0,0,0-.74.43.9.9,0,0,0-.1.62l-8.07,14L128.31,262.2l-.09-30Zm-25.84,45.72v-7.23l8.23,14.11-8.22,14.24v-7.19a.86.86,0,0,0-.64-.83l-22.88-6.13,22.88-6.13A.87.87,0,0,0,128.31,292.81ZM107,248.64l9.6,16.65v19.19l-34.38,9.24-36-9.55,26.3-26.3ZM59.52,299.78l-22.76,6.09-6.11-6.11,6.09-6.09Zm22.64,6.06,34.44,9.23v19.18L107,350.89,72.59,341.7,46.33,315.44Zm34.36,81.83,0,29.83-14.91,26-8.12-14.06a.77.77,0,0,0-.11-.53.83.83,0,0,0-.47-.39.84.84,0,0,0-.57-.21h0a.87.87,0,0,0-.52.17H75.7l15-25.88ZM86.15,440.13l8.72,14.95-8.64,15.13L69,470.29l-8.76-15,8.61-15.07Zm5.95,41.8a.9.9,0,0,0,.28,0h0a.67.67,0,0,0,.24,0h0a.85.85,0,0,0,.74-.43.9.9,0,0,0,.1-.62l8-14.07,15,26.05,0,29.93L90.69,507.85l-15-25.92ZM107,559.51l9.6,16.65v19.19l-34.38,9.24-36-9.55L72.5,568.75ZM59.52,610.65l-22.76,6.09-6.11-6.1,6.09-6.1Zm22.64,6.06,34.44,9.23v19.19L107,661.77l-34.41-9.2L46.33,626.31Zm34.36,81.83,0,29.84-14.91,26-8.12-14.06a.8.8,0,0,0-.11-.54.81.81,0,0,0-.47-.38.85.85,0,0,0-.57-.22h0a.87.87,0,0,0-.52.17H75.7L90.62,713.5ZM86.15,751l8.72,15-8.64,15.14L69,781.16l-8.76-15,8.61-15.07Zm5.95,41.8a.9.9,0,0,0,.28,0h0a.67.67,0,0,0,.24,0h0a.85.85,0,0,0,.74-.43.9.9,0,0,0,.1-.62l8.07-14,15,25.93,0,29.95L90.69,818.72,75.61,792.8ZM107,870.39l9.6,16.65v19.19l-34.38,9.24-35.9-9.62L72.5,879.63ZM59.52,921.52l-22.76,6.1-6.11-6.11,6.09-6.09Zm22.64,6.07,34.44,9.22V956L107,972.64l-34.41-9.2L46.33,937.19Zm34.36,81.82,0,29.84-14.91,26-8.12-14.06a.85.85,0,0,0-.58-.92.83.83,0,0,0-.57-.22h0a.87.87,0,0,0-.52.17H75.7l14.92-25.87Zm-30.37,52.46,8.72,15L86.23,1092,69,1092l-8.76-15L68.83,1062Zm5.95,41.8a.9.9,0,0,0,.28,0h0a.67.67,0,0,0,.24,0h0a.85.85,0,0,0,.74-.43.9.9,0,0,0,.1-.62l8.07-14,15,25.93,0,30-25.87-14.92-15.08-25.92Zm24.42-19.8v7.21l-8.18-14.17,8.17-14.16v7.19a.88.88,0,0,0,.64.84l22.88,6.13L117.16,1083A.87.87,0,0,0,116.52,1083.87Zm37.63,95.84,15,25.92H152.73a1.26,1.26,0,0,0-.28,0,.85.85,0,0,0-.23,0h-.06a.87.87,0,0,0-.74.43.91.91,0,0,0-.1.62l-8.07,14-14.94-25.86-.09-30Zm-10.9,64.41,8.07,14a1.36,1.36,0,0,0,1.15,1.14h0a.82.82,0,0,0,.52-.18h16.14l-15,25.89-25.86,14.93,0-29.83Zm15.43,3.3-8.71-15,8.64-15.13,17.24-.08,8.76,15L176,1247.34Zm30.71,0,8.25-14.27a1,1,0,0,0,.24-.31.67.67,0,0,0,.1-.31,1,1,0,0,0-.13-.73.87.87,0,0,0-.2-.23l-8.22-14.21h29.91l26,14.94-26,15Zm67.5-8.33,14.29,8.24h-7.24a.86.86,0,0,0-.83.64L257,1270.84,250.84,1248a.86.86,0,0,0-.83-.64h-7.25Zm11.71-6.69,26-15h29.93l-8.2,14.19a1.76,1.76,0,0,0-.24.3.85.85,0,0,0-.09.32.94.94,0,0,0,.13.74,1,1,0,0,0,.2.22l8.21,14.21h-30Zm69.52,15-8.77-15,8.62-15.07,17.28-.09,8.75,15-8.6,15.08Zm23,11.64a1.4,1.4,0,0,0,.41.06h0a.8.8,0,0,0,.3-.06.89.89,0,0,0,.71-.44.84.84,0,0,0,.1-.56l8.07-14,14.94,25.9v29.9L359.82,1285l-15.07-25.92Zm1.51-52.44a.87.87,0,0,0-.1-.57.86.86,0,0,0-.7-.43,1.19,1.19,0,0,0-.37-.06h0a.71.71,0,0,0-.28.06H344.84l15-25.89,25.86-14.94,0,29.9-14.92,26Zm8.89-47.2,3.62-6.26a.86.86,0,0,0-.14-1l-16.75-16.76,22.89,6.14a.83.83,0,0,0,.22,0,.86.86,0,0,0,.75-.43l3.61-6.26v16.38Zm2.4-82.52,22.88-6.13a.86.86,0,0,0,.64-.83v-7.2l8.17,14.16-8.17,14.16v-7.2a.87.87,0,0,0-.64-.83Zm37.64,72.93L408,1156.1a.88.88,0,0,0,.14,1l16.75,16.75L402,1167.76a.78.78,0,0,0-.22,0,.88.88,0,0,0-.75.43l-3.6,6.26v-16.37Zm-14.2,48,9.6-16.64,34.41,9.19,26.26,26.26-35.83,9.6-34.44-9.23Zm79.84,28.38,6.11,6.11-6.09,6.09-22.78-6.1Zm3.52,25.27,8.33,2.23-2.15,8.31-22.84,6.12Zm3.49-103.88L475,1113.21l16.62-9.59h19.21l9.24,34.4-9.61,35.87ZM507,1187l-2.24,8.35-8.29-2.15-6.13-22.86Zm38.34,0L562,1170.29l-6.1,22.76-8.34,2.24Zm-3.48-13-9.63-35.93,9.23-34.44,19.18,0,16.66,9.62-9.19,34.4Zm23.53,28.65,22.84-6.12-16.66,16.67-8.33-2.23Zm3.59,29.71,6.09-6.09,22.78,6.1-22.76,6.1Zm19.26,35.84-22.77-6.11-2.23-8.32,8.27-2.3Zm-3.61-51.5,26.19-26.22,34.49-9.24,9.6,16.65v19.19l-34.39,9.24Zm70.21-132.85v7.2l-8.17-14.17,8.16-14.15v7.19a.87.87,0,0,0,.64.84l22.88,6.13L655.43,1083A.88.88,0,0,0,654.79,1083.84Zm37.63,95.84,15,25.92H691a1.26,1.26,0,0,0-.28,0,1,1,0,0,0-.23,0h0a.86.86,0,0,0-.75.43.84.84,0,0,0-.09.62l-8.08,14-14.94-25.85-.08-30.06Zm-10.9,64.41,8.07,14a.93.93,0,0,0,.11.54.87.87,0,0,0,.47.38.87.87,0,0,0,.57.22h0a.83.83,0,0,0,.52-.17H707.4l-15,25.89-25.86,14.94V1270ZM697,1247.4l-8.72-15,8.64-15.13,17.24-.08,8.77,15-8.62,15.07Zm30.71,0,8.25-14.27a1.33,1.33,0,0,0,.23-.3.67.67,0,0,0,.1-.31.94.94,0,0,0-.13-.74.87.87,0,0,0-.2-.23l-8.22-14.21h29.87l26.07,15-26,15Zm67.5-8.33,14.28,8.24h-7.24a.86.86,0,0,0-.83.64l-6.13,22.88-6.13-22.89a.88.88,0,0,0-.84-.64H781Zm11.7-6.68,26-15H862.8l-8.21,14.2a1.09,1.09,0,0,0-.23.29.71.71,0,0,0-.1.31.94.94,0,0,0,.13.74.87.87,0,0,0,.2.23l8.21,14.21h-30Zm69.52,15-8.76-15,8.61-15.07,17.25-.08,8.77,15-8.58,15ZM899.54,1259l.08,0a.8.8,0,0,0,.42.11.9.9,0,0,0,.6-.23.87.87,0,0,0,.24-.82l8.1-14.05L923.92,1270v29.9L898.1,1285l-15-25.93Zm1.37-52.39a.9.9,0,0,0-.1-.62.85.85,0,0,0-.75-.43h0a.8.8,0,0,0-.27,0h0a.62.62,0,0,0-.23,0h-16.4l15-25.89,25.85-14.93,0,29.94-14.91,26Zm8.89-47.25,3.62-6.26a.86.86,0,0,0-.13-1l-16.75-16.75,22.88,6.13a.91.91,0,0,0,.23,0,.85.85,0,0,0,.74-.43l3.61-6.26v16.38Zm2.41-82.52,22.87-6.12a.88.88,0,0,0,.64-.84v-7.23l8.22,14.11L935.73,1091v-7.19a.88.88,0,0,0-.64-.84Zm37.62,73-3.61,6.26a.86.86,0,0,0,.13,1l16.75,16.75-22.88-6.14-.23,0a.83.83,0,0,0-.74.43l-3.61,6.25v-16.37Zm-14.2,48,9.6-16.64,34.42,9.2,26.25,26.25-35.82,9.6-34.45-9.22Zm79.84,28.38,6.12,6.12-6,6.11-22.87-6.13Zm3.43,25.25,8.42,2.26-2.16,8.31-22.86,6.13Zm3.58-103.86-9.23-34.44,16.62-9.59h19.21l9.24,34.4-9.61,35.86Zm22.73,39.3-2.24,8.36-8.29-2.15-6.13-22.87Zm38.27.09,16.74-16.74-6.1,22.75-8.35,2.24Zm-3.41-13-9.63-35.93,9.23-34.44h19.23l16.61,9.59-9.19,34.41Zm23.53,28.66,22.84-6.12-16.66,16.66-8.33-2.23Zm6.13,48.82,16.72,16.72-22.77-6.1-2.23-8.33Zm94.48-13-22.88-6.13,22.88-6.13a.86.86,0,0,0,.64-.83v-7.21l8.17,14.17-8.17,14.16v-7.2A.86.86,0,0,0,1204.21,1238.51Zm5.14,84.66a.83.83,0,0,0-.22,0,.86.86,0,0,0-.75.43l-3.61,6.26v-16.38l14.21-8.2-3.62,6.26a.86.86,0,0,0,.14,1l16.75,16.75Zm20.32-13,9.62-16.65,16.61-9.59,25.2,25.16,9.71,35.91-35.93-9.62Zm58.5,58.5-16.72-16.72,22.77,6.1,2.23,8.33Zm23.94-18-8.32-2.23-6.1-22.77,16.65,16.65Zm5.74-21.42-26.23-26.23-9.23-34.43L1299,1259h19.2l9.25,34.4Zm21.76,9.59-6.09,6.09-6.13-6,6.12-22.84Zm8.1-91.56h-7.24a.87.87,0,0,0-.83.64l-6.13,22.88-6.13-22.89a.86.86,0,0,0-.83-.63h-7.22l14.18-8.19Zm-8.06-30.59a.87.87,0,0,0,.84.64h7.22l-14.19,8.19-14.19-8.19h7.23a.86.86,0,0,0,.83-.64l6.13-22.88Zm-6.13-68.16-6.1-22.77,6.09-6.09,6.11,6.11Zm19.17-26.25,2.24-8.35,8.32,2.23,6.1,22.78Zm16.66-107.48-6.09,22.75-8.35,2.24-2.23-8.32Zm-22.95,38.51a.87.87,0,0,0,.84.64l.22,0,12.29-3.29-3.29,12.29a.85.85,0,0,0,.09.66.87.87,0,0,0,.53.4l12.32,3.22-9,9a.85.85,0,0,0,0,1.22l9.08,9-12.37,3.31a.86.86,0,0,0-.61,1.06l3.28,12.27-12.27-3.29a.78.78,0,0,0-.22,0,.82.82,0,0,0-.43.12.81.81,0,0,0-.4.52l-3.24,12.36-9.06-9.06a.87.87,0,0,0-1.22,0l-9,9-3.29-12.27a.85.85,0,0,0-.83-.64.78.78,0,0,0-.22,0l-12.3,3.29,3.29-12.29a.85.85,0,0,0-.61-1l-12.27-3.29,9-9a.88.88,0,0,0,0-1.22l-9-9L1310,1064a.84.84,0,0,0,.52-.4.9.9,0,0,0,.09-.66l-3.29-12.27,12.27,3.29a.91.91,0,0,0,.23,0,.85.85,0,0,0,.43-.12.88.88,0,0,0,.4-.52l3.29-12.3,9,9a.87.87,0,0,0,1.22,0l9-9Zm-6.79-25.34-6.09,6.09-6.13-6,6.12-22.83Zm8.1-91.56h-7.24a.87.87,0,0,0-.83.64L1333.51,960l-6.13-22.89a.86.86,0,0,0-.83-.63h-7.23l14.19-8.19Zm-8.06-30.58a.88.88,0,0,0,.84.64h7.22l-14.19,8.19-14.19-8.19h7.23a.86.86,0,0,0,.83-.64l6.13-22.88Zm-6.13-68.15L1327.35,815l6.17-6.17,6.12,6Zm19.17-26.28,2.24-8.34,8.32,2.22,6.1,22.78ZM1369.35,704l-6.09,22.75-8.35,2.24-2.23-8.32Zm-22.95,38.51a.87.87,0,0,0,.84.64l.22,0,12.29-3.29-3.29,12.29a.85.85,0,0,0,.09.66.87.87,0,0,0,.53.4l12.32,3.22-9,9a.85.85,0,0,0,0,1.21l9,9-12.29,3.29a.86.86,0,0,0-.61,1.06l3.37,12.29L1347.47,789a.83.83,0,0,0-.22,0,.82.82,0,0,0-.43.12.84.84,0,0,0-.4.52l-3.3,12.3-9-9a.85.85,0,0,0-1.22,0l-9,9-3.29-12.28a.87.87,0,0,0-.4-.52.9.9,0,0,0-.66-.08l-12.31,3.37,3.31-12.37a.86.86,0,0,0-.61-1.06l-12.27-3.28,9-9a.88.88,0,0,0,0-1.22l-9-9,12.29-3.29a.85.85,0,0,0,.52-.41.83.83,0,0,0,.09-.65l-3.38-12.29,12.36,3.31a.91.91,0,0,0,.23,0,.87.87,0,0,0,.83-.64l3.29-12.3,9,9a.87.87,0,0,0,1.22,0l9-9Zm-6.79-25.34-6.09,6.08-6.1-6.1,6.09-22.75Zm8.1-91.57h-7.24a.86.86,0,0,0-.83.64l-6.13,22.88-6.13-22.89a.86.86,0,0,0-.83-.64h-7.26l14.14-8.24ZM1339.65,595a.87.87,0,0,0,.84.64h7.22l-14.19,8.19-14.19-8.2h7.23a.87.87,0,0,0,.83-.64l6.13-22.88Zm-6.13-68.17-6.1-22.76,6.09-6.09,6.11,6.1Zm19.17-26.25,2.24-8.34,8.32,2.23,6.1,22.77Zm16.66-107.47-6.09,22.75-8.35,2.24-2.23-8.32ZM1346.4,431.6a.85.85,0,0,0,.41.52.82.82,0,0,0,.43.12.83.83,0,0,0,.22,0l12.29-3.3-3.29,12.3a.86.86,0,0,0,.61,1.05l12.27,3.29-9,9a.86.86,0,0,0,0,1.22l9,9-12.29,3.29a.85.85,0,0,0-.61,1.05l3.28,12.28-12.27-3.29a.78.78,0,0,0-.22,0,.92.92,0,0,0-.43.11.85.85,0,0,0-.4.53l-3.24,12.36-9.06-9.07a.87.87,0,0,0-1.22,0l-9,9-3.29-12.28a.86.86,0,0,0-.83-.63.78.78,0,0,0-.22,0l-12.3,3.3,3.29-12.29A.86.86,0,0,0,1310,468l-12.27-3.29,9-9a.88.88,0,0,0,0-1.22l-9-9,12.29-3.3a.86.86,0,0,0,.61-1.05l-3.29-12.27,12.27,3.29a.91.91,0,0,0,.23,0,.87.87,0,0,0,.83-.64l3.29-12.3,9,9a.87.87,0,0,0,1.22,0l9-9Zm-6.79-25.35-6.09,6.09-6.1-6.1,6.09-22.75Zm8.1-91.56h-7.24a.86.86,0,0,0-.83.64l-6.13,22.88-6.13-22.89a.86.86,0,0,0-.83-.64h-7.26l14.14-8.23Zm-8.06-30.58a.87.87,0,0,0,.84.64h7.22l-14.19,8.19-14.19-8.2h7.23a.86.86,0,0,0,.83-.63l6.13-22.89Zm-6.13-68.17-6.1-22.76,6.1-6.1,6.12,6Zm19.17-26.25,2.24-8.35,8.32,2.23,6.1,22.78Zm16.66-107.48L1363.26,105l-8.35,2.24-2.23-8.32Zm-22.95,38.52a.85.85,0,0,0,.41.52.82.82,0,0,0,.43.12.83.83,0,0,0,.22,0l12.29-3.3-3.29,12.3a.86.86,0,0,0,.62,1l12.32,3.23-9,9a.85.85,0,0,0,0,1.22l9,9-12.29,3.3a.84.84,0,0,0-.61,1l3.28,12.27-12.27-3.28a.78.78,0,0,0-.22,0,.92.92,0,0,0-.43.11.85.85,0,0,0-.4.53l-3.24,12.35-9.06-9.06a.87.87,0,0,0-1.22,0l-9,9-3.29-12.28a.86.86,0,0,0-.83-.64.78.78,0,0,0-.22,0l-12.3,3.3,3.29-12.29a.86.86,0,0,0-.61-1.06l-12.27-3.29,9-9a.88.88,0,0,0,0-1.22l-9-9,12.29-3.3a.84.84,0,0,0,.52-.4.85.85,0,0,0,.09-.66L1307.2,118l12.36,3.32a.9.9,0,0,0,.23,0,.86.86,0,0,0,.83-.63l3.29-12.3,9,9a.87.87,0,0,0,1.22,0l9-9Zm-48.71-38.52,16.65,16.66-2.23,8.35-8.32-2.23Zm35.82-9.59,6.1,22.76-6.09,6.09-6.1-6.1ZM1299,15.54h19.21l9.25,34.4-9.61,35.87-26.23-26.23-9.23-34.44Zm-8.29,85.94-35.83-9.6-25.21-25.21L1239.29,50l16.61-9.6,25.2,25.16ZM1259.2,15.55h16.34l-6.23,3.59a.88.88,0,0,0-.4,1L1275,43,1258.3,26.25a.85.85,0,0,0-.61-.25.92.92,0,0,0-.43.11L1251,29.72ZM1219.79.62l8.06,14a.87.87,0,0,0,.58.92.87.87,0,0,0,.58.22.78.78,0,0,0,.51-.18h16.15l-15,25.89-25.86,14.93,0-29.83ZM1219,61.76,1215.35,68a.86.86,0,0,0,.14,1l16.75,16.75-22.89-6.13a.83.83,0,0,0-.22,0,.86.86,0,0,0-.75.43l-3.61,6.26V70Zm-25.28,76.39,22.87,6.13-22.87,6.13a.86.86,0,0,0-.64.83v7.22l-8.18-14.18,8.17-14.16v7.19A.88.88,0,0,0,1193.69,138.15Zm-5.14-84.66a.83.83,0,0,0,.22,0,.86.86,0,0,0,.75-.43l3.61-6.26V63.21l-14.19,8.2,3.62-6.26a.85.85,0,0,0-.14-1l-16.75-16.75Zm-20.32,13-9.57,16.62L1142,92.74l-25.2-25.16-9.71-35.93,35.9,9.6ZM1109.73,8l16.72,16.73-22.77-6.11-2.23-8.32Zm-23.94,18,8.32,2.23L1100.22,51,1083.56,34.3Zm-5.74,21.42,26.23,26.23,9.23,34.44-16.62,9.59h-19.2l-9.25-34.4Zm-15.66-15.68,6.12,6-6.12,22.84-6.1-22.76Zm-6.06,51.45-9.24,34.49-19.18,0L1013.25,108l9.19-34.4,26.26-26.37ZM1034.64,28.2,1043,26l2.23,8.32L1028.54,51ZM1018.9,8l8.42,2.26-2.16,8.31-22.86,6.13ZM985.71,41.31l35.86-9.61L1012,67.53,986.76,92.74l-16.61-9.59-9.61-16.64ZM939.26,53.09a.85.85,0,0,0,.75.44l.22,0,22.88-6.14L946.35,64.12a.86.86,0,0,0-.13,1l3.61,6.25-14.18-8.19V46.83Zm-3.54,84.22V130.1l8.17,14.17-8.16,14.16v-7.2a.87.87,0,0,0-.64-.83l-22.88-6.13,22.87-6.13A.86.86,0,0,0,935.72,137.31ZM924,129l-34.39,9.23-36-9.55,26.3-26.3,34.44-9.23L924,109.74Zm0-42.65-3.62-6.27a.86.86,0,0,0-.75-.43.83.83,0,0,0-.22,0l-22.88,6.13L913.28,69a.85.85,0,0,0,.14-1l-3.62-6.26L924,69.91ZM899.55,15.55l.08,0a.8.8,0,0,0,.42.11.85.85,0,0,0,.6-.24.87.87,0,0,0,.24-.83L909,.61l14.94,25.85v29.9L898.09,41.47l-15-25.92Zm-30,0,8.18,14.15-6.23-3.59a.88.88,0,0,0-.44-.12.86.86,0,0,0-.6.25L853.74,43l6.12-22.87a.86.86,0,0,0-.4-1l-6.26-3.6Zm3.3,24.87L889.49,50l9.61,16.63-25.17,25.2-35.86,9.61,9.6-35.82ZM810.54,15.52h19.23l16.62,9.59-9.19,34.4L810.92,85.8,801.32,50ZM795.26,72.58l6.16,22.72-6.16,6.16-6.11-6.11Zm-34.52-57H780l9.24,34.4-9.61,35.86L753.36,59.56l-9.23-34.44Zm-8.19,86-35.93-9.62L691.41,66.65,701,50l16.66-9.61,25.2,25.16ZM720.94,15.54h16.34l-6.23,3.6a.87.87,0,0,0-.4,1L736.78,43,720,26.23a.9.9,0,0,0-.61-.25.82.82,0,0,0-.43.12l-6.24,3.6ZM681.53.6l8.06,14a.93.93,0,0,0,.11.54.94.94,0,0,0,.47.39.91.91,0,0,0,.57.21h0a.83.83,0,0,0,.52-.17H707.4l-15,25.89L666.58,56.37V26.54Zm-.82,61.15L677.09,68a.85.85,0,0,0,.14,1L694,85.8l-22.89-6.13a.91.91,0,0,0-.23,0,.85.85,0,0,0-.74.43l-3.61,6.25V70Zm-25.29,76.38,22.88,6.13-22.87,6.13a.86.86,0,0,0-.64.83v7.21l-8.17-14.17,8.16-14.16v7.2A.86.86,0,0,0,655.42,138.13Zm-5.13-84.66a.83.83,0,0,0,.22,0,.88.88,0,0,0,.75-.43l3.61-6.25V63.2l-14.19,8.19,3.62-6.26a.86.86,0,0,0-.14-1L627.4,47.34ZM630,66.48,620.39,83.1l-16.65,9.62-25.2-25.16-9.71-35.92,35.9,9.6ZM571.47,8,588.19,24.7l-22.77-6.1-2.23-8.33Zm-23.94,18,8.32,2.22L562,50.94,545.29,34.28Zm-5.74,21.42L568,73.58,577.25,108l-16.62,9.59H541.42l-9.24-34.4ZM526.12,31.68l6.1,6.11-6.09,22.74L520,37.77Zm-6,51.45-9.24,34.48-19.18,0L475,108l9.19-34.39,26.29-26.29ZM496.38,28.18,504.73,26,507,34.26,490.28,50.94ZM480.63,8l8.42,2.25-2.24,8.34L464,24.71ZM447.44,41.3l35.87-9.61-9.6,35.82L448.5,92.72l-16.61-9.59L422.27,66.5ZM401,53.08a.85.85,0,0,0,.74.43.91.91,0,0,0,.23,0l22.88-6.13L408.09,64.11a.86.86,0,0,0-.13,1l3.61,6.25-14.18-8.2V46.82Zm-3.55,84.25v-7.2l8.17,14.17-8.17,14.15v-7.19a.87.87,0,0,0-.64-.83l-22.89-6.13,22.88-6.13A.87.87,0,0,0,397.45,137.33ZM385.73,129l-34.39,9.24-36-9.55,26.26-26.29,34.49-9.24,9.61,16.65Zm0-42.65-3.61-6.26a.88.88,0,0,0-.75-.43.83.83,0,0,0-.22,0l-22.88,6.13L375,69.06a.86.86,0,0,0,.14-1l-3.62-6.26,14.19,8.18ZM361.13,15.58a1.14,1.14,0,0,0,.41.07h0a.82.82,0,0,0,.3-.07.86.86,0,0,0,.71-.43.88.88,0,0,0,.1-.57l8.07-14,14.94,25.9V56.4L359.82,41.5l-15-25.92Zm-29.87-.09,8.22,14.23-6.23-3.6a.92.92,0,0,0-.43-.11.9.9,0,0,0-.61.25L315.46,43l6.13-22.87a.86.86,0,0,0-.4-1l-6.29-3.62Zm3.35,24.95L351.22,50l9.61,16.63-25.17,25.2-35.86,9.61,9.59-35.83ZM272.27,15.55h19.18l16.66,9.61-9.19,34.4L272.67,85.92,263,50ZM263.08,95.4l-6.1,6.09-6.12-6L257,72.63ZM222.47,15.55h19.21L250.92,50l-9.61,35.86L215.08,59.58l-9.22-34.44Zm-8.2,86L178.35,91.9,153.13,66.68,162.75,50l16.62-9.6L204.56,65.6Zm-31.6-85.95H199l-6.23,3.6a.86.86,0,0,0-.4,1L198.51,43,181.76,26.26a.86.86,0,0,0-.61-.25.88.88,0,0,0-.43.12l-6.23,3.6ZM143.25.63l8.38,14.52a.86.86,0,0,0,.74.43h16.76l-15,25.89L128.31,56.4l0-29.84Zm-.82,61.15L138.82,68a.86.86,0,0,0,.13,1L155.7,85.83l-22.89-6.14a.78.78,0,0,0-.22,0,.84.84,0,0,0-.74.44l-3.61,6.25V70Zm-25.28,76.38L140,144.29l-22.87,6.13a.86.86,0,0,0-.64.83v7.22l-8.19-14.18,8.17-14.16v7.2A.86.86,0,0,0,117.15,138.16ZM112,53.5a.83.83,0,0,0,.22,0,.88.88,0,0,0,.75-.43l3.6-6.26V63.22l-14.19,8.2L106,65.16a.88.88,0,0,0-.14-1L89.13,47.37ZM7,34.31,9.26,26l8.32,2.23L23.68,51ZM27.15,18.63,24.92,10.3,33.19,8,49.91,24.73Zm3.41,13L66.49,41.3,91.7,66.51,82.12,83.13,65.46,92.75,40.27,67.59Zm15.26,86L52.05,114a.86.86,0,0,0,.4-1L46.32,90.19l16.75,16.74a.82.82,0,0,0,.61.25.84.84,0,0,0,.43-.11l6.23-3.6-8.18,14.16ZM62.12,171l8.23,14.23-6.23-3.6a1,1,0,0,0-.43-.11.82.82,0,0,0-.61.25L46.33,198.49l6.13-22.88a.85.85,0,0,0-.41-1L45.77,171ZM40.26,221.13l25.21-25.21,16.62,9.6,9.61,16.63-25.17,25.2L30.66,257ZM27.16,270l22.75-6.09L33.24,280.6l-8.32-2.23Zm0,59.47-2.23-8.33,8.27-2.29L49.91,335.6Zm3.41,13,35.93,9.63L91.7,377.38,82.12,394l-16.66,9.62L40.27,378.46Zm15.26,86,6.23-3.59a.86.86,0,0,0,.4-1l-6.13-22.88L63.07,417.8a.83.83,0,0,0,.61.26.85.85,0,0,0,.43-.12l6.23-3.6L62.16,428.5Zm16.35,53.42,8.18,14.15-6.23-3.6a1,1,0,0,0-.43-.11.86.86,0,0,0-.61.25L46.33,509.36l6.13-22.87a.86.86,0,0,0-.41-1l-6.25-3.6ZM40.26,532l25.21-25.21,16.62,9.6L91.7,533l-25.18,25.2-35.86,9.61Zm-13.1,48.9,22.75-6.09L33.24,591.47l-8.32-2.23Zm0,59.47L24.92,632l8.27-2.29,16.72,16.72Zm3.41,13L66.49,663,91.7,688.26l-9.58,16.61L65.46,714.5,40.27,689.33Zm15.26,86,6.23-3.6a.86.86,0,0,0,.4-1l-6.13-22.88,16.75,16.75a.86.86,0,0,0,.61.25.85.85,0,0,0,.43-.12l6.23-3.6-8.18,14.16Zm16.35,53.41L70.35,807l-6.23-3.6a.85.85,0,0,0-.43-.12.86.86,0,0,0-.61.25L46.33,820.23l6.13-22.87a.86.86,0,0,0-.41-1l-6.25-3.6ZM40.26,842.88l25.21-25.22,16.62,9.6,9.61,16.63-25.18,25.2L30.66,878.7ZM27.07,891.8l22.84-6.12L33.24,902.35l-8.32-2.24Zm.08,59.44-2.23-8.32,8.34-2.23,16.66,16.65Zm3.41,13,35.93,9.62L91.7,999.13l-9.58,16.61-16.66,9.63-25.19-25.16Zm15.26,86,6.23-3.6a.86.86,0,0,0,.4-1l-6.13-22.88,16.75,16.75a.86.86,0,0,0,.61.25.85.85,0,0,0,.43-.12l6.23-3.6-8.18,14.16Zm16.35,53.42,8.18,14.15-6.23-3.6a.85.85,0,0,0-.43-.12.83.83,0,0,0-.61.26l-16.75,16.75,6.13-22.88a.87.87,0,0,0-.41-1l-6.25-3.6Zm-21.91,50.08,25.21-25.21,16.62,9.59,9.61,16.63L66.53,1180l-35.87,9.61Zm-13.19,48.92,22.84-6.12-16.67,16.67L24.92,1211Zm.08,59.44-2.23-8.32,8.27-2.3,16.72,16.73Zm3.41,13,35.89,9.6L91.7,1310l-9.58,16.61-16.66,9.63-25.19-25.16Zm31.7,86H45.82l6.23-3.6a.86.86,0,0,0,.4-1l-6.13-22.88,16.75,16.75a.86.86,0,0,0,.61.25.85.85,0,0,0,.43-.12l6.26-3.61Zm39.37,15-8.12-14.06a.85.85,0,0,0-.58-.92.83.83,0,0,0-.57-.22h0a.87.87,0,0,0-.52.17H75.7l14.92-25.87,25.9-15,0,29.84Zm15-69.42-14.19,8.2,3.62-6.26a.88.88,0,0,0-.14-1l-16.75-16.76L112,1297a.83.83,0,0,0,.22,0,.88.88,0,0,0,.75-.43l3.6-6.26Zm0-39.84-9.6,16.64-34.41-9.2-26.26-26.25,35.83-9.6,34.44,9.23Zm11.08-28.35-22.88-6.13,22.88-6.13a.86.86,0,0,0,.63-.83v-7.24l8.22,14.12-8.21,14.24v-7.2A.86.86,0,0,0,127.68,1238.52Zm5.13,84.66a.78.78,0,0,0-.22,0,.85.85,0,0,0-.74.43l-3.61,6.26v-16.38l14.2-8.2-3.61,6.26a.86.86,0,0,0,.13,1l16.75,16.75Zm20.32-13,9.58-16.62,16.66-9.62,25.19,25.16,9.71,35.92-35.92-9.63Zm58.51,58.5L194.92,1352l22.76,6.1,2.23,8.33Zm23.93-18-8.29-2.14-6.13-22.87,16.66,16.66Zm5.74-21.42-26.23-26.23-9.22-34.44,16.61-9.59h19.21l9.24,34.4ZM257,1345l-6.12-6,6.12-22.84,6.1,22.76Zm6.06-51.5,9.23-34.44,19.18,0,16.66,9.62-9.19,34.4-26.25,26.37Zm23.68,55-8.34,2.24-2.23-8.32,16.67-16.68Zm15.66,20.14-8.32-2.23,2.23-8.34,22.75-6.1Zm33.28-33.25L299.8,1345l9.59-35.83,25.22-25.21,16.61,9.59,9.61,16.63Zm46.45-11.79a.88.88,0,0,0-.75-.43.83.83,0,0,0-.22,0l-22.88,6.13L375,1312.55a.86.86,0,0,0,.14-1l-3.63-6.28,14.2,8.12v16.49Zm3.55-84.25v7.2l-8.18-14.17,8.17-14.15v7.19a.87.87,0,0,0,.64.84l22.88,6.13-22.88,6.12A.88.88,0,0,0,385.66,1239.32Zm11.72,8.33,34.38-9.24,35.91,9.62-26.2,26.22L407,1283.49l-9.6-16.6Zm0,42.65,3.62,6.27a.85.85,0,0,0,.74.43.91.91,0,0,0,.23,0l22.88-6.13-16.76,16.75a.86.86,0,0,0-.13,1l3.61,6.25-14.18-8.19Zm24.6,70.77a1.4,1.4,0,0,0-.41-.06h0a.77.77,0,0,0-.3.06.87.87,0,0,0-.71.43.89.89,0,0,0-.11.57l-8.07,14-14.94-25.85v-30l25.85,14.9,15.06,25.92Zm29.82,0-8.18-14.15,6.23,3.6a.88.88,0,0,0,.43.12.83.83,0,0,0,.61-.26l16.75-16.75-6.13,22.88a.88.88,0,0,0,.4,1l6.24,3.6Zm-3.3-24.87-16.61-9.59L422.27,1310l25.18-25.2,35.86-9.61-9.6,35.83Zm62.33,24.89-19.18,0L475,1351.5l9.19-34.4,26.29-26.28,9.6,35.79Zm9.2-79.84,6.09-6.09,6.1,6.1L526.13,1304Zm40.6,79.84H541.42l-9.24-34.4,9.61-35.87L568,1317.07l9.23,34.44Zm8.29-85.95,35.8,9.57L630,1310l-9.58,16.62-16.65,9.62-25.2-25.16Zm31.52,85.94H584.09l6.23-3.6a.85.85,0,0,0,.41-1l-6.14-22.89,16.75,16.75a.85.85,0,0,0,.61.25.81.81,0,0,0,.43-.11l6.24-3.6ZM639.85,1376l-8.06-14a.87.87,0,0,0-.58-.92.87.87,0,0,0-.58-.22.88.88,0,0,0-.52.18H614l14.92-25.86,25.9-15,0,29.83Zm.82-61.14,3.62-6.26a.86.86,0,0,0-.14-1l-16.75-16.75,22.89,6.13a.83.83,0,0,0,.22,0,.88.88,0,0,0,.75-.43l3.61-6.26v16.38Zm14.2-48-9.6,16.64-34.41-9.2L584.6,1248l35.83-9.6,34.44,9.23ZM666,1238.49l-22.87-6.13,22.87-6.13a.86.86,0,0,0,.64-.83v-7.24l8.22,14.12-8.22,14.24v-7.2A.86.86,0,0,0,666,1238.49Zm5.14,84.66a.91.91,0,0,0-.23,0,.85.85,0,0,0-.74.43l-3.61,6.26v-16.37l14.21-8.21-3.62,6.27a.85.85,0,0,0,.14,1L694,1329.29Zm20.32-13,9.57-16.62,16.66-9.62,25.2,25.16,9.71,35.92-35.93-9.63Zm58.5,58.51-16.72-16.73L756,1358l2.23,8.32Zm23.94-18-8.32-2.23-6.11-22.78,16.66,16.66Zm5.73-21.42L753.36,1303l-9.23-34.44,16.61-9.59H780l9.24,34.41Zm15.68,15.67-6.11-6.1,6.1-22.75,6.1,22.76Zm6.06-51.49,9.22-34.44h19.23l16.62,9.59L837.2,1303l-26.28,26.28Zm23.68,55-8.35,2.24-2.23-8.32,16.67-16.68Zm15.65,20.14-8.33-2.23,2.16-8.31,22.84-6.12Zm33.28-33.25-35.86,9.61,9.6-35.83,25.21-25.21,16.61,9.6,9.61,16.63Zm46.45-11.78a.86.86,0,0,0-.75-.43l-.22,0-22.88,6.13,16.75-16.75a.85.85,0,0,0,.14-1l-3.63-6.28,14.2,8.12v16.49Zm3.54-84.22v7.24l-8.22-14.12,8.21-14.23v7.19a.86.86,0,0,0,.64.83l22.88,6.13-22.87,6.13A.86.86,0,0,0,923.92,1239.33Zm11.72,8.33,34.38-9.23,36,9.55-26.29,26.3-34.44,9.23-9.61-16.66Zm0,42.65,3.62,6.27a.86.86,0,0,0,.75.43l.22,0,22.88-6.13-16.76,16.76a.86.86,0,0,0-.13,1l3.62,6.28-14.19-8.13Zm25.07,70.78a.85.85,0,0,0-.49-.31.62.62,0,0,0-.19,0,.83.83,0,0,0-.53.18.86.86,0,0,0-.49.23.84.84,0,0,0-.25.82l-8.1,14-14.94-25.85v-29.9l25.83,14.89,15,25.92Zm29.4.09-8.23-14.24,6.23,3.6a.88.88,0,0,0,.44.12.86.86,0,0,0,.6-.25l16.76-16.76-6.14,22.88a.87.87,0,0,0,.41,1l6.26,3.62Zm-3.35-25-16.61-9.6L960.54,1310l25.17-25.2,35.86-9.61L1012,1311Zm62.33,24.89h-19.18l-16.66-9.61,9.19-34.4,26.26-26.38,9.63,35.89Zm9.2-79.85,6.09-6.09,6.11,6.11-6.1,22.75Zm40.61,79.84h-19.21l-9.25-34.4,9.61-35.86,26.23,26.22,9.23,34.44Zm8.28-85.95,35.81,9.58,25.24,25.25-9.57,16.61-16.66,9.62-25.2-25.15Zm31.62,85.94h-16.44l6.23-3.6a.87.87,0,0,0,.4-1l-6.13-22.88,16.74,16.75a.9.9,0,0,0,.61.25.82.82,0,0,0,.43-.12l6.27-3.61Zm31.14.41a.91.91,0,0,0-.48-.38.87.87,0,0,0-.57-.21.82.82,0,0,0-.51.17h-16.14l15-25.89,25.86-14.94v29.83l-15,25.94-8.06-14A.94.94,0,0,0,1169.94,1361.51Z" class="cls-2"/></g></g></svg>