<svg id="Layer_1" data-name="Layer 1" xmlns="http://www.w3.org/2000/svg" xmlns:xlink="http://www.w3.org/1999/xlink" viewBox="0 0 1918.18 1074.24"><defs><style>.cls-1{fill:none;}.cls-2{fill:#f2d3b6;}.cls-3{fill:url(#New_Pattern_2);}</style><pattern id="New_Pattern_2" data-name="New Pattern 2" width="152" height="100" patternTransform="translate(-3569.2 -3781.52) scale(0.5)" patternUnits="userSpaceOnUse" viewBox="0 0 152 100"><rect class="cls-1" width="152" height="100"/><path class="cls-2" d="M209.09,200.7l-21-21-21,21V171h-29.7l21-21-21-21h29.7V99.31l21,21,21-21V129h29.7l-21,21,21,21h-29.7Zm-21-29.48,15,15V165H224.3l-15-15,15-15H203.09V113.78l-15,15-15-15V135H151.88l15,15-15,15h21.21v21.21Z"/><path class="cls-2" d="M57.09,200.7l-21-21-21,21V171h-29.7l21-21-21-21h29.7V99.31l21,21,21-21V129h29.7l-21,21,21,21H57.09Zm-21-29.48,15,15V165H72.3l-15-15,15-15H51.09V113.78l-15,15-15-15V135H-.12l15,15-15,15H21.09v21.21Z"/><path class="cls-2" d="M112,204.35l-21-21,0-12.34L78.3,171l-21-21,21-21,12.63,0,0-12.34,21-21,21,21L133,129l12.64,0,21,21-21,21L133,171l0,12.32ZM97,180.87l15,15,15-15L127,165l16.14,0,15-15-15-15L127,135l0-15.84-15-15-15,15,0,15.83-16.13,0-15,15,15,15,16.13,0Z"/><path class="cls-2" d="M-40,204.35l-21-21,0-12.34-12.63,0-21-21,21-21,12.63,0,0-12.34,21-21,21,21L-19,129l12.64,0,21,21-21,21L-19,171l0,12.32Zm-15-23.48,15,15,15-15L-25,165l16.14,0,15-15-15-15L-25,135l0-15.84-15-15-15,15,0,15.83-16.13,0-15,15,15,15,16.13,0Z"/><path class="cls-2" d="M209.09,100.7l-21-21-21,21V71h-29.7l21-21-21-21h29.7V-.69l21,21,21-21V29h29.7l-21,21,21,21h-29.7Zm-21-29.48,15,15V65H224.3l-15-15,15-15H203.09V13.78l-15,15-15-15V35H151.88l15,15-15,15h21.21V86.21Z"/><path class="cls-2" d="M57.09,100.7l-21-21-21,21V71h-29.7l21-21-21-21h29.7V-.69l21,21,21-21V29h29.7l-21,21,21,21H57.09Zm-21-29.48,15,15V65H72.3l-15-15,15-15H51.09V13.78l-15,15-15-15V35H-.12l15,15-15,15H21.09V86.21Z"/><path class="cls-2" d="M112,104.35l-21-21,0-12.34L78.3,71l-21-21,21-21,12.63,0,0-12.34,21-21,21,21L133,29l12.64,0,21,21-21,21L133,71l0,12.32ZM97,80.87l15,15,15-15L127,65l16.14,0,15-15-15-15L127,35l0-15.84-15-15-15,15,0,15.83L80.79,35l-15,15,15,15,16.13,0Z"/><path class="cls-2" d="M-40,104.35l-21-21,0-12.34L-73.7,71l-21-21,21-21,12.63,0,0-12.34,21-21,21,21L-19,29l12.64,0,21,21-21,21L-19,71l0,12.32ZM-55,80.87l15,15,15-15L-25,65l16.14,0,15-15-15-15L-25,35l0-15.84-15-15-15,15,0,15.83-16.13,0-15,15,15,15,16.13,0Z"/><path class="cls-2" d="M209.09.7l-21-21-21,21V-29h-29.7l21-21-21-21h29.7v-29.69l21,21,21-21V-71h29.7l-21,21,21,21h-29.7Zm-21-29.48,15,15V-35H224.3l-15-15,15-15H203.09V-86.22l-15,15-15-15V-65H151.88l15,15-15,15h21.21v21.21Z"/><path class="cls-2" d="M57.09.7l-21-21-21,21V-29h-29.7l21-21-21-21h29.7v-29.69l21,21,21-21V-71h29.7l-21,21,21,21H57.09Zm-21-29.48,15,15V-35H72.3l-15-15,15-15H51.09V-86.22l-15,15-15-15V-65H-.12l15,15-15,15H21.09v21.21Z"/><path class="cls-2" d="M112,4.35l-21-21,0-12.34L78.3-29l-21-21,21-21,12.63,0,0-12.34,21-21,21,21L133-71l12.64,0,21,21-21,21L133-29l0,12.32ZM97-19.13l15,15,15-15L127-35l16.14,0,15-15-15-15L127-65l0-15.84-15-15-15,15,0,15.83L80.79-65l-15,15,15,15,16.13,0Z"/><path class="cls-2" d="M-40,4.35l-21-21,0-12.34L-73.7-29l-21-21,21-21,12.63,0,0-12.34,21-21,21,21L-19-71l12.64,0,21,21-21,21L-19-29l0,12.32ZM-55-19.13l15,15,15-15L-25-35l16.14,0,15-15-15-15L-25-65l0-15.84-15-15-15,15,0,15.83-16.13,0-15,15,15,15,16.13,0Z"/></pattern></defs><rect class="cls-3" width="1918.18" height="1074.24"/></svg>